<svg xmlns="http://www.w3.org/2000/svg" width="128" height="128" viewBox="0 0 128 128">
  <g id="Group_12101" data-name="Group 12101" transform="translate(-734.558 -335.558)">
    <circle id="Ellipse_710" data-name="Ellipse 710" cx="64" cy="64" r="64" transform="translate(734.558 335.558)" fill="#04a349"/>
    <g id="Group_10800" data-name="Group 10800" transform="translate(66.384 -124.864) rotate(9)" opacity="0.9">
      <path id="Path_12729" data-name="Path 12729" d="M10.512-16.008H4.536L4.08-12.24h1.7L4.3,0H8.544Zm13.2,0H15.864L13.512-6.672a7.847,7.847,0,0,1,2.856-.552c1.056,0,2.3.288,2.3,1.584a2.188,2.188,0,0,1-2.424,1.992,6.107,6.107,0,0,1-3.24-1.1L12.048-.96A7.869,7.869,0,0,0,16.224.288a6.686,6.686,0,0,0,6.744-6.5,3.984,3.984,0,0,0-4.056-4.248c-.24,0-.48,0-.72.024l.576-1.8h4.488Zm8.424,0L30.168,0h3.984a6.69,6.69,0,0,0,6.192-3.072,12.058,12.058,0,0,0,1.8-6.48c0-4.008-2.28-6.456-6.336-6.456ZM35.9-12c1.608,0,1.848,1.728,1.848,2.976,0,1.8-.552,5.04-2.856,5.16Zm18.024.792H49.752c-.024.6-.072,1.176-.1,1.776-.432-1.152-1.008-2.016-2.376-2.016-2.28,0-3.5,2.448-3.96,4.368a13.244,13.244,0,0,0-.336,3.072c0,1.752.5,4.248,2.712,4.248A3.613,3.613,0,0,0,48.816-1.9c-.12.624-.24,1.272-.36,1.9h4.1ZM49.2-6.912c0,.816-.216,3.72-1.344,3.72-.7,0-.744-.792-.744-1.32,0-.84.264-3.5,1.416-3.5C49.128-8.016,49.2-7.368,49.2-6.912Zm16.656-4.3h-4.08l-.912,2.424c-.48,1.272-.792,2.616-1.152,3.936,0-.24.024-.48.024-.72a49.264,49.264,0,0,0-.528-5.64H55.08L57.048-.456,54.408,5.16h4.224Zm8.3.672a6.15,6.15,0,0,0-3.168-.912c-2.424,0-5.016,1.632-5.016,4.272,0,1.608,1.152,2.328,2.5,2.856.384.144.96.312.96.816,0,.456-.48.648-.864.648a2.738,2.738,0,0,1-1.9-1.176L64.8-.936A6.814,6.814,0,0,0,68.616.24c2.472,0,4.9-1.7,4.9-4.344,0-2.976-3.408-2.5-3.408-3.768a.67.67,0,0,1,.72-.6,2.252,2.252,0,0,1,1.56.984Z" transform="translate(767.087 397.546)" fill="#fff"/>
      <path id="Path_12728" data-name="Path 12728" d="M9.912-16.008H2.4L.432,0H4.68l.792-6.288H8.5l.456-3.624H5.9l.288-2.328H9.456Zm1.656,0L9.6,0h4.248c.288-2.208.576-4.416.768-6.648.144.624.264,1.224.408,1.848.36,1.608.792,3.192,1.176,4.8h4.608L18.456-6.648a4.768,4.768,0,0,0,2.976-4.776c0-3.5-2.376-4.584-5.52-4.584ZM14.9-8.592l.48-3.816c1.08,0,1.8.336,1.8,1.536a2.2,2.2,0,0,1-1.992,2.28Zm17.184-7.416h-7.92L22.2,0h7.92l.456-3.84H26.928l.312-2.448H30.5l.456-3.624H27.672l.288-2.328h3.648Zm9.72,0h-7.92L31.92,0h7.92L40.3-3.84H36.648l.312-2.448h3.264l.456-3.624H37.392l.288-2.328h3.648Zm15.24,0H48.1l-.48,3.84h2.352L48.48,0h4.248l1.488-12.168h2.352Zm1.2,0L56.28,0h4.248c.288-2.208.576-4.416.768-6.648.144.624.264,1.224.408,1.848.36,1.608.792,3.192,1.176,4.8h4.608L65.136-6.648a4.768,4.768,0,0,0,2.976-4.776c0-3.5-2.376-4.584-5.52-4.584Zm3.336,7.416.48-3.816c1.08,0,1.8.336,1.8,1.536a2.2,2.2,0,0,1-1.992,2.28ZM75.1-16.008H70.848L68.88,0h4.248ZM86.688,0,85.32-16.008H80.112L74.352,0h4.416l.6-2.04h2.856L82.3,0ZM82.1-7.32c0,.624.024,1.248.048,1.872h-1.8c.456-1.488.84-2.976,1.272-4.464.216-.744.36-1.512.552-2.256-.024.912-.072,1.848-.072,2.76ZM95.832-3.84H92.64l1.488-12.168H89.88L87.912,0h7.464Z" transform="translate(756.558 424.218)" fill="#fff"/>
    </g>
  </g>
</svg>
