<svg xmlns="http://www.w3.org/2000/svg" width="50" height="50" viewBox="0 0 50 50">
  <g id="Group_10767" data-name="Group 10767" transform="translate(5 5)">
    <g id="Path_11027" data-name="Path 11027" transform="translate(0 0)" fill="#fff">
      <path d="M 20 42.5 C 16.96361923217773 42.5 14.01673984527588 41.90475845336914 11.24122047424316 40.73080825805664 C 8.561639785766602 39.59743881225586 6.15565013885498 37.97544860839844 4.090099811553955 35.9099006652832 C 2.024549961090088 33.8443489074707 0.4025599956512451 31.4383602142334 -0.7308099865913391 28.75877952575684 C -1.904760003089905 25.9832592010498 -2.5 23.03638076782227 -2.5 20 C -2.5 16.96361923217773 -1.904760003089905 14.01673984527588 -0.7308099865913391 11.24122047424316 C 0.4025599956512451 8.561639785766602 2.024549961090088 6.15565013885498 4.090099811553955 4.090099811553955 C 6.15565013885498 2.024549961090088 8.561639785766602 0.4025599956512451 11.24122047424316 -0.7308099865913391 C 14.01673984527588 -1.904760003089905 16.96361923217773 -2.5 20 -2.5 C 23.03638076782227 -2.5 25.9832592010498 -1.904760003089905 28.75877952575684 -0.7308099865913391 C 31.4383602142334 0.4025599956512451 33.8443489074707 2.024549961090088 35.9099006652832 4.090099811553955 C 37.97544860839844 6.15565013885498 39.59743881225586 8.561639785766602 40.73080825805664 11.24122047424316 C 41.90475845336914 14.01673984527588 42.5 16.96361923217773 42.5 20 C 42.5 23.03638076782227 41.90475845336914 25.9832592010498 40.73080825805664 28.75877952575684 C 39.59743881225586 31.4383602142334 37.97544860839844 33.8443489074707 35.9099006652832 35.9099006652832 C 33.8443489074707 37.97544860839844 31.4383602142334 39.59743881225586 28.75877952575684 40.73080825805664 C 25.9832592010498 41.90475845336914 23.03638076782227 42.5 20 42.5 Z" stroke="none"/>
      <path d="M 20 0 C 8.954309463500977 0 0 8.954309463500977 0 20 C 0 31.04568862915039 8.954309463500977 40 20 40 C 31.04568862915039 40 40 31.04568862915039 40 20 C 40 8.954309463500977 31.04568862915039 0 20 0 M 20 -5 C 23.37277984619141 -5 26.64731979370117 -4.338310241699219 29.7326602935791 -3.033321380615234 C 32.71023941040039 -1.773910522460938 35.38333129882812 0.02798843383789062 37.67766952514648 2.322330474853516 C 39.97201156616211 4.616668701171875 41.77391052246094 7.289760589599609 43.03332138061523 10.2673397064209 C 44.33831024169922 13.35268020629883 45 16.62722015380859 45 20 C 45 23.37277984619141 44.33831024169922 26.64731979370117 43.03332138061523 29.7326602935791 C 41.77391052246094 32.71023941040039 39.97201156616211 35.38333129882812 37.67766952514648 37.67766952514648 C 35.38333129882812 39.97201156616211 32.71023941040039 41.77391052246094 29.7326602935791 43.03332138061523 C 26.64731979370117 44.33831024169922 23.37277984619141 45 20 45 C 16.62722015380859 45 13.35268020629883 44.33831024169922 10.2673397064209 43.03332138061523 C 7.289760589599609 41.77391052246094 4.616668701171875 39.97201156616211 2.322330474853516 37.67766952514648 C 0.02798843383789062 35.38333129882812 -1.773910522460938 32.71023941040039 -3.033321380615234 29.7326602935791 C -4.338310241699219 26.64731979370117 -5 23.37277984619141 -5 20 C -5 16.62722015380859 -4.338310241699219 13.35268020629883 -3.033321380615234 10.2673397064209 C -1.773910522460938 7.289760589599609 0.02798843383789062 4.616668701171875 2.322330474853516 2.322330474853516 C 4.616668701171875 0.02798843383789062 7.289760589599609 -1.773910522460938 10.2673397064209 -3.033321380615234 C 13.35268020629883 -4.338310241699219 16.62722015380859 -5 20 -5 Z" stroke="none" fill="#bc4747"/>
    </g>
    <g id="noun_admin_370865" transform="translate(8.503 4.659)">
      <path id="Path_11029" data-name="Path 11029" d="M66.861,65.247H45.417A1.424,1.424,0,0,1,44,63.829c.046-4.115.183-6.447,3.109-7.5a28.769,28.769,0,0,0,4.755-2.286l2.286,7.224.32.96,1.006-2.88c-2.332-3.292.229-3.475.64-3.475h0c.457,0,2.972.137.64,3.429l1.006,2.88.32-.96L60.368,54a28.769,28.769,0,0,0,4.755,2.286c2.926,1.052,3.063,3.383,3.109,7.5A1.37,1.37,0,0,1,66.861,65.247ZM49.944,47.6c.411,1.417.777,1.829,1.052,1.875a6.073,6.073,0,0,0,3.749,4.618,4.039,4.039,0,0,0,2.743,0,6.266,6.266,0,0,0,3.749-4.618c.274,0,.64-.411,1.052-1.875.549-1.966-.046-2.24-.549-2.195a5.529,5.529,0,0,0,.229-.823c.823-5.075-1.646-5.258-1.646-5.258a4.087,4.087,0,0,0-1.509-1.417,5.02,5.02,0,0,0-3.063-.64,3.92,3.92,0,0,0-1.234.229h0a6.41,6.41,0,0,0-1.372.686,6.514,6.514,0,0,0-1.372,1.143,6.038,6.038,0,0,0-1.509,2.652,5.384,5.384,0,0,0,0,2.56h0a5.528,5.528,0,0,0,.229.823C49.99,45.358,49.4,45.632,49.944,47.6Z" transform="translate(-44 -37.236)" fill="#bc4747"/>
    </g>
  </g>
</svg>
