<svg xmlns="http://www.w3.org/2000/svg" width="411" height="414" viewBox="0 0 411 414">
  <g id="Group_10505" data-name="Group 10505" transform="translate(-788 -1735)">
    <g id="Group_8768" data-name="Group 8768" transform="translate(787.773 1734.947)">
      <rect id="Rectangle_3168" data-name="Rectangle 3168" width="411" height="414" rx="14" transform="translate(0.227 0.053)" fill="#fff"/>
      <rect id="Rectangle_3170" data-name="Rectangle 3170" width="155" height="48" rx="3" transform="translate(201.227 44.053)" fill="#64a9d8"/>
      <rect id="Rectangle_3169" data-name="Rectangle 3169" width="144" height="48" rx="3" transform="translate(52.227 44.053)" fill="#58a77a"/>
      <rect id="Rectangle_3171" data-name="Rectangle 3171" width="155" height="36" rx="2" transform="translate(201.227 96.053)" fill="#e2e2e2"/>
      <rect id="Rectangle_3172" data-name="Rectangle 3172" width="155" height="37" rx="2" transform="translate(201.227 137.053)" fill="#e2e2e2"/>
      <rect id="Rectangle_3175" data-name="Rectangle 3175" width="155" height="35" rx="2" transform="translate(201.227 179.053)" fill="#e2e2e2"/>
      <rect id="Rectangle_3177" data-name="Rectangle 3177" width="155" height="37" rx="2" transform="translate(201.227 219.053)" fill="#e2e2e2"/>
      <rect id="Rectangle_3179" data-name="Rectangle 3179" width="155" height="37" rx="2" transform="translate(201.227 261.053)" fill="#e2e2e2"/>
      <rect id="Rectangle_3173" data-name="Rectangle 3173" width="144" height="36" rx="2" transform="translate(52.227 96.053)" fill="#e2e2e2"/>
      <rect id="Rectangle_3174" data-name="Rectangle 3174" width="144" height="37" rx="2" transform="translate(52.227 137.053)" fill="#e2e2e2"/>
      <rect id="Rectangle_3176" data-name="Rectangle 3176" width="144" height="35" rx="2" transform="translate(52.227 179.053)" fill="#e2e2e2"/>
      <rect id="Rectangle_3178" data-name="Rectangle 3178" width="144" height="37" rx="2" transform="translate(52.227 219.053)" fill="#e2e2e2"/>
      <rect id="Rectangle_3180" data-name="Rectangle 3180" width="144" height="37" rx="2" transform="translate(52.227 261.053)" fill="#e2e2e2"/>
      <path id="Path_12286" data-name="Path 12286" d="M-34.344-4.939h-4.781V0h-2.49V-12.086h7.869v2.017h-5.379v3.121h4.781ZM-29.928,0h-2.407V-8.981h2.407Zm-2.548-11.306a1.181,1.181,0,0,1,.361-.888,1.356,1.356,0,0,1,.984-.349,1.36,1.36,0,0,1,.979.349,1.175,1.175,0,0,1,.365.888,1.178,1.178,0,0,1-.369.9,1.363,1.363,0,0,1-.975.349,1.363,1.363,0,0,1-.975-.349A1.178,1.178,0,0,1-32.477-11.306ZM-23.819.166a4.409,4.409,0,0,1-3.217-1.212,4.308,4.308,0,0,1-1.241-3.229v-.232a5.426,5.426,0,0,1,.523-2.42,3.838,3.838,0,0,1,1.482-1.644,4.159,4.159,0,0,1,2.187-.577,3.727,3.727,0,0,1,2.9,1.162,4.722,4.722,0,0,1,1.058,3.3v.979h-5.719a2.229,2.229,0,0,0,.7,1.411,2.12,2.12,0,0,0,1.482.531,2.589,2.589,0,0,0,2.167-1l1.179,1.32A3.6,3.6,0,0,1-21.777-.261,4.793,4.793,0,0,1-23.819.166Zm-.274-7.371a1.5,1.5,0,0,0-1.158.481,2.487,2.487,0,0,0-.569,1.378h3.337v-.191a1.773,1.773,0,0,0-.432-1.233A1.55,1.55,0,0,0-24.093-7.205ZM-16.232,0h-2.407V-12.75h2.407Zm1.6-4.557A5.413,5.413,0,0,1-13.688-7.9a3.057,3.057,0,0,1,2.577-1.245,2.751,2.751,0,0,1,2.167.979V-12.75h2.407V0H-8.7L-8.82-.955A2.823,2.823,0,0,1-11.127.166a3.049,3.049,0,0,1-2.544-1.249A5.587,5.587,0,0,1-14.63-4.557Zm2.4.174a3.536,3.536,0,0,0,.44,1.934,1.434,1.434,0,0,0,1.278.672,1.605,1.605,0,0,0,1.569-.938V-6.259A1.582,1.582,0,0,0-10.5-7.2Q-12.231-7.2-12.231-4.383Zm21.092-7.7v7.96A4.076,4.076,0,0,1,7.62-.988,4.784,4.784,0,0,1,4.229.166,4.838,4.838,0,0,1,.867-.955,4.006,4.006,0,0,1-.4-4.034v-8.052h2.49v7.977a2.3,2.3,0,0,0,.569,1.731,2.183,2.183,0,0,0,1.573.544q2.1,0,2.133-2.208v-8.043Zm6.749,9.6a.773.773,0,0,0-.436-.693,4.95,4.95,0,0,0-1.4-.452q-3.2-.672-3.2-2.723a2.468,2.468,0,0,1,.992-2,4,4,0,0,1,2.594-.8,4.307,4.307,0,0,1,2.735.805A2.538,2.538,0,0,1,17.917-6.25h-2.4a1.161,1.161,0,0,0-.332-.851,1.405,1.405,0,0,0-1.038-.336,1.436,1.436,0,0,0-.938.274.865.865,0,0,0-.332.7.739.739,0,0,0,.378.643,3.885,3.885,0,0,0,1.274.423,10.407,10.407,0,0,1,1.511.4,2.482,2.482,0,0,1,1.9,2.416A2.343,2.343,0,0,1,16.888-.594a4.548,4.548,0,0,1-2.723.76,4.75,4.75,0,0,1-2-.4,3.363,3.363,0,0,1-1.374-1.1,2.565,2.565,0,0,1-.5-1.515h2.274a1.252,1.252,0,0,0,.473.979,1.877,1.877,0,0,0,1.179.34A1.737,1.737,0,0,0,15.257-1.8.814.814,0,0,0,15.61-2.482ZM23.62.166A4.409,4.409,0,0,1,20.4-1.046a4.308,4.308,0,0,1-1.241-3.229v-.232a5.426,5.426,0,0,1,.523-2.42,3.838,3.838,0,0,1,1.482-1.644,4.159,4.159,0,0,1,2.187-.577,3.727,3.727,0,0,1,2.9,1.162,4.722,4.722,0,0,1,1.058,3.3v.979H21.594A2.229,2.229,0,0,0,22.3-2.3a2.12,2.12,0,0,0,1.482.531,2.589,2.589,0,0,0,2.167-1l1.179,1.32A3.6,3.6,0,0,1,25.662-.261,4.793,4.793,0,0,1,23.62.166Zm-.274-7.371a1.5,1.5,0,0,0-1.158.481,2.487,2.487,0,0,0-.569,1.378h3.337v-.191a1.773,1.773,0,0,0-.432-1.233A1.55,1.55,0,0,0,23.346-7.205Zm10.376.473a6.517,6.517,0,0,0-.863-.066,1.757,1.757,0,0,0-1.785.921V0h-2.4V-8.981h2.266l.066,1.071a2.223,2.223,0,0,1,2-1.237,2.514,2.514,0,0,1,.747.108Zm6.018,4.25a.773.773,0,0,0-.436-.693,4.95,4.95,0,0,0-1.4-.452Q34.7-4.3,34.7-6.35a2.468,2.468,0,0,1,.992-2,4,4,0,0,1,2.594-.8,4.307,4.307,0,0,1,2.735.805A2.538,2.538,0,0,1,42.048-6.25h-2.4a1.161,1.161,0,0,0-.332-.851,1.405,1.405,0,0,0-1.038-.336,1.436,1.436,0,0,0-.938.274.865.865,0,0,0-.332.7.739.739,0,0,0,.378.643,3.885,3.885,0,0,0,1.274.423,10.407,10.407,0,0,1,1.511.4,2.482,2.482,0,0,1,1.9,2.416A2.343,2.343,0,0,1,41.018-.594,4.548,4.548,0,0,1,38.3.166a4.75,4.75,0,0,1-2-.4,3.363,3.363,0,0,1-1.374-1.1,2.565,2.565,0,0,1-.5-1.515h2.274a1.252,1.252,0,0,0,.473.979,1.877,1.877,0,0,0,1.179.34A1.737,1.737,0,0,0,39.387-1.8.814.814,0,0,0,39.74-2.482Z" transform="translate(268.227 74.053)" fill="#fff"/>
      <path id="Path_12287" data-name="Path 12287" d="M-21.35-2.49h-4.366L-26.546,0h-2.648l4.5-12.086h2.308L-17.863,0h-2.648Zm-3.694-2.017h3.021l-1.519-4.524Zm7.778-.05A5.413,5.413,0,0,1-16.323-7.9a3.057,3.057,0,0,1,2.577-1.245,2.751,2.751,0,0,1,2.167.979V-12.75h2.407V0h-2.167l-.116-.955A2.823,2.823,0,0,1-13.763.166a3.049,3.049,0,0,1-2.544-1.249A5.587,5.587,0,0,1-17.266-4.557Zm2.4.174a3.536,3.536,0,0,0,.44,1.934,1.434,1.434,0,0,0,1.278.672,1.605,1.605,0,0,0,1.569-.938V-6.259A1.582,1.582,0,0,0-13.132-7.2Q-14.867-7.2-14.867-4.383Zm9.8-4.6.075,1a3.156,3.156,0,0,1,2.582-1.17A2.4,2.4,0,0,1-.025-7.778a3.084,3.084,0,0,1,2.7-1.37A2.679,2.679,0,0,1,4.848-8.3a3.911,3.911,0,0,1,.714,2.561V0H3.154V-5.728a1.71,1.71,0,0,0-.3-1.116A1.324,1.324,0,0,0,1.8-7.2,1.5,1.5,0,0,0,.307-6.167L.315,0h-2.4V-5.719a1.689,1.689,0,0,0-.307-1.129A1.337,1.337,0,0,0-3.437-7.2a1.555,1.555,0,0,0-1.478.847V0h-2.4V-8.981ZM9.936,0H7.529V-8.981H9.936ZM7.388-11.306a1.181,1.181,0,0,1,.361-.888,1.356,1.356,0,0,1,.984-.349,1.36,1.36,0,0,1,.979.349,1.175,1.175,0,0,1,.365.888,1.178,1.178,0,0,1-.369.9,1.363,1.363,0,0,1-.975.349,1.363,1.363,0,0,1-.975-.349A1.178,1.178,0,0,1,7.388-11.306ZM14.12-8.981l.075,1.038a3.136,3.136,0,0,1,2.582-1.2,2.606,2.606,0,0,1,2.125.838A3.912,3.912,0,0,1,19.615-5.8V0h-2.4V-5.744a1.556,1.556,0,0,0-.332-1.108,1.486,1.486,0,0,0-1.1-.344,1.65,1.65,0,0,0-1.519.863V0h-2.4V-8.981ZM26.3-2.482a.773.773,0,0,0-.436-.693,4.95,4.95,0,0,0-1.4-.452q-3.2-.672-3.2-2.723a2.468,2.468,0,0,1,.992-2,4,4,0,0,1,2.594-.8,4.307,4.307,0,0,1,2.735.805A2.538,2.538,0,0,1,28.6-6.25h-2.4a1.161,1.161,0,0,0-.332-.851,1.405,1.405,0,0,0-1.038-.336,1.436,1.436,0,0,0-.938.274.865.865,0,0,0-.332.7.739.739,0,0,0,.378.643,3.885,3.885,0,0,0,1.274.423,10.407,10.407,0,0,1,1.511.4,2.482,2.482,0,0,1,1.9,2.416A2.343,2.343,0,0,1,27.575-.594a4.548,4.548,0,0,1-2.723.76,4.75,4.75,0,0,1-2-.4,3.363,3.363,0,0,1-1.374-1.1,2.565,2.565,0,0,1-.5-1.515H23.25a1.252,1.252,0,0,0,.473.979,1.877,1.877,0,0,0,1.179.34A1.737,1.737,0,0,0,25.944-1.8.814.814,0,0,0,26.3-2.482Z" transform="translate(111.227 74.053)" fill="#fff"/>
      <text id="User1" transform="translate(247.227 117.053)" fill="#707070" font-size="13" font-family="Roboto-Regular, Roboto"><tspan x="-16.859" y="0">User1</tspan></text>
      <text id="User2" transform="translate(247.781 156.861)" fill="#707070" font-size="12" font-family="Roboto-Regular, Roboto"><tspan x="-15.563" y="0">User2</tspan></text>
      <text id="User3" transform="translate(247.781 198.962)" fill="#707070" font-size="12" font-family="Roboto-Regular, Roboto"><tspan x="-15.563" y="0">User3</tspan></text>
      <text id="User4" transform="translate(247.781 239.857)" fill="#707070" font-size="12" font-family="Roboto-Regular, Roboto"><tspan x="-15.563" y="0">User4</tspan></text>
      <text id="User5" transform="translate(247.781 281.633)" fill="#707070" font-size="12" font-family="Roboto-Regular, Roboto"><tspan x="-15.563" y="0">User5</tspan></text>
      <text id="Admin1" transform="translate(101.227 117.053)" fill="#707070" font-size="13" font-family="Roboto-Regular, Roboto"><tspan x="-22.417" y="0">Admin1</tspan></text>
      <text id="Admin2" transform="translate(100.049 156.861)" fill="#707070" font-size="12" font-family="Roboto-Regular, Roboto"><tspan x="-20.692" y="0">Admin2</tspan></text>
      <text id="Admin3" transform="translate(100.049 200.687)" fill="#707070" font-size="12" font-family="Roboto-Regular, Roboto"><tspan x="-20.692" y="0">Admin3</tspan></text>
      <text id="Admin4" transform="translate(100.049 241.41)" fill="#707070" font-size="12" font-family="Roboto-Regular, Roboto"><tspan x="-20.692" y="0">Admin4</tspan></text>
      <text id="Admin5" transform="translate(100.049 281.633)" fill="#707070" font-size="12" font-family="Roboto-Regular, Roboto"><tspan x="-20.692" y="0">Admin5</tspan></text>
      <path id="Polygon_18" data-name="Polygon 18" d="M6.07.728a.5.5,0,0,1,.861,0l5.624,9.517a.5.5,0,0,1-.43.754H.876a.5.5,0,0,1-.43-.754Z" transform="translate(333.227 123.053) rotate(180)" fill="#707070"/>
      <path id="Polygon_15" data-name="Polygon 15" d="M5.053.894a.5.5,0,0,1,.894,0l4.691,9.382a.5.5,0,0,1-.447.724H.809a.5.5,0,0,1-.447-.724Z" transform="translate(176.227 123.053) rotate(180)" fill="#707070"/>
      <path id="Polygon_19" data-name="Polygon 19" d="M6.081.645a.5.5,0,0,1,.838,0L12.5,9.228a.5.5,0,0,1-.419.772H.921A.5.5,0,0,1,.5,9.228Z" transform="translate(333.227 162.053) rotate(180)" fill="#707070"/>
      <path id="Polygon_16" data-name="Polygon 16" d="M5.062.8a.5.5,0,0,1,.876,0l4.654,8.462a.5.5,0,0,1-.438.741H.846a.5.5,0,0,1-.438-.741Z" transform="translate(176.227 162.053) rotate(180)" fill="#707070"/>
      <path id="Polygon_20" data-name="Polygon 20" d="M6.081.645a.5.5,0,0,1,.838,0L12.5,9.228a.5.5,0,0,1-.419.772H.921A.5.5,0,0,1,.5,9.228Z" transform="translate(333.227 202.053) rotate(180)" fill="#707070"/>
      <path id="Polygon_17" data-name="Polygon 17" d="M5.062.8a.5.5,0,0,1,.876,0l4.654,8.462a.5.5,0,0,1-.438.741H.846a.5.5,0,0,1-.438-.741Z" transform="translate(176.227 202.053) rotate(180)" fill="#707070"/>
      <path id="Polygon_21" data-name="Polygon 21" d="M6.081.645a.5.5,0,0,1,.838,0L12.5,9.228a.5.5,0,0,1-.419.772H.921A.5.5,0,0,1,.5,9.228Z" transform="translate(333.227 243.053) rotate(180)" fill="#707070"/>
      <path id="Polygon_22" data-name="Polygon 22" d="M5.062.8a.5.5,0,0,1,.876,0l4.654,8.462a.5.5,0,0,1-.438.741H.846a.5.5,0,0,1-.438-.741Z" transform="translate(176.227 243.053) rotate(180)" fill="#707070"/>
      <path id="Polygon_23" data-name="Polygon 23" d="M6.081.645a.5.5,0,0,1,.838,0L12.5,9.228a.5.5,0,0,1-.419.772H.921A.5.5,0,0,1,.5,9.228Z" transform="translate(333.227 280.053) rotate(180)" fill="#707070"/>
      <path id="Polygon_24" data-name="Polygon 24" d="M5.062.8a.5.5,0,0,1,.876,0l4.654,8.462a.5.5,0,0,1-.438.741H.846a.5.5,0,0,1-.438-.741Z" transform="translate(176.227 280.053) rotate(180)" fill="#707070"/>
      <g id="Group_8763" data-name="Group 8763" transform="translate(221.996 313.691)">
        <rect id="Rectangle_841" data-name="Rectangle 841" width="101" height="43" rx="8" transform="translate(33.231 0.363)" fill="#e36767"/>
        <path id="Path_12285" data-name="Path 12285" d="M-18.424-2.49H-22.79L-23.62,0h-2.648l4.5-12.086h2.308L-14.937,0h-2.648Zm-3.694-2.017H-19.1l-1.519-4.524ZM-9.1-2.482a.773.773,0,0,0-.436-.693,4.95,4.95,0,0,0-1.4-.452q-3.2-.672-3.2-2.723a2.468,2.468,0,0,1,.992-2,4,4,0,0,1,2.594-.8,4.307,4.307,0,0,1,2.735.805A2.538,2.538,0,0,1-6.794-6.25h-2.4A1.161,1.161,0,0,0-9.525-7.1a1.405,1.405,0,0,0-1.038-.336,1.436,1.436,0,0,0-.938.274.865.865,0,0,0-.332.7.739.739,0,0,0,.378.643,3.885,3.885,0,0,0,1.274.423A10.407,10.407,0,0,1-8.67-5a2.482,2.482,0,0,1,1.9,2.416A2.343,2.343,0,0,1-7.823-.594a4.548,4.548,0,0,1-2.723.76,4.75,4.75,0,0,1-2-.4,3.363,3.363,0,0,1-1.374-1.1,2.565,2.565,0,0,1-.5-1.515h2.274a1.252,1.252,0,0,0,.473.979,1.877,1.877,0,0,0,1.179.34A1.737,1.737,0,0,0-9.455-1.8.814.814,0,0,0-9.1-2.482Zm8.741,0A.773.773,0,0,0-.8-3.175a4.95,4.95,0,0,0-1.4-.452Q-5.4-4.3-5.4-6.35a2.468,2.468,0,0,1,.992-2,4,4,0,0,1,2.594-.8,4.307,4.307,0,0,1,2.735.805A2.538,2.538,0,0,1,1.947-6.25h-2.4A1.161,1.161,0,0,0-.784-7.1a1.405,1.405,0,0,0-1.038-.336,1.436,1.436,0,0,0-.938.274.865.865,0,0,0-.332.7.739.739,0,0,0,.378.643A3.885,3.885,0,0,0-1.44-5.4,10.407,10.407,0,0,1,.071-5a2.482,2.482,0,0,1,1.9,2.416A2.343,2.343,0,0,1,.917-.594a4.548,4.548,0,0,1-2.723.76,4.75,4.75,0,0,1-2-.4,3.363,3.363,0,0,1-1.374-1.1,2.565,2.565,0,0,1-.5-1.515h2.274a1.252,1.252,0,0,0,.473.979,1.877,1.877,0,0,0,1.179.34A1.737,1.737,0,0,0-.714-1.8.814.814,0,0,0-.361-2.482ZM6.047,0H3.64V-8.981H6.047ZM3.5-11.306a1.181,1.181,0,0,1,.361-.888,1.356,1.356,0,0,1,.984-.349,1.36,1.36,0,0,1,.979.349,1.175,1.175,0,0,1,.365.888,1.178,1.178,0,0,1-.369.9,1.363,1.363,0,0,1-.975.349,1.363,1.363,0,0,1-.975-.349A1.178,1.178,0,0,1,3.5-11.306ZM7.674-4.557a5.264,5.264,0,0,1,.984-3.329A3.187,3.187,0,0,1,11.31-9.147a2.8,2.8,0,0,1,2.3,1.013l.1-.847h2.175V-.3a3.839,3.839,0,0,1-.535,2.05A3.439,3.439,0,0,1,13.842,3.08a5.3,5.3,0,0,1-2.274.457,4.925,4.925,0,0,1-1.926-.394A3.418,3.418,0,0,1,8.222,2.125L9.284.664a2.81,2.81,0,0,0,2.175,1,2.057,2.057,0,0,0,1.486-.51,1.915,1.915,0,0,0,.531-1.448V-.772a2.775,2.775,0,0,1-2.183.938A3.179,3.179,0,0,1,8.674-1.1a5.262,5.262,0,0,1-1-3.358Zm2.4.174a3.269,3.269,0,0,0,.49,1.913,1.559,1.559,0,0,0,1.345.693A1.666,1.666,0,0,0,13.476-2.6V-6.375A1.663,1.663,0,0,0,11.924-7.2a1.568,1.568,0,0,0-1.357.706A3.684,3.684,0,0,0,10.073-4.383Zm9.861-4.6.075,1.038a3.136,3.136,0,0,1,2.582-1.2,2.606,2.606,0,0,1,2.125.838A3.912,3.912,0,0,1,25.429-5.8V0h-2.4V-5.744A1.556,1.556,0,0,0,22.7-6.852a1.486,1.486,0,0,0-1.1-.344,1.65,1.65,0,0,0-1.519.863V0h-2.4V-8.981Z" transform="translate(84.499 26.363)" fill="#fff"/>
      </g>
      <rect id="Rectangle_3181" data-name="Rectangle 3181" width="75" height="15" rx="7.5" transform="translate(73.227 108.053)" fill="#c4c4c4"/>
      <rect id="Rectangle_3190" data-name="Rectangle 3190" width="75" height="15" rx="7.5" transform="translate(225.227 108.053)" fill="#c4c4c4"/>
      <rect id="Rectangle_3182" data-name="Rectangle 3182" width="75" height="14" rx="7" transform="translate(73.227 147.053)" fill="#c4c4c4"/>
      <rect id="Rectangle_3189" data-name="Rectangle 3189" width="75" height="14" rx="7" transform="translate(225.227 147.053)" fill="#c4c4c4"/>
      <rect id="Rectangle_3183" data-name="Rectangle 3183" width="75" height="14" rx="7" transform="translate(73.227 191.053)" fill="#c4c4c4"/>
      <rect id="Rectangle_3188" data-name="Rectangle 3188" width="75" height="14" rx="7" transform="translate(225.227 191.053)" fill="#c4c4c4"/>
      <rect id="Rectangle_3184" data-name="Rectangle 3184" width="75" height="14" rx="7" transform="translate(73.227 231.053)" fill="#c4c4c4"/>
      <rect id="Rectangle_3187" data-name="Rectangle 3187" width="75" height="14" rx="7" transform="translate(225.227 231.053)" fill="#c4c4c4"/>
      <rect id="Rectangle_3185" data-name="Rectangle 3185" width="75" height="15" rx="7.5" transform="translate(73.227 271.053)" fill="#c4c4c4"/>
      <rect id="Rectangle_3186" data-name="Rectangle 3186" width="75" height="15" rx="7.5" transform="translate(225.227 271.053)" fill="#c4c4c4"/>
      <g id="noun_Cursor_183251" transform="translate(337.628 332.317)">
        <path id="Path_11011" data-name="Path 11011" d="M72.754,48.361,56.944,55.4a1.55,1.55,0,0,0-.8.8L49.172,72.076c-.664,1.528-3.122,1.063-3.786-.8L31.635,33.216a1.637,1.637,0,0,1,2.192-2.192L71.957,44.641C73.817,45.239,74.282,47.7,72.754,48.361Z" transform="translate(-35.908 -20.16)" fill="#202121"/>
      </g>
    </g>
  </g>
</svg>
