<svg xmlns="http://www.w3.org/2000/svg" width="27.577" height="27.578" viewBox="0 0 27.577 27.578">
  <path id="Path_12731" data-name="Path 12731" d="M15.089,1.3A13.789,13.789,0,1,0,28.877,15.089,13.787,13.787,0,0,0,15.089,1.3Zm2.067,20.471A13.755,13.755,0,0,1,9.4,11.606c-.227-1.925,3.114-3.624,3.114-3.624l2.1,3.568s-2.265,1.217-1.954,1.869a11.566,11.566,0,0,0,3.822,4.813c.708.255,2.265-1.472,2.265-1.472l3,2.831C21.771,19.591,19.251,22.79,17.156,21.771Z" transform="translate(-1.3 -1.3)" fill="#04a349"/>
</svg>
