<svg xmlns="http://www.w3.org/2000/svg" width="39.447" height="43.184" viewBox="0 0 39.447 43.184">
  <g id="Group_10796" data-name="Group 10796" transform="translate(-8.184 -4.75)">
    <path id="Path_12712" data-name="Path 12712" d="M43.9,37.248H23.642a6.831,6.831,0,0,0-5.7-3.055,6.893,6.893,0,1,0,0,13.786,6.8,6.8,0,0,0,5.328-2.554H43.9a4.045,4.045,0,0,0,4.04-4.039v-.1A4.044,4.044,0,0,0,43.9,37.248Z" transform="translate(-0.312 -14.744)"/>
    <path id="Path_12713" data-name="Path 12713" d="M41.044,4.75A6.8,6.8,0,0,0,35.716,7.3H15.08a4.045,4.045,0,0,0-4.04,4.04v.1a4.044,4.044,0,0,0,4.04,4.04H35.342a6.882,6.882,0,0,0,12.6-3.832A6.906,6.906,0,0,0,41.044,4.75Z" transform="translate(-0.312)"/>
    <path id="Path_12714" data-name="Path 12714" d="M41.044,63.637a6.8,6.8,0,0,0-5.327,2.553H15.08a4.045,4.045,0,0,0-4.04,4.04v.1a4.045,4.045,0,0,0,4.04,4.04H35.342a6.882,6.882,0,0,0,12.6-3.833A6.907,6.907,0,0,0,41.044,63.637Z" transform="translate(-0.312 -29.488)"/>
    <g id="Ellipse_715" data-name="Ellipse 715" transform="translate(11.184 19.363)" fill="#58a77a" stroke="#fdfdfd" stroke-width="3">
      <circle cx="7" cy="7" r="7" stroke="none"/>
      <circle cx="7" cy="7" r="8.5" fill="none"/>
    </g>
  </g>
</svg>
