<svg id="Group_34" data-name="Group 34" xmlns="http://www.w3.org/2000/svg" width="27.578" height="27.577" viewBox="0 0 27.578 27.577">
  <path id="Path_64" data-name="Path 64" d="M-1220.213,2368.179A13.8,13.8,0,0,1-1234,2354.391a13.8,13.8,0,0,1,13.789-13.789,13.8,13.8,0,0,1,13.789,13.789,13.8,13.8,0,0,1-13.789,13.788" transform="translate(1234.002 -2340.602)" fill="#04a349" fill-rule="evenodd"/>
  <path id="Path_65" data-name="Path 65" d="M-1211.505,2359.758v7.19a.187.187,0,0,0,.187.187h2.67a.188.188,0,0,0,.188-.187v-7.307h1.935a.187.187,0,0,0,.187-.172l.186-2.2a.187.187,0,0,0-.187-.2h-2.121V2355.5a.663.663,0,0,1,.663-.663h1.492a.187.187,0,0,0,.187-.187v-2.2a.187.187,0,0,0-.187-.188h-2.521a2.678,2.678,0,0,0-2.678,2.678v2.122h-1.335a.188.188,0,0,0-.187.188v2.2a.187.187,0,0,0,.187.187h1.335v.117" transform="translate(1223.347 -2345.911)" fill="#24231f" fill-rule="evenodd"/>
</svg>
