<svg xmlns="http://www.w3.org/2000/svg" width="50" height="50" viewBox="0 0 50 50">
  <g id="Group_10768" data-name="Group 10768" transform="translate(5 5)">
    <g id="Path_11027" data-name="Path 11027" transform="translate(0 0)" fill="#fff">
      <path d="M 20 42.5 C 16.96361923217773 42.5 14.01673984527588 41.90475845336914 11.24122047424316 40.73080825805664 C 8.561639785766602 39.59743881225586 6.15565013885498 37.97544860839844 4.090099811553955 35.9099006652832 C 2.024549961090088 33.8443489074707 0.4025599956512451 31.4383602142334 -0.7308099865913391 28.75877952575684 C -1.904760003089905 25.9832592010498 -2.5 23.03638076782227 -2.5 20 C -2.5 16.96361923217773 -1.904760003089905 14.01673984527588 -0.7308099865913391 11.24122047424316 C 0.4025599956512451 8.561639785766602 2.024549961090088 6.15565013885498 4.090099811553955 4.090099811553955 C 6.15565013885498 2.024549961090088 8.561639785766602 0.4025599956512451 11.24122047424316 -0.7308099865913391 C 14.01673984527588 -1.904760003089905 16.96361923217773 -2.5 20 -2.5 C 23.03638076782227 -2.5 25.9832592010498 -1.904760003089905 28.75877952575684 -0.7308099865913391 C 31.4383602142334 0.4025599956512451 33.8443489074707 2.024549961090088 35.9099006652832 4.090099811553955 C 37.97544860839844 6.15565013885498 39.59743881225586 8.561639785766602 40.73080825805664 11.24122047424316 C 41.90475845336914 14.01673984527588 42.5 16.96361923217773 42.5 20 C 42.5 23.03638076782227 41.90475845336914 25.9832592010498 40.73080825805664 28.75877952575684 C 39.59743881225586 31.4383602142334 37.97544860839844 33.8443489074707 35.9099006652832 35.9099006652832 C 33.8443489074707 37.97544860839844 31.4383602142334 39.59743881225586 28.75877952575684 40.73080825805664 C 25.9832592010498 41.90475845336914 23.03638076782227 42.5 20 42.5 Z" stroke="none"/>
      <path d="M 20 0 C 8.954309463500977 0 0 8.954309463500977 0 20 C 0 31.04568862915039 8.954309463500977 40 20 40 C 31.04568862915039 40 40 31.04568862915039 40 20 C 40 8.954309463500977 31.04568862915039 0 20 0 M 20 -5 C 23.37277984619141 -5 26.64731979370117 -4.338310241699219 29.7326602935791 -3.033321380615234 C 32.71023941040039 -1.773910522460938 35.38333129882812 0.02798843383789062 37.67766952514648 2.322330474853516 C 39.97201156616211 4.616668701171875 41.77391052246094 7.289760589599609 43.03332138061523 10.2673397064209 C 44.33831024169922 13.35268020629883 45 16.62722015380859 45 20 C 45 23.37277984619141 44.33831024169922 26.64731979370117 43.03332138061523 29.7326602935791 C 41.77391052246094 32.71023941040039 39.97201156616211 35.38333129882812 37.67766952514648 37.67766952514648 C 35.38333129882812 39.97201156616211 32.71023941040039 41.77391052246094 29.7326602935791 43.03332138061523 C 26.64731979370117 44.33831024169922 23.37277984619141 45 20 45 C 16.62722015380859 45 13.35268020629883 44.33831024169922 10.2673397064209 43.03332138061523 C 7.289760589599609 41.77391052246094 4.616668701171875 39.97201156616211 2.322330474853516 37.67766952514648 C 0.02798843383789062 35.38333129882812 -1.773910522460938 32.71023941040039 -3.033321380615234 29.7326602935791 C -4.338310241699219 26.64731979370117 -5 23.37277984619141 -5 20 C -5 16.62722015380859 -4.338310241699219 13.35268020629883 -3.033321380615234 10.2673397064209 C -1.773910522460938 7.289760589599609 0.02798843383789062 4.616668701171875 2.322330474853516 2.322330474853516 C 4.616668701171875 0.02798843383789062 7.289760589599609 -1.773910522460938 10.2673397064209 -3.033321380615234 C 13.35268020629883 -4.338310241699219 16.62722015380859 -5 20 -5 Z" stroke="none" fill="#458661"/>
    </g>
    <g id="Group_9424" data-name="Group 9424" transform="translate(9.132 6.838)">
      <path id="Path_11027-2" data-name="Path 11027" d="M29.326,50.364c0-.067,0-.134,0-.2h0c-.005-2.515-1.919-2.953-4.125-3.457-.313-.072-.628-.143-.94-.222-.124-.032-.26-.064-.4-.1a12.627,12.627,0,0,1-1.4-.389,1.82,1.82,0,0,1-1.13-.825,2.1,2.1,0,0,1-.065-1.041,1.759,1.759,0,0,1,.315-.558c.069-.1.139-.2.193-.287a7.05,7.05,0,0,0,.752-1.657,3.665,3.665,0,0,0,.094-.428,3.888,3.888,0,0,1,.083-.386,2.253,2.253,0,0,0,.913-1.457,3.562,3.562,0,0,0,.12-.885H13.217a3.516,3.516,0,0,0,.12.885,2.246,2.246,0,0,0,.913,1.457,3.68,3.68,0,0,1,.083.386,3.748,3.748,0,0,0,.094.428,7.02,7.02,0,0,0,.752,1.657c.055.091.124.19.193.287a1.744,1.744,0,0,1,.314.558,2.1,2.1,0,0,1-.065,1.041A1.819,1.819,0,0,1,14.491,46a12.467,12.467,0,0,1-1.4.389c-.144.034-.28.065-.4.1-.313.08-.628.151-.941.223-2.206.5-4.12.941-4.125,3.457,0,.064,0,.131,0,.2a.577.577,0,0,0-.018.141c0,1.36,4.865,2.463,10.868,2.463s10.869-1.1,10.869-2.463A.579.579,0,0,0,29.326,50.364Z" transform="translate(-7.608 -29.894)" fill="#458661"/>
      <path id="Path_11028" data-name="Path 11028" d="M25.17,12.6h11.5a.811.811,0,0,0,0-1.623h-.221a5.529,5.529,0,0,0-3.033-4.934l-.459,2.6a.424.424,0,0,1-.417.35.461.461,0,0,1-.074-.006.424.424,0,0,1-.344-.491l.523-2.969A1.11,1.11,0,0,0,31.706,5H30.137a1.11,1.11,0,0,0-.942.523l.523,2.969a.424.424,0,0,1-.344.491.429.429,0,0,1-.074.006.423.423,0,0,1-.417-.35l-.458-2.6a5.528,5.528,0,0,0-3.034,4.934H25.17a.811.811,0,1,0,0,1.622Z" transform="translate(-20.065 -5)" fill="#458661"/>
    </g>
  </g>
</svg>
