<svg xmlns="http://www.w3.org/2000/svg" xmlns:xlink="http://www.w3.org/1999/xlink" width="377" height="484" viewBox="0 0 377 484">
  <defs>
    <clipPath id="clip-path">
      <rect id="Rectangle_3331" data-name="Rectangle 3331" width="377" height="484" transform="translate(0 156)" fill="#fff"/>
    </clipPath>
  </defs>
  <g id="Mask_Group_2" data-name="Mask Group 2" transform="translate(0 -156)" clip-path="url(#clip-path)">
    <g id="Group_10477" data-name="Group 10477" transform="translate(-133.7 175.314)">
      <path id="Path_12283" data-name="Path 12283" d="M494.4,290.273V276.811h-6.889V258.39l-5-5.006v-1.753h-6.163l-.061,16h-.773l-.019-4.583-3.968-3.657H460.974v-1.245h-7.99V245.482H449.2v-3.947h-12.75v3.732h-5.615v32.516h-4.144v3.043h-2.8v-5.572l-5.85-5.639h-14.8v2.761h-2.652v3.3h-1.1V264.856l.052-4.958-9.952-7.444h-17.4V254.8h-1v15.18H359.437v-9.42h-3.853v-2.517h-17.7v2.16h-.995V213.581l-4.866-8.294H305.751l-7.076,5.657v25.175h-7.482V217.282l-1.708-6.343H269.639v20.692H268.1v2.245h-1.223v41.231h-1.612v-4.054h-6.123l.021-64.887-5.857-6.644-3.535-3.443H228.781v59.7h-6.908V244.091l-3.588-5.6h-5.857V226.075h-4.864v-9.759h-2.279v-2.929H203v2.929H200.73v9.759h-4.869v12.412h-4.085v15.9h-7.844v-1.721H172.891c.181-6.851-.13-14.368.13-21.133L170.9,228.9H168.95V225.97h-3.942v-9.761l-1.436-9.752-1.583,9.752v9.761H158.3V228.9h-4.067v55.225h-3.436v4.1h-4.067v-8.267l.04-2.2-5.248-6.072h-6.586v-1.9h-1.219v-1.172h-7.673l.168-26.857-20.129-.07-9.945,9.367v39.224H92.054v-3h-1.1v-3.514h-.734v-9.149H84.793v9.149h-.671v3.514h-.979v3H81.986v-.662H76.251V267.437H70.469v-1.112h.109v-2.181h-1v-1.327H59.633v1.327h-.71v1.963h-.1l.032-17.823c-1.308-1.929-1.4-1.583-2.388-3.387H50.856v-5.46H33.531V244.9H26.3v5.663H26.3V283.3H24.9v1.59H23.681v5.385H21.657v77.854l472.865.608V290.273Z" transform="translate(62.752 57.224)" fill="#212123"/>
      <path id="Path_12284" data-name="Path 12284" d="M522.549,291.332l.306-.041L545.9,280.116l.107-.319a.337.337,0,1,1,.675,0l.075.22,51.261,10,2.925.1a.217.217,0,0,1,.2.22v1.49a.212.212,0,0,1-.208.217l-22.648.365v4.876h-.5v2.992h.286v2.012h-.422c.005.018.013.033.018.049.015.036,0,.069.01.105.01.156.015.33.013.524a2.754,2.754,0,0,1-.069.608.868.868,0,0,1-.151.322.428.428,0,0,1-.063.061h2.341v.887h.99v1.023l-6.577.007,0,.4,8.859-.074v3.87H572.049v-4.3l2.183-1.813h2.7a.556.556,0,0,1-.125-.125.877.877,0,0,1-.13-.243.36.36,0,0,1-.039-.107v-.11a1.014,1.014,0,0,1,.018-.169.945.945,0,0,1,.033-.145s.026.048.074.12c.023.041.053.084.087.138.015.023.033.048.053.077s.015.059.033.087a.652.652,0,0,0,.092.174.221.221,0,0,0,.128.092l.015,0,.008,0h0l.031-.005c.016,0,.005,0,.01,0a.114.114,0,0,0,.043-.038.507.507,0,0,0,.092-.2,2.428,2.428,0,0,0,.059-.545c0-.179,0-.35-.01-.5,0-.036-.015-.066-.005-.1s.01-.049.016-.072h-.854v-2.012h.172v-2.994h-1.416v-4.827l-26.85.434v35.74c.01.013.026.02.033.035l1.79,3.216a.294.294,0,0,1,.038.146v20.2h4.913v1.022h.176v1.133h-.332v1.207h-1.9v-.527h-.946v-.68H550.82v1.207H540.694v-1.207h-.455v.68h-.948v.527h-1.9v-1.207h-.281v-1.133h.281v-1.022h5.371v-20.2a.265.265,0,0,1,.036-.136l1.623-3.218c.01-.018.028-.028.041-.043V292.916H527.994v3.919h-2.022v-3.919h-.859v3.239H524.1v-3.239h-1.523a.212.212,0,0,1-.212-.217v-1.156A.211.211,0,0,1,522.549,291.332Zm54.327,8.946h.777v-2.994h-.777ZM544.887,353.25h1.291v-.733h-1.291Zm1.573,0h1.472v-.733H546.46Zm2.009,0h1.222v-.733h-1.222Zm4.734,0v-.733h-1.477v.733Zm-12.3,0v-.733h-1.47v.733Zm.281,0h1.477v-.733h-1.477Zm2.145,0h1.089v-.733h-1.089Zm4.711-1.022v-1.319h-3.157v1.319Zm0-1.539v-.854l-1.5-.816-1.659.9v.766Zm-2.517-69.953.782,1.08.789-1.08Zm2.519,63.211v-.936h-3.157v.84l1.659.969Zm-1.281,1,1.281.75v-1.5Zm-.217-8.211-1.659,1.007v.878h3.157v-.978Zm1.5.657v-1.559l-1.286.782Zm-1.705-.782-1.452-.88v1.759ZM544.466,338l-1.026.623h1.026Zm4,.623h1.187l-1.187-.72Zm-.424.217h-3.157v.862l1.659.989,1.5-.892Zm.424.706,1.183-.7h-1.185Zm-4-.706h-1.024l1.024.608Zm.422,1.112v1.728l1.45-.864Zm1.874.864,1.283.766V340.05Zm-.215.125-1.659.99v.861h3.157v-.955Zm-2.081,1.242-1.016.608h1.016Zm4,.608h1.177l-1.177-.7Zm0,.908,1.18-.688h-1.18Zm-4-.688h-1.016l1.016.594Zm.422,1.093v1.689l1.444-.845Zm-.422-.247-1.132-.662V346.7l1.132-.663Zm0-1.924V339.7l-1.132-.675v3.58Zm0-4.184v-2.27l-1.132-.686v3.641Zm0-2.525V334.6h-1.024Zm.422.256,1.659,1,1.5-.907V334.6h-3.157Zm3.581-.159,1.186-.718h-1.186Zm.943-.938-.943-.332v.332Zm-.943,1.194v2.074l1.3.786v-3.648Zm0,4.221v2.041l1.3.774v-3.586Zm0,4.153v2l1.3.759v-3.514Zm1.177,2.938-1.177-.69v.69Zm-1.177.217v.623l1.144-.623Zm-.424-1.155-1.5-.877-1.659.973v.842h3.157Zm-3.579.343-1.014.595h1.014Zm-.983.812.983.535v-.535Zm.983-12.724v-.275l-.782.276Zm.422,0h3.157V333.9l-1.5-.528-1.659.585Zm3.157-.713v-.825l-1.166.413Zm.424.15,1.3.458v-2.041l-1.3.459Zm1.3,13.452-1.3.705v1.839l1.3.7Zm-1.721.936-1.268.69,1.268.688Zm0-.249v-.854h-3.157v.767l1.659.9Zm-3.157.16v1.554l1.433-.776Zm-.422-.229-1.132-.616v3.242l1.132-.614Zm-1.132-13.615,1.132-.4v-1.237l-1.133-.4Zm1.554-.548,1.332-.47-1.332-.471Zm1.659-.588,1.5-.526v-.478h-3.157v.422ZM546.44,282l.767,1.057v-2.1Zm-1.023,3.483.752-.9-.752-.9Zm.892-1.066.773-.923h-1.539Zm0,.335-.777.931h1.549Zm.9.747v-1.82l-.757.905Zm-1.79.626v2.106l.76-1.048Zm.892.877.791-1.094h-1.576Zm-.892-3.963.76-1.039-.76-1.042Zm.094.238H547.1l-.794-1.093Zm1.7,2.848-.767,1.058.767,1.066Zm-.9,1.242-.715.987,1.415-.014Zm2.16,1.483v3.528l1.946-1.754Zm2.053,1.679,1.8-1.621-3.708-.126Zm-5.634,5.334,1.416-1.407-1.416-1.416Zm2.931,33.241h-2.707l1.349,1.194Zm-2.884,2.812h3.028l-1.5-1.332Zm2.949-39.021h-2.838l1.414,1.414Zm-2.969,3.25h3.077l-1.531-1.532Zm-.027-3.905,1.427-1.614-1.427-1.633Zm.1.217h2.937l-1.463-1.675Zm1.474-2,1.456-1.654h-2.9Zm.14.166,1.444,1.65v-3.289Zm.01,3.832,1.433,1.437v-2.859Zm-1.724,13.772,1.427-1.593-1.427-1.607Zm0,.324h3.127l-1.555-1.756Zm3.127-3.817h-3.1l1.545,1.741Zm-3.127,7.423,1.427-1.546-1.427-1.559Zm1.573-1.7,1.549-1.685h-3.087Zm-1.569,2.017h3.118l-1.549-1.7Zm0,3.917,1.433-1.688-1.433-1.7Zm1.573-1.854,1.563-1.843h-3.11Zm-1.573,2.19v.006h3.14l-1.567-1.864Zm0,3.686,1.427-1.579-1.427-1.6Zm1.573-1.74,1.552-1.723h-3.093Zm-1.567,2.055h3.118l-1.551-1.737Zm-.005.509v3.122l1.427-1.552Zm1.572,1.408,1.547-1.694h-3.083Zm-1.572-22.687,1.429-1.64-1.429-1.65Zm0,.327v0h3.131l-1.559-1.8Zm.025,4.232h3.109l-1.557-1.838Zm3.111-4.009H544.91l1.554,1.838Zm-1.7,2.01-1.437-1.7V304.2Zm.136-4.361,1.557-1.79h-3.1Zm.14.161,1.444,1.678v-3.335Zm.008,4.2,1.437,1.7v-3.4Zm-.005,4.118,1.442,1.626v-3.239Zm.005,3.98,1.437,1.575v-3.143ZM546.6,314.7l1.444,1.721v-3.431Zm.008,4.131,1.437,1.613v-3.214Zm0,3.973,1.437,1.585v-3.16Zm-.148.158-1.567,1.71h3.118Zm1.349,5.559-1.349-1.536-1.361,1.536Zm.235-.053v-3.278l-1.444,1.633Zm-1.73-1.645-1.427-1.626v3.233Zm.146-.166,1.556-1.757h-3.1Zm.163,3.785,1.421,1.259v-2.509Zm-.327,0-1.409-1.242v2.475Zm-1.831-41.477-1.986,1.853,1.986,1.585Zm-.2-.1-3.618.485,1.667,1.331Zm-3.809.614v2.939l1.7-1.586Zm-1.994,1.607,1.728,1.361v-3Zm1.4-1.629-2.958.4,1.385,1.095Zm-1.563,1.775-1.322,1.259h2.913Zm-1.488-1.173v1.39h-.122v1.015l1.442-1.365Zm34.972,2.028v-1.3l-.006-1.209-.083,0-1.607,1.237,1.621,1.277Zm-.317-2.521-3.094-.1,1.6,1.259Zm-1.5,1.337-1.607,1.239,3.116-.05Zm-.118-.092-1.726-1.358-.1,0v2.7h.092Zm-1.969,1.339-.014-2.705-.064,0-1.611,1.336,1.624,1.373Zm-.3-2.715-3.1-.105,1.6,1.354Zm-1.5,1.436-1.607,1.335,3.122-.05Zm-.112-.092-1.718-1.456-.087,0v1.406l.007,1.485h.075Zm-1.943,1.433V290.69l-.007-1.383-.061,0-1.607,1.433,1.629,1.47Zm-.274-2.907-3.1-.105,1.6,1.444Zm-1.51,1.533-1.6,1.429,3.127-.05Zm-.107-.1-1.707-1.545-.078,0v3.083h.067Zm-1.929,1.536-.008-1.567-.009-1.522h-.047l-1.563,1.524,1.585,1.568Zm-.26-3.1-3.017-.1,1.547,1.534Zm-1.47,1.631-1.557,1.52,3.043-.049Zm-.1-.1-1.658-1.638-.066,0v1.618l.009,1.648h.047Zm-1.861,1.629v-1.689l-.01-1.589h-.058l-1.663,1.614,1.694,1.662Zm-.266-3.283-3.214-.109,1.65,1.628Zm-1.563,1.72-1.667,1.618,3.254-.052Zm-.1-.1-1.764-1.737-.067,0v1.493l.012,1.968h.043Zm23.031.3-.319.217h.63Zm0-.176,1.428-.973-2.96-.1Zm-.128.089-1.672-1.173-.122,0v1.48h1.346Zm-1.942-.06-.006-1.121-.079,0-1.538,1.148,1.4,1.067v-.733h.225Zm-.311-1.129-2.951-.1,1.523,1.164Zm16.573,2.071,2.668-.043-1.259-.615Zm2.682-1.418-2.684-.091,1.409.689Zm-1.444.677-1.6-.779-.23-.008v1.532l.228,0Zm-1.967.753v-.745l0-.8-.143,0-1.471.764,1.463.789Zm-.446-1.561-2.791-.095,1.464.778Zm-1.328.859-1.46.754,2.785-.043Zm-.156-.087-1.632-.878-.194-.007v.859l0,.875.194,0Zm-1.969.852V290.1l-.14,0-1.607.863,1.6.885Zm-.427-1.755-3.08-.1,1.611.89Zm-1.469.955-1.607.857,3.065-.049Zm-.153-.087-1.775-.985-.174-.006,0,1.94.174,0Zm-2.09.952v-1.948l-.087,0-1.46.963,1.454.989Zm-.337-1.959-2.777-.094,1.439.979ZM581.354,291l-1.442.951,2.779-.043Zm-.13-.087-1.578-1.075-.13,0v.832l.007,1.292.119,0Zm16.182.217-1.527.565,2.863-.046Zm0-.156,1.337-.489-2.857-.1Zm-1.972.727,1.764-.647-1.766-.68-.324-.011v1.346Zm-.466-1.343-.166-.006-1.428.671,1.412.689.182,0Zm-15.6,1.6v-2.13l-.1,0-1.543,1.054.434.3h.117v.082l.994.695Zm-1.086-.517v.535l.747-.012Zm-4.489-.509-1.527,1.14,2.957-.047Zm-.117-.092-1.65-1.259-.112,0v1.513l0,.99h.1Zm-21.076,1.549v-1.538l-.012-1.938-.071,0-1.9,1.711,1.93,1.761Zm-2.084-1.666-1.916,1.73,3.745-.06Zm-8.2.243-1.625,1.52h3.531Zm-5.847.478H534.7l1.723,1.042h.051Zm-2.128.038-1.334,1H536Zm-1.694,1,1.381-1.042h-1.39v1.042Zm-.223-1.042h-.1v-.98l-.055.007-1.812,1.131,1.858.884h.108Zm-.613,1.042-1.575-.746-1.193.746Zm-.067-1.945-2.744.368,1.224.582Zm-5.776.774-.859.115v.083l.785.251.074-.034Zm-.859.429v.38l.488-.224Zm.859.276-.064-.02-.8.366v.12h.859Zm73.412-1.513-.252-.009-1.515.56,1.52.583.273,0v-1.135Zm-50.915,41.955.947-.332h-.947Zm0,17.6v.623h1.144Zm-4,.087-.983.535h.983Zm0-17.743v-.276h-.786Zm-15.832-39.929,1.373-.856-1.4-.667-.016,0v1.52Zm-.255-1.493-.383.052v1.393l.151.048h.232Zm-4.277.135v-.112h.831l1.042-.139v-.144h1.074l5.282-.709v-.882h4.481v.28l7.656-1.027v-.027h.21l.529-.006v-7.665l-21.654,10.5Zm21.467-10.6h.2l.038-.114Zm1.268-.271.092.271h.386s.007,0,.011,0h.022a.1.1,0,0,1,.028.02.092.092,0,0,1,.046.081v7.712l.833-.008,48.4,1.644Zm53.888,10.517-1.175-.229v1.1l1.175-.019Zm-52.255,39.012v2.137h1.188Zm1.3,21.131h-1.3v1.319h1.3Zm.565,2.342h1.115v-.733h-1.115Zm4.63-.733h-1.473v.733h1.473Zm-17.281.733h1.473v-.733h-1.473Zm6.787-1.022v-1.319h-1.132v1.319Zm-1.039-20.314h1.039v-2.058Zm-20.634-39.431h1.2v-.905l-1.2.162Z" transform="translate(-220.518 10.052)" fill="#333335"/>
      <path id="Path_12285" data-name="Path 12285" d="M5.189,160.846l.55-.088,40.9-23.606.2-.679a.609.609,0,1,1,1.19,0l.132.459L139.2,158.077l5.149.208a.434.434,0,0,1,.362.463V161.9a.429.429,0,0,1-.371.463l-40.205.771v10.305h-.879v6.324h.511v4.25h-.752c.011.032.019.062.034.1a1.154,1.154,0,0,1,.015.229c.019.318.03.693.023,1.1a6.81,6.81,0,0,1-.121,1.295,1.987,1.987,0,0,1-.266.682c-.021.028-.046.051-.069.077L112.82,192.7l.535-.091,3.915-.662h0l.029,0h0s.005,0,.008-.005l4.081-.692,3.171-.537a.121.121,0,0,1,.126.117l.007.058,1.716.543.273-.047a.119.119,0,0,1,.128.118l.509,4.57a.181.181,0,0,1,0,.057.15.15,0,0,1-.017.03.123.123,0,0,1-.075.066l-3.171.537-4.081.69h0s0,0-.007,0l-3.948.669-4.006.679-4.266.723-3.925.666-4.043.687-.01,0-4.226.719h-.006L91.4,202.3l-3.585.607-4.1.692a.091.091,0,0,1-.075-.023.117.117,0,0,1-.016-.021c-.007-.009-.017-.014-.021-.026a.127.127,0,0,1-.005-.029c0-.007-.007-.009-.008-.016l-.007-.059-1.718-.543-.275.047a.094.094,0,0,1-.072-.025.105.105,0,0,1-.017-.021c-.007-.009-.016-.014-.02-.025a.134.134,0,0,1-.005-.027c0-.008-.008-.012-.009-.02l-.508-4.571s0-.007,0-.01a.158.158,0,0,1,0-.039.126.126,0,0,1,.015-.031.124.124,0,0,1,.012-.024.105.105,0,0,1,.065-.047l.082-.014v-.005l.01,0,3.977-.674h0l.027,0,3.584-.611,4.149-.7.626-.106,8.386-8.333a1.028,1.028,0,0,1-.4-.37,2.387,2.387,0,0,1-.23-.514,1.1,1.1,0,0,1-.068-.234c0-.08,0-.158,0-.227a2.714,2.714,0,0,1,.032-.362,2.317,2.317,0,0,1,.058-.306s.047.1.134.261c.038.077.092.173.151.282.03.052.062.109.1.162s.028.128.055.19a1.6,1.6,0,0,0,.164.365.419.419,0,0,0,.224.2l.034.005.013,0,.058-.006c.025,0,.008-.011.015-.012a.2.2,0,0,0,.085-.079,1.271,1.271,0,0,0,.158-.438,6.176,6.176,0,0,0,.109-1.146c.007-.378-.007-.736-.024-1.043.006-.078-.027-.149-.006-.22.008-.051.019-.1.03-.145h-1.516v-4.252h.3v-6.324H98.864v-10.2l-47.666.914v75.5a.563.563,0,0,1,.055.089l3.18,6.8a.77.77,0,0,1,.068.311v42.674H63.22v2.163h.315v2.4h-.6v2.549H59.57v-1.122H57.887v-1.429H55.378v2.549H37.4v-2.549h-.8v1.429H34.91v1.122H31.539v-2.549h-.5v-2.4h.5v-2.164h9.537V246.849a.723.723,0,0,1,.059-.288l2.884-6.8a.628.628,0,0,1,.068-.118V164.2H14.855v8.276h-3.6V164.2H9.737v6.835h-1.8V164.2h-2.7a.425.425,0,0,1-.375-.465v-2.433A.441.441,0,0,1,5.189,160.846ZM81.652,202.47l1.546-2.287-1.99-1.669Zm39.233-10.853-3.256.552.745.629,1.023-.173h0l.027,0h0s0,0,.007,0l1.105-.187.573-.85Zm-4.9.832-2.319.394.724.631,1.062-.181h0l.028,0,1-.169.551-.849Zm-18.929,3.378-.467.663.531-.09-.029-.253Zm6.559,3.5-.014-.123-.5.085.564.48Zm8.232-1.026-.055-.488-.543.092.607.489Zm12.932-4.7-.964-1.055-.092.178.128,1.151.95,1.039.1-.2Zm.31.757.138-.267-.191-.209Zm-11.129,2.629.247-.381-.321-.276.025.227Zm8.217-1.775-.249-.21.063.569Zm-.032.568.588-.1-.373-.315Zm2.535-.632-.783-.857.131,1.171.536-.091Zm-15.4-1.438-.5.71.568-.1-.047-.42Zm-15.8,6.762.242-.344-.309-.256Zm-.457-.924-1.462-1.213-.333.487,1.462,1.213Zm-.149.639.384.319-.084-.757Zm-1.864-2.311.08.72.285-.417Zm.509.093.27-.395-.619.105Zm-.944.308.281.234-.067-.6Zm.021-.5-.519.088.314.261Zm.549,1.3.072.637L91.365,201l.76-.128.428-.625Zm-.248-.209-.45-.373-.971,1.65.333.323,1.09-1.587Zm-.635-.526-.512-.424-.769.13.141,1.266.061.548.117.113Zm-4.349,3.577.561-.1-.338-.284Zm.04-.533-.276-.232.066.588Zm.846.382.757-.129-.2-1.818-.13-.126-.957,1.624Zm.762-2.091,1.221,1.181.243-.414-.049-.438-1.234-1.194-.233.4Zm1.394,1.349.151.145-.036-.339Zm-.129.22-.116.2.272-.046Zm-.174-.168-1.049-1.013.172,1.538.63-.109ZM85.181,198.7l-.782.133-.4.588,1.39,1.166Zm-1.694.289.331.278.255-.378ZM85.6,200.44l.946-1.4-.506-.49-.639.109Zm.045.359.441.371.965-1.64-.331-.319Zm1.536-1.486.1-.168-.072-.651-.346.511Zm.287-.488.1-.174-.136-.132Zm.232-.395.1-.176-.243.041Zm.175.169,1.061,1.026-.171-1.534-.657.111Zm4.248-1.076-.414.6,1.42,1.179-.214-1.917-.765.129Zm1.208,1.584,1.042-1.522-.451-.367-.787.133Zm.041.362.005.046.495.41,1.186-1.684-.013-.111-.485-.4ZM95.1,198.6l-1.04,1.476.466.386.768-.13ZM95,197.77l-.066-.588-.236.344Zm.506,2.528.787-.133.455-.645-1.462-1.186Zm14.645-2.942-.269-.217.06.532Zm-.019.464.492-.084-.286-.23Zm9.223-4.767-.244.375.316.267Zm-.209-.109-.507.086.289.245Zm-.832.141-.749.127.205,1.842,1.022-1.565Zm-.982.166-.744.126-.349.536,1.3,1.136Zm-1.061.181-.488.083.276.242Zm-.171.7-.353.543,1.451,1.269.353-.543Zm-.181-.157-.286-.25.065.589Zm-.51-.253-.273.414.355.31Zm-.214-.105-.548.092.308.27Zm-.87.145-.719.121.2,1.825,1.006-1.515Zm-.941.158-.452.076-.305.051-.37.56,1.332,1.15Zm-13.525,2.612.238-.358-.548.093Zm-.464-.061.072.648.249-.374Zm.647.217,1.35,1.155-.207-1.854-.765.13Zm2.079-.858-.715.121.128,1.158.072.651,1-1.5Zm.63.217.245-.367-.555.094Zm.749.311.212-.329-.276-.244Zm.082-.776.268.235.2-.315-.075.013Zm3.871.311.32-.455-.412-.333.088.784Zm2.879-1.455-.736.125.19,1.7,1.006-1.429Zm.607.189.233-.331-.516.088Zm-3.413.287.394.317.306-.434Zm1.851-.314-.82.139-.452.642,1.469,1.183.019-.027Zm-1.417.988-.321.456,1.469,1.184.32-.455Zm4.346-1.488-.53.09.3.259Zm-.68.294.072.629.239-.362Zm-.225-.011-.281.4.362.31Zm-.427.607-1.147,1.631.018.158.451.362,1.153-1.743Zm-1.335,1.954-.024-.019-.321.454.434.348Zm-.49.642-.322.456.733-.125Zm-.187-.15-1.468-1.184,0,.006.221,1.975.785-.133Zm-1.824-2.308-.217.337.281.226Zm-.213-.111-.464.079.272.219Zm-.8.135-.793.134.209,1.871,1.052-1.628Zm-1.013.172-.738.125-.343.529,1.279,1.121Zm-1.218.868-.352.543v.012l1.445,1.272.356-.548Zm-.682-.407-.281.423.365.322Zm-.422.635-1.11,1.667.453.387,1.085-1.677Zm-1.107,2,.072.639.241-.373Zm-.326-.279L99.9,196.9l-.342.514,1.453,1.242Zm-.163.671.339.289-.076-.684Zm-1.657-1.082.091.812.116,1.04.734-.124.393-.589Zm-.22.041L98.26,199.36l.478.387.788-.133Zm-1.6,1.975.215-.323-.276-.225Zm-.109-.959.007.056.456.369,1.161-1.743-.464-.4L97.6,198.722Zm.8,1.021-.286-.232-.21.316Zm-1.073.181-.393-.319-.309.438Zm-.434-.678.326-.463-1.467-1.187-.326.461Zm.186.151.412.335L97.406,199Zm.477-1.1,1.023-1.45-.476-.407-.74.126Zm1.171-1.659.244-.346-.543.093Zm.183.156.333.284-.072-.653Zm2.463-1.184.481-.082-.543-.478Zm3.7-.628-.066-.593-.44.678Zm.222-.036.538-.091-.6-.486Zm.875-.148.995-.169h0l.026,0,1.247-.212.6-.855-3.646.615Zm3.389-.575.5-.084-.56-.482Zm3.791-.642-.067-.6-.455.687Zm6.315.068.263-.389-.338-.285Zm.4-.6.253-.374-.579.1Zm1.77,1.187.873-1.293-.532-.584-.539.091Zm-.3-.717-.115-1.031-.774.131-.393.585,1.378,1.166Zm.934-1.209.385.422.371-.55Zm1.056.709-.148.287.206.225Zm-.046-.416-.036-.319-.423.629.191.209Zm-.6.522-.985,1.463.391.33.806-1.561Zm-1.188,1.773-.276.41.355.3Zm-.123-.253-1.456-1.23-.339.5,1.456,1.23Zm-1.84-.434.21,1.877.744-.126.4-.6Zm-.225.105-1.01,1.5.491.43.724-.122Zm-.058-.342-.474-.4-1.1,1.7.444.389Zm-1.611,1.6.076.679.259-.386Zm-.458.449.3.266-.07-.623Zm-.139.213-.225.345.519-.088Zm-.181-.158-1.277-1.116.2,1.794.715-.121Zm-1.3.715-.153-1.37-.059-.523-1.029,1.58.506.437.271-.046Zm-.336-2.142-.43-.376-1.1,1.667.443.381Zm-1.767,1.646-.251.38.326.279Zm-.086-.3-1.454-1.25-.348.526,1.454,1.25Zm-1.8-.393.205,1.833.728-.124.381-.579Zm-.014,1.871-.209-1.864-1.064,1.612.48.387.668-.114Zm-4.46-1.013-1,1.43.485.426.714-.121Zm-.04-.359-.014-.126-.461-.371-1.122,1.731.448.394Zm-1.653,1.52.08.716.28-.4Zm-.211.132-.225.348.292.257Zm-.362.561-.217.335.5-.085Zm-.181-.158-1.266-1.115.072.653.126,1.13.712-.121Zm-1.285.705-.213-1.9-1.035,1.6.506.432.274-.046Zm-1.067.181-.32-.273-.238.367Zm-1.445-.091-.253.379.582-.1Zm-2.033.958.6.484-.064-.574Zm-.333.056-1.034.175-1.247.211-.6.856,3.654-.618Zm-2.611.443-.535.091.065.579Zm-1.881.043-.284-.236-.227.322Zm-1.089.184-.37-.306-.286.417.3-.05Zm-2.164-1.455-.956,1.393.518.5.638-.109Zm-1.1,1.6-.315.458.671-.113Zm-.174-.169-.322-.311-.086.147.072.651Zm-4.138,1.135-.007-.058-.075-.665-.283.417Zm-.506-.095-.269.4.617-.1Zm.3-.864-1.461-1.226-.336.5,1.459,1.228Zm-1.645-1.381-.346-.289.077.687Zm2.666-.977.344.333.3-.443Zm7.912-1.341.262.212.2-.289Zm1,.8.321-.457-.41-.332Zm.468-.664.309-.438-.7.12Zm.188.152,1.462,1.185-.221-1.966-.785.134Zm1.933-1.176-.563-.481.063.566Zm3.318-.562-.067-.6-.46.691Zm.308-.8.715.631,1.1-.186.98-.166.547-.845-1.323.224Zm8.923-.76,1.08-.183,1.045-.177.506-.766-.107-.055-3.256.551Zm2.677-1.194.008-.013h0Zm.514.655.484-.082-.547-.479Zm3.726-.63-.067-.6-.446.687Zm.741-.126-.571-.483.063.568Zm3.352-.57-.068-.6-.467.695Zm.572-.1-.407-.447.056.507Zm2.067-.072-.1.2.8.873-.131-1.17Zm.018,3.621.057.507.294-.568Zm-.25-.232-.166-1.489-.372-.407-.792,1.532.582.491.228-.038Zm-2.525.08-.263.39.6-.1Zm-1.3.843.064.569.44-.654Zm-1.306-.056-.312-.273-.247.368Zm-2.655.728.063.564.42-.645Zm-.22.036-.5.084.553.48Zm-1.085-.091-.323-.278-.243.374Zm-1.439-.081-.241.365.556-.095Zm-1.261.814.063.565.429-.651Zm-1.1.186-1.024.174-1.28.217-.6.854,3.683-.622Zm-2.634.448-.534.09.065.577Zm-.756.128-.481.082.543.478Zm-1.065-.1-.31-.273-.26.37Zm-2.641.724.063.561.416-.642Zm-1.045.178-1.074.183-1.1.187-.565.848,3.48-.59Zm-2.5.424-.5.084.063.564Zm-4.951.838-.522.088.586.487Zm-.85.145-1.052.178-1.184.2-.584.854,3.574-.607Zm-2.562.434-.516.088.064.573Zm-.737.125-.425.072.485.47Zm-3.363.571.06.538.359-.609Zm-.22.036-.514.088.579.487Zm-.839.143-1.063.181h-.006l-1.139.194-.579.853,3.531-.6Zm-1.911-.492-1.373-1.153.211,1.887.75-.127Zm-1.584-1.041-1.36,2.01.14.044,1.423-.242Zm-.157-1.4-1.319-.458,1.4,1.176Zm.048-.35a.083.083,0,0,1,.023-.01l1.115-.189.571-.851-3.189.54Zm1.463-.253.541-.092-.068-.608Zm.76-.129.426-.072-.487-.47Zm3.363-.569-.064-.575-.383.651Zm.744-.127-.587-.487.064.576Zm.326-.055,1.052-.179,1.151-.2.583-.852-3.54.6Zm2.532-.431.546-.093-.068-.606Zm1.3-.221-.6-.486.065.579Zm3.79-1.394.737.628,1.072-.181,1.072-.181.566-.849-.949.161Zm24.237-4.109.6.651,1.259-.213.387-.065.427-.827-.052.009Zm2.529.326.373-.063-.06-.54Zm2.036-.068-1.411.24.166,1.49.357.391,1.067-2.062Zm-1.1,3.039.058.517,1.49.4-1.289-1.413Zm-.165.819,0-.018-.278.047-.427.824,2.409-.405Zm-1.133.175-.506.086.57.481Zm-.834.141-1.066.181-1.129.192-.575.852,3.512-.6Zm-3.256.552-.487.082.55.481Zm-1.889.321h0l0,0-1.029.174-.553.848,3.395-.576-.724-.631Zm-2.88.487-1.079.181-1.073.181-.563.852,3.447-.585Zm-8.259,1.4-1.1.186-1.009.171-.546.846,3.37-.571Zm-16.278,2.759-1.17.2-.741.126-.492.837,3.064-.52Zm-6.66,1.7.434-.641-.506.086.062.552Zm1.654-5.5.663.642,1.138-.193h0l.029,0,.712-.121.493-.839-1.649.28Zm8.534-.694,1.03-.175,1.25-.211.6-.856-2.612.444-1.038.177Zm7.185-2.247,3.9-.661h0l.026,0,1.93-.326-4.644-6.011a.443.443,0,0,1-.088.026l-.056.008-3.256,7.34Zm1.424-7,4.588,5.93-.059.068,2.238-.379,3.158-.537Zm22.158,3.589.049.44.872-.148Zm1.892.6-1.122,2.171,1.552,1.7ZM83.539,203.051l-.05-.442-.88.15Zm13.575-7.683,1.752-.3-.072-.048,3.2-7.219-8.182,8.124Zm4.509-15.607H103v-6.324h-1.382ZM44.839,291.688h2.29v-1.544H44.837Zm2.792,0h2.615v-1.544H47.631Zm3.568,0h2.168v-1.544H51.2Zm8.4,0v-1.544H56.985v1.544Zm-21.826,0v-1.544H35.159v1.544Zm.5,0h2.617v-1.544H38.277Zm3.8,0h1.934v-1.544H42.079Zm8.364-2.164V286.74h-5.6v2.784Zm0-3.244v-1.807l-2.654-1.716-2.95,1.907v1.615ZM45.972,138.462l1.394,2.285,1.405-2.285Zm4.472,133.575v-1.977h-5.6v1.773l2.95,2.056Zm-2.272,2.113,2.272,1.584v-3.167Zm-.381-17.345-2.95,2.127v1.853h5.6V258.72Zm2.654,1.377V254.89l-2.281,1.644Zm-3.024-1.648-2.58-1.859V258.4ZM42.079,269.2l2.008-1.424v-4.716l-2.008-1.425Zm.22.855,1.789,1.247v-1.247Zm1.789-.466v-1.279l-1.8,1.279Zm.752-2.346,2.573-1.824L44.839,263.6Zm-.752-7.772-1.818,1.311h1.818Zm7.112,1.311h2.108L51.2,259.266Zm-.756.462h-5.6v1.816l2.95,2.092,2.654-1.881Zm.756,1.49,2.1-1.49H51.2Zm-7.112-1.49H42.278l1.809,1.283Zm4.079,4.174,2.277,1.614v-3.23Zm-.377.266-2.95,2.092v1.812h5.6v-2.022Zm3.41,3.9h2.094L51.2,268.107Zm0,1.917,2.081-1.45H51.2Zm-6.36.853v3.578l2.566-1.79Zm-.752-.524-2.008-1.4v7.425l2.008-1.4Zm0-12.9v-4.807l-2.008-1.447v7.706Zm0-5.341V252.29H42.268Zm.752.543,2.95,2.127,2.654-1.914V252.29h-5.6Zm6.36-.333,2.108-1.519H51.2Zm1.661-1.987-1.661-.7v.7ZM51.2,254.347v4.383l2.3,1.661v-7.7Zm0,8.926v4.3l2.3,1.628v-7.561Zm0,8.77v4.221l2.3,1.6v-7.424Zm2.086,6.2L51.2,276.794v1.453Zm-2.086.466v1.317l2.035-1.317Zm-.756-2.446-2.654-1.848-2.95,2.054v1.773h5.6Zm-6.355.73-1.794,1.25h1.794Zm-1.743,1.716,1.743,1.128v-1.128Zm1.743-26.89v-.575l-1.369.575Zm.752,0h5.6v-1.017l-2.654-1.115-2.95,1.239Zm5.6-1.5v-1.736l-2.07.868Zm.756.318,2.3.965V247.3l-2.3.965Zm2.3,28.43-2.3,1.483v3.888l2.3,1.488Zm-3.054,1.974-2.249,1.453,2.249,1.457Zm0-.521v-1.806h-5.6v1.614l2.95,1.908Zm-5.6.33v3.292l2.545-1.649Zm-.752-.486-2.008-1.3v6.864l2.008-1.3ZM42.079,251.6l2.008-.844v-2.618l-2.008-.844Zm2.76-1.158,2.364-.993-2.364-.993Zm2.95-1.24,2.654-1.114V247.08h-5.6v.886ZM47.6,141.133l1.361,2.227V138.92Zm3.6,14.476v7.453l3.452-3.7Zm3.642,3.545,3.2-3.429-6.594-.267Zm-14.576.315,3.464-3.843L37.3,156.651Zm-3.3-2.552,0,6.216,3.019-3.349Zm7.122-1.065-3.52,3.9,3.52,3.346Zm.752,14.576,2.52-2.973-2.52-2.992Zm5.2,70.242H45.236l2.393,2.517Zm-5.11,5.94h5.374l-2.677-2.815Zm5.224-82.457H45.124l2.5,2.98Zm-5.275,6.866h5.476l-2.728-3.241Zm-.042-8.249,2.537-3.422L44.839,155.9Zm.173.458h5.215l-2.6-3.534ZM47.629,159l2.593-3.5H45.057Zm.258.347,2.556,3.48V155.9Zm.013,8.107,2.543,3.021v-6.023Zm-3.061,29.094,2.537-3.371-2.537-3.393Zm3.048-3.369,2.556,3.428V189.78Zm2.5-4.012h-5.5l2.735,3.67Zm-2.76,4.353-2.782,3.7h5.542Zm-2.79,11.33,2.53-3.269-2.53-3.292Zm2.79-3.605,2.752-3.557H44.9Zm-2.774,4.262h5.526l-2.752-3.586Zm-.016,8.28,2.539-3.567-2.539-3.591Zm2.79-3.918,2.778-3.9H44.874Zm.249.351,2.564,3.629v-7.228Zm-.249.353-2.79,3.916v.016h5.568ZM44.839,222.3l2.532-3.343-2.532-3.367Zm2.79-3.681,2.759-3.64H44.894Zm-2.783,4.353h5.545L47.629,219.3Zm-.007,7.666,2.532-3.287-2.532-3.315Zm2.79-3.624,2.753-3.582H44.9Zm.26.337,2.553,3.346v-6.669Zm-.26.339L44.851,231.3h5.535Zm2.814-55.572-2.56,3.5,2.56,3.524Zm-5.6,6.962,2.537-3.464-2.537-3.493Zm0,.695v0H50.4l-2.772-3.819Zm.039,8.936h5.527l-2.763-3.884Zm5.528-8.473H44.878l2.764,3.886Zm-3.014,4.237-2.554-3.585v7.171Zm.236-9.208,2.767-3.778H44.886Zm.264,9.208,2.549,3.586v-7.171Zm0,17.118,2.551,3.328v-6.632Zm0,17.366,2.556,3.4v-6.775Zm2.143,20.477-2.4-3.25-2.418,3.25Zm.413-.127v-6.9l-2.556,3.437Zm-3.067-3.468L44.841,232.4v6.838Zm.253-.343,2.763-3.712H44.889Zm.292,8,2.522,2.654v-5.286Zm-.581,0-2.5-2.629V246.1Zm-7.058-83.417L37.4,163.278h6.259Zm-6.86.238L36.5,163.2V156.84Zm2.492-3.437-5.252.839,2.456,2.311Zm-2.773,3.752-2.355,2.653h5.173ZM30.5,158.14v2.939h-.219v2.145l2.562-2.884ZM48.6,154.529l-1.24-2.059-1.27,2.088Zm-1.24-7.582-1.388,1.97h2.762Zm1.6,1.576v-3.847l-1.348,1.916Zm-2.992.856,1.4,2.315,1.408-2.315Zm1.146-2.789-1.333-1.908v3.8Zm.251-.355,1.371-1.947H46Zm1.6,3.607L47.6,152.085l1.361,2.256Zm-3.18.007v4.45l1.35-2.214Zm0-6.529,1.35-2.188-1.35-2.207Zm.163.5h2.828l-1.407-2.307Zm46.636,18.6v-2.612l-.01-2.693-.138-.006-2.858,2.622,2.873,2.692Zm-.549-5.328-5.507-.223,2.842,2.667Zm-2.665,2.828-2.852,2.615,5.527-.106Zm-.209-.191-3.069-2.877-.176-.007v5.7l.171,0Zm-3.5,2.822-.006-1.628-.018-4.088-.114,0-2.86,2.824,2.877,2.9Zm-.523-5.739-5.511-.223,2.84,2.864Zm-2.673,3.039-2.846,2.816,5.535-.106Zm-.2-.2-3.054-3.075-.149-.006v2.747l.013,3.365.131,0Zm-3.455,3.034v-3.1l-.012-3.029-.1,0-2.858,3.027,2.883,3.106Zm-.484-6.146-5.514-.223,2.835,3.058Zm-2.677,3.244L72.8,162.8l5.55-.105Zm-.192-.2-3.041-3.28-.13-.005v6.515l.122,0Zm-3.424,3.235-.027-6.531-.08,0-2.78,3.227,2.809,3.308Zm-.461-6.548-5.36-.217,2.75,3.242Zm-2.612,3.451L66.2,162.93l5.4-.1Zm-.181-.217-2.945-3.467-.111,0v3.427l.015,3.479h.083Zm-3.307,3.439v-3.786l-.014-3.136-.1,0-2.954,3.414,2.994,3.513ZM65.007,156l-5.719-.231,2.939,3.447Zm-2.784,3.642-2.954,3.417,5.776-.111Zm-.181-.215-3.132-3.673-.111,0v3.808l.019,3.509H58.9Zm40.888.641-.569.461h1.122Zm0-.372,2.535-2.057-5.256-.212Zm-.228.186-2.967-2.474-.217-.009v3.131h2.386Zm-3.45-2.494-.138-.006-2.733,2.427,2.481,2.256v-1.536h.4Zm-.55-.022-5.24-.212,2.706,2.46Zm35.05,4.269v-2.851l-.292-.012-2.537,1.415,2.5,1.454Zm.251-2.84v2.836l.587-.011,3.121-1.365-3.125-1.436Zm-1.11-.045-4.772-.193,2.5,1.457Zm-2.274,1.6-2.49,1.39,4.725-.091Zm-.3-.173-2.832-1.649-.408-.017v3.248l.417-.008Zm-3.491,1.587v-.982l-.005-2.284-.25-.01-2.623,1.618,2.593,1.661Zm-.785-3.295-4.96-.2,2.593,1.664Zm-2.371,1.809-2.585,1.6,4.929-.095Zm-.273-.177-2.9-1.857-.347-.014v1.312l.006,2.349.348-.007Zm-3.495,1.794v-2.215l0-1.461-.242-.01-2.858,1.822,2.836,1.869Zm-.76-3.706-5.472-.223,2.858,1.885Zm-2.616,2.013-2.842,1.813,5.433-.1Zm-.268-.177-3.156-2.081-.3-.012v2.042l.005,2.057.316-.006Zm-3.708,2.011v-2.451l0-1.664-.147-.006-2.6,2.04,2.576,2.083Zm-.6-4.138-4.94-.2,2.558,2.072Zm-2.384,2.238-2.555,2.007,4.916-.094Zm-.23-.185-2.807-2.272-.226-.009V159.6l.009,2.559.221,0Zm28.73.137,2.373-1.038-5.079-.205Zm0,.329-2.7,1.182,5.065-.1Zm-32.013,1.744v-2.3l-.006-2.2-.16-.007-2.743,2.225.776.648h.2v.168l1.762,1.47Zm-1.932-1.093v1.13l1.326-.025ZM96.169,160l-2.713,2.407,5.246-.1Zm-.213-.195-2.937-2.668-.19-.008v2.626l.009,2.664.176,0ZM58.548,163.08v-3.03l0-.719-.019-3.585-.122-.005-3.369,3.62,3.423,3.721Zm-3.707-3.515-3.4,3.651,6.644-.127ZM29.9,161.081H26.756l3.052,2.2h.1Zm-3.787.076-2.36,2.12h5.3Zm-3.005,2.12,2.457-2.2H23.092v2.2Zm-.4-2.2h-.166v-2.072l-.115.018-3.207,2.388,3.29,1.865h.2Zm-1.1,2.2-2.78-1.576-2.118,1.576Zm-.111-4.1-4.864.777,2.166,1.23ZM11.255,160.81l-1.519.243v.178l1.386.527.134-.072Zm-1.519.9v.8l.862-.47Zm1.519.579-.111-.042-1.411.771v.253h1.519ZM141.569,159.1l-.43-.017-2.695,1.179,2.685,1.232.5-.009v-2.371ZM51.2,247.771l1.664-.7H51.2Zm0,37.191v1.318h2.038Zm-7.112.188-1.746,1.129h1.746Zm0-37.5v-.576H42.712Zm-28.1-84.369,2.433-1.809-2.484-1.406-.034.005v3.21Zm-.461-3.15-.675.109v2.943l.259.1h.416Zm-7.591.278v-.236H9.416l1.841-.294v-.3h1.867l9.425-1.505v-1.858H30.5v.589l13.59-2.171v-.058h.373l.943-.011V138.377L6.963,160.562ZM46.061,138h.334l.066-.231Zm2.239-.561.161.561h.687l.022.005a.15.15,0,0,1,.039.008l0,0a.192.192,0,0,1,.08.072.226.226,0,0,1,.014.026.264.264,0,0,1,.026.1c0,.006,0,.012,0,.018l0,5.817s0,0,0,.008l0,5.086s0,0,0,.007l0,5.372,1.483-.017,85.919,3.473Zm95.659,22.219-2.079-.483v2.307l2.079-.04ZM51.2,242.1v4.512h2.111Zm2.3,44.644H51.2v2.784h2.3Zm1.005,4.947h1.981v-1.544H54.5Zm8.217-1.544H60.1v1.543h2.615Zm-30.674,1.543h2.615v-1.544H32.043Zm12.047-2.164V286.74H42.079v2.784ZM42.245,246.61h1.843v-4.338ZM5.611,163.278H7.752v-1.907l-2.141.342Z" transform="translate(72.256 123.595)" fill="#333335"/>
      <path id="Path_11007" data-name="Path 11007" d="M117.985,197.728a1.975,1.975,0,1,0,1.975-1.975h0a1.974,1.974,0,0,0-1.974,1.975Z" transform="translate(-0.183 85.536)" fill="#2780b9"/>
      <path id="Path_11007-2" data-name="Path 11007" d="M267.232,211.94a1.975,1.975,0,1,0,1.975-1.975h0A1.974,1.974,0,0,0,267.232,211.94Z" transform="translate(-95.307 81.996)" fill="#448e46"/>
      <g id="Group_10474" data-name="Group 10474" transform="translate(316.217 246.461)">
        <path id="Path_12286" data-name="Path 12286" d="M667.744,279.906H667.5l.01-.12.225-.34-.394-5.3-.32-.1.32-.256-.726-8.408-.872-1.78-2.552-.751-2.715.153.19-26.285h-.008c1.183-.931.466-3.007.434-3.092a3.326,3.326,0,0,0-.573-1.135c-.01-.654-.023-1.259-.023-1.259l-.545.337.005.366-1.145.023-.046.217-.485.062-.013.255-.123.087a5.78,5.78,0,0,0-2.814-2.171.752.752,0,0,1-.542-.066l-.01-.816-2.3-1.358-.733-.11v.18l-28.934-16.9-1.975-2.063-3.168-1.871s-.887.14-1.5.194a3.671,3.671,0,0,1-1.293-.221c0-.011.006-.021.006-.033a.942.942,0,0,0-.955-.886,1.213,1.213,0,0,0-.312.023.1.1,0,0,0-.059-.077c-.257-.1-.859-.313-1.048-.087l-26.175-15.858-2.516-4.988.394-.516-2.311-2.314-.969.685.021.026c-.053.009-.105.016-.159.028a.989.989,0,0,1-.317-.327l-.591-.011-.059-.291-1.311.013-3.321-2.435-2.457,1.683-.849,2.58a2.537,2.537,0,0,0-.154,2.15l-.756,30.054-.25.24.776-30.655h-.066l-.782,30.726-.8.773.455,4.67,0,.007.084.837v0l.106,1.08,1.265.446c.005.521,0,1.245-.033,1.925.478-.079,1.107-.141,1.373.381a1.213,1.213,0,0,1-.5,1.8c-.849.371-1.394-.008-1.795-.828a2.011,2.011,0,0,0,.72,1.718l-.2.146-15.652,5.6a.347.347,0,0,0-.207.434.336.336,0,0,0,.315.224V249.1h7.71v-6.844h.1l18.747-.074.025-.931-5.158-4.98a.341.341,0,0,0,.019-.45l-4.674-5.684a2.67,2.67,0,0,0,.669-.108l11.508,13.1-20.4-.06V249.1H585.19v-5.624a.345.345,0,0,0,.222-.087.334.334,0,0,0,.033-.478l-11.6-13.205a2.187,2.187,0,0,0,.753-1.3,2.388,2.388,0,0,0-.425-2.266,1.619,1.619,0,0,0-1.193-.424l-.007-.72,1.262-.188-.036-.393.908-5.2-.137-1.512.786-26.012,1.424,4.663v.01l10.07,33.341a.077.077,0,0,1,.023.036L608.033,267.9a1.276,1.276,0,0,0-.164.333,18.663,18.663,0,0,0-2.917,3.794s-.463.072-1.176.151a15.282,15.282,0,0,0-.455,8.465,2.8,2.8,0,0,0,1.991,2.137c.166.028.45.455.45.455s1.14,2.2,1.417,2.736.654.943.9.969c.248.01.972-.038.972-.038l10.851-.269.023.657-.55.018.013.854h.521l.036,1.377c-7.626.113-14,.211-14.1.211H605.8l-.054.013a46.471,46.471,0,0,0-8.919,2.81,3.838,3.838,0,0,0-2.107,2.628c-.455,2.025.6,4.31,1.646,5.645l.11.133.169.061a16.064,16.064,0,0,0,5.124.629c.473,0,.8-.018.885-.023l46.032.089h.03l.023-.005c.4-.036,3.914-.376,5.138-1.248a6.014,6.014,0,0,0,1.925-6.3c-.756-1.984-4.4-3.244-8.735-4.566-.429-.133-.836-.266-1.2-.376l-.1-.028h-.092c-1.014-.006-3.791.023-8.261.079l-.029-1.767.35,0-.013-.862h-.35V286.2l18.934-.723.007.552.381.5,10.916-.473.458-.414Zm-95.733-49.38,4.52,5.51L564.475,236l7.184-5.347Zm-8.669,5.469-6.549-.02,12.684-4.542Zm42.036,64.447.47-.57.23-1.442a1.716,1.716,0,0,1,.964,0,.683.683,0,0,1,.115.5l.023,1.1-.422.066-.014.347Zm-1.62-8.949.285.261.5-.143.2.943-1.293.394-1.3-.1a1.177,1.177,0,0,0,.005.35c-.44.22-1.416-.12-1.416-.12l-.665,0-.006-.5c1.275-.431,2.612-.806,3.691-1.085Zm44.039,7.328,1.751-.02a3.023,3.023,0,0,1,1.458,1.39c-.825.16-1.7.277-2.351.336l-1.931,0,1.077-1.086Zm-34.731,1.636.363-.184.235-.448.2-.547.4-.393h.3l.243.383.314-.007.57-.1.678.861.006.446Zm5.151.01.738-1.249,1.357-.023.578.315.5.966Zm-9.521-9.233c-.194.631-1.49.631-1.49.631l-.087-.915,1.368-.021C608.555,291.033,608.628,291.138,608.7,291.233Zm-6.06,9.2h-.023l-.02.006s-.337.018-.846.023c-.343,0-.782,0-1.259-.019a1.96,1.96,0,0,1,1.213-.888c1.181-.268,1.362-.02,1.362-.02l.6.9Zm6.772-.043.217-.478.353-.977.995-.013.64,1.528-2.227,0Zm45.365-3.728-.543.009-.018-1,.651-.007a4.356,4.356,0,0,1-.089,1Zm4.828-33.612-.005-.529c-.008-.314.13-.575.3-.583s.314.256.322.578v.5Zm-4.48,1.285-1.309,6-4.875.263-.008-.941a1.623,1.623,0,0,0,.109-.685c-.025-.651-.327-1.173-1.018-1.15l-.079,0c-.022-.231-.072-1.259.721-1.42.01-.337-.008-.782-.008-.782a1.927,1.927,0,0,0-1.058.733,3.082,3.082,0,0,0-.31,1.493l-5.2.2c-.69.031-.946.57-.921,1.225a1.184,1.184,0,0,0,.486,1.031l.007.689-1.107.059-.708-.5-.089-.136,2.318-6.053-.6-.23-2.148,5.621-.015-.022L637.961,269l1.778-4.907,2.215-2.953c.1,0,.29.01.513.01a3.764,3.764,0,0,0,.378-.02l-1.172,3.072.195.079,1.219-3.191a.77.77,0,0,0,.44-.207c.267-.334-.014-1.366-.11-1.694l14.749-19.677-.079,11.234-2.734,12.541-.291.016Zm.364,5.912-1.524.082,1.195-5.477Zm-12.349.666-.005-.519.92-.036.006.5Zm1.824-.1-.01-.491,3.162-.123c.008,0,.015,0,.023,0l0,.446ZM597.8,248.2l3.284,3.528-.559,1.48Zm-8.251-15.166,3.336,3.628-.608,1.381Zm-15.727-16.488.825-27.4.208-.009-.825,27.4Zm7.843-26.454.593-.539-.023-.244.368-.023.184.3s.041.823.657.762a.786.786,0,0,0,.689-1.151l2.152,1.3.442.877-2.554-1.544-.03.068,2.649,1.6L604.7,227.012a9.321,9.321,0,0,0-1.387-.047,14.414,14.414,0,0,0-1.058-1.769,1.04,1.04,0,0,0,.575-1.3c-.243-.413-.989-.316-.989-.316l-.956-.788,0,.032-.272-.465.325.253c.908.084.637-.691.637-.691s-1.274-1.077-2.4-2.024l-16.992-29.05-.149-.115Zm23.58,37.856-.121-.24a.209.209,0,0,1,.212-.186.224.224,0,0,1,0,.447.218.218,0,0,1-.09-.021Zm34.828,31.859c.1.005.29.013.507.013.057,0,.1-.006.155-.008l-5.349,7.138-.5-.217Zm1.617-1.269a6.248,6.248,0,0,0-.166-.667l4.967-6.627.279.515Zm-4.918,9.823-.126-.141,1.631-2.175-.948,2.617Zm18.982-28.589-.2-.617,1.75-2.335a4.816,4.816,0,0,0,.533.174ZM632.4,265.828s-.269-.139-.518-.267l-18.1-20.686-1.185-2.349,20.022,23.2Zm-5.961,4.67-.06.106c.041-.138.079-.261.111-.368l.087.172a.143.143,0,0,0-.138.09Zm-.686,1.216-.137.232v0l-.785.053c.135-.445.608-2.071.7-2.335l.018-.046a1.809,1.809,0,0,1,.315-.635l.446.885c-.071.212-.36,1.185-.555,1.84Zm-.475-2.179-.025.051c-.094.292-.663,2.229-.727,2.436l-1.223.082a12.9,12.9,0,0,0-.539-2.7.934.934,0,0,0-.049-.133l-.009-.021c-.029-.074-.06-.148-.1-.223L622.6,269q-.057-.118-.126-.236l-.013-.021q-.07-.12-.151-.239l-.017-.024c-.054-.077-.11-.154-.17-.23l-.028-.035c-.058-.072-.117-.143-.18-.213l-.047-.051c-.059-.064-.118-.127-.181-.189-.023-.024-.049-.047-.073-.07-.057-.054-.115-.108-.174-.161-.034-.03-.069-.059-.1-.087-.053-.043-.106-.087-.161-.13s-.092-.068-.139-.1-.1-.07-.146-.1-.114-.073-.174-.109c-.044-.026-.087-.054-.13-.079-.067-.039-.135-.074-.2-.109-.037-.019-.073-.039-.111-.057-.077-.037-.154-.07-.233-.1-.032-.013-.063-.028-.1-.041-.084-.033-.17-.061-.255-.087-.028-.009-.056-.02-.084-.028-.089-.026-.18-.046-.27-.066-.027-.006-.053-.013-.079-.019-.1-.018-.191-.031-.287-.043-.023,0-.044-.007-.067-.009a3.288,3.288,0,0,0-.357-.014,4.951,4.951,0,0,0-2.061-.613l-9.789-27.451.442.511a.613.613,0,0,0,.471.212h.006l7.4,8.453,10.721,21.261a1.979,1.979,0,0,0-.446.815Zm-47.644-73.154,1.485-1.09.419,1.2-1.864.026Zm-4.647,20.171-.008-.03-.1.028-.043-.76-.405.009.708-27.686a3.9,3.9,0,0,0,.456.273l.046,2.981.25.269-.868,24.917Zm.973-24.927.237-.247-.872,25.168-.233,0Zm15.109,39.237,1.158-.278,1.81,1.051.145.407c.005.005.005.018.013.031l.81,1.512-4.078-2.332Zm-4.225-10.611,1.621-1.057.908,1.416-2.464-.145Zm1.86-1.213.68-.443.735,2.058-.393-.023Zm-3.425-6.7,1.783-.245.969,2.714-2.893-2.073Zm-1.24-7.066.472-.325L583,206.3l-.281-.023Zm.309.974-1.544-.125,1-.687Zm23.011,49.492,3.1-1.921,1.208,3.556-4.225-1.476Zm-11.527-21.5-.224-.418.765-.525-.422.955Zm-5.255-13.551-.829-2.323,2.9-1.89,3.892.644,1,1.828c-.149.1-.257.184-.257.184l.1.174-2.543,1.632Zm3.845.513-2.979,1.913-.76-2.131Zm9.229,27.626-.087-.166,2.229-5.768.786-.5.014.043-2.261,5.984Zm.515.028-.207.547-.171-.32Zm-.782-.527-1.56-2.91,3.561-2.267Zm-7.916-14.765,2.32-4.155.351-.236.061-.014-1.607,3.635-1.125.77Zm-1.169-2.44.489-1.145,2.553-.614-2.961,1.988Zm-5.562-15.59-.059-.166,4.953-3.574,1.489,2.729-2.533,1.65Zm3.493.874-2.581,1.683-.8-2.243Zm-7.243-21.535,1.537,1.833-.239.561Zm1.678,3.095,2.166,1.744-.884.621Zm12.762,19.828.083.141-.718.461-.868-1.047,1.177.195Zm4.927,16.719-.264-.779h.082l.027.07.947-.016,1.172,1.314-1.653-.135Zm-5.524-15.068.117.091-.257.6-.245-.452Zm.347.269.939.727,2.671,3.226-3.282-2.027-.644-1.187Zm6.335,13.627-.007-.583h-.373l-.469-1-.462-1.047.76-1.582,2.14,6Zm-1.173-5.955-1.451.347-.59-1.338.037-.048.521-.351,1.433,1.249Zm-.459.4-.742.509-.13-.3Zm.166,2.569-.792-1.8,1.209-.831.362,1.016Zm.043-3.668-.966-.841.619-.133Zm-1.279-1.923a.212.212,0,0,1-.217-.211.2.2,0,1,1,.217.211Zm-.55-1.089c-.565-.035-1.251-.041-1.675-.04l-.812-1.5Zm-1.9,1.494.268.766-.777.167.357-.809Zm.413,1.18.2.571-2.108,1.415.769-1.742ZM604.6,235.4l.478.533a.6.6,0,0,0-.022.339l-1.022.662-1.154-1.677Zm-3.3-10.039-.221.047c.12-.149.241-.295.351-.423.013-.016.019-.03.03-.043l.06.118.043.125Zm-2.144-4.128.537.416.461.789Zm-1.512-2.606.119-.28.428.731c-.226-.189-.418-.348-.545-.451Zm-.246-.144a.853.853,0,0,0-.174-.037l.26-.167Zm-1.265.073c-.069.039-.142.084-.217.13l-.806-1.486.393.065,1.018,1.23a.662.662,0,0,0-.387.061Zm.306,10.067-.337.226,1.137-2.036Zm2.641-1.433.313.9-2.567.617Zm4.71,9.9-.45.291-.632-1.862Zm.159.231,1.086,1.575-.628,1.625-.973-2.866Zm.245-.159.983-.637h0l.534.617-.551,1.424Zm-8.537-20.158-1.34-1.617,2.317,1.781Zm-.427-.071-.289-.048-.473-.872Zm-3.4-5.776.223-.03-.174.124Zm.428-.489-.644.089-1.5-2.759,2.6,2.007Zm-2.426-5.267-.112.308-.12-.146Zm-.412-.057-.419-.51.888.181Zm.733.014.45.746,1.366,2.335-2.036-2.473Zm-1.449-.883-1.2-1.455,2.251,1.668Zm-.446-.091-.113-.023-.179-.331Zm.069.313.228.046.631.763-.3.213Zm1.04,1.029.241.292-.226.625-.365-.672Zm.454.55,2.545,3.081-2.582-1.972-.217-.4Zm1.677,5.251-4.723,3.41,1.337-3.269,3.222-.443Zm1.766,3.235,1.108,2.03-3.362-.56Zm4.267,10.205.1.551-.4.713-2.373.509Zm-.578,1.77-1.249,2.238-2.768.666.961-2.249Zm-.4,2.328,2.938-.707.3.863-4.748,3.257Zm12.2,24.237-.586-1.726,1.062,1.433Zm.645-.066,1.165,1.571-.587,2.1-1.129-3.325Zm.473-2.171a23.508,23.508,0,0,1-2.278-1.177l-.169-.5,1.507-3.577,1.949,5.464Zm1.116.514v0l-.013-.006Zm-2.272-.757-.866-.182-.113-.333c.22.126.534.293.979.514Zm-.645.147,1.684.352c.521.244.993.458,1.266.581l-1.546.955Zm.719-5.553-1.5,3.564-.906-2.663,2.247-1.353Zm-4.451-3.775-.05-.01.025-.064Zm.108.317.05.149-.521.33.205-.531Zm.3.881,1.165,3.431-3.177,1.906Zm9.107,16.776-.244.04.212-.13Zm-1.006.162-1.8.29-.729-2.147,3.325,1.373Zm2.15,5.876-.087-.521.291-.082.165.608c-.121-.006-.244-.006-.368-.005Zm-4.376-5.515-1.049.169.54-1.668Zm-1.146.469,1.237-.2.188.554-1.914,1.164Zm4.65,4.108.447.082.02.128-.411.115Zm-.306-.1.087.5-.7.2-.238-.9Zm-.542.978.677-.19.05.289c-.236.015-.466.033-.687.055Zm1.015.082-.061-.347.406-.114.071.449c-.138,0-.277,0-.415.011Zm-1.911-1.694-.008-.025,1.216.31Zm-1.238-3.644,1.07-.174-.935.568Zm-1.254-1.931-.261.8.217-.776Zm-.909,4.054,2.017-1.221.771,2.272-2.576-.655Zm2.9,1.369.074.217-1.616.94-.963-1.8Zm-.672.984.307.973-.651.182-.391-.727Zm1.06-1.176-.015-.043,1.855-3.278,1.487,4.169Zm-.142-.418-.75-2.208,1.6-.97.978-.158.025.07Zm1.509-4.232-3.431-1.421-.061-.179.641-2.284,2.817,3.8Zm-2.75-4.234.546-1.943,1.838,5.152Zm-.217-.294-1.019-1.372,1.542-.955.073.2Zm-2.128-9.76-2.245,1.346-1.192-3.512,3.3,1.785Zm-3.574-2.568-.4-1.186.68-1.761,2.756,4,.263.738Zm.4-3.276.565-1.46,1.688,4.733Zm-11.7-24.333-1.635-3.015.631-.455,1,.258,3.4,5.819Zm-6.614-12.2-.946-1.745.907-.634,2.418,4.135Zm-.573-3.292-1.954-1.563.224-.525,1.676,2Zm-1.6-2.383.087-.208.608,1.037Zm-.209-.25-1.227-1.464,1.328,1.17.014.023Zm.886,4.212-3.291,2.314-.029-.081,1.992-4.666Zm-3.086,2.89,1.28.261-.955.654Zm-.09-.314,3.316-2.318.619,1.135-2.231,1.529Zm4.069-.939,1.083,1.986-3.066-.623Zm4.681,8.578-2.818.391,1.3-3.174Zm4.4,8.719.273.5s.095-.043.275-.143l.407.746-.207.485-2.942-.174Zm1.129,1.415.108.2-.187-.011Zm.269.492.139.254c-.207.142-.565.384-1.024.695l.417-.976Zm.278.509.971,1.78-.141.432.033.095-3.946,2.625,1.713-4.009c.483-.33.945-.64,1.366-.924Zm-3.723,5.7-.881,2.062-.721.174-.338-.947Zm-2.041,1.011-.25-.7,1.919-.411Zm1.018,1.379-.287.671-.2-.555Zm-.553,1.179-1.271-.741.927-.223Zm3.372-1.48-1.956,3.507-.732-1.366-.1-.27Zm-.453,3.232,5.066-3.481,1.266,3.623-2.354,1.512-4.545-.372Zm6.427.417.116.333.279,0,.4,1.172-2.779-.228Zm2.915,7.748-.166.429-5.059-1,4.121-2.672Zm-.271.7-.327.845-3.871,2.46-2.018-3.765.912-.592Zm-1.33,6.761,3.434-2.067,1.164,3.428-.655.387-4.264-.9Zm4.69,1.634.1.292-.438-.092Zm2.492,7.453-.153.545-2.2,1.267-1.743-3.25Zm-.261.935-.5,1.766-1.033.167-.432-.806ZM608.9,260.7l-.3,1.078-.508-.947Zm-25.542-63.89-.26.19.26-.195Zm-.156.471-1.428,4.317-.924-2.589Zm.379-.256.455.833-1.954,4.6-.151-.424Zm-.478,9.568.2.548-.378-.565Zm.466.037,3.6.29-2.8,1.96Zm-.106-.3-.585-1.638,1.239-.851,3.583.73.782,1.431-.942.659Zm5.154-.08.284.521-.92-.075Zm.733,1.343.065.119-1,2.442.924-2.556Zm-2.893,7.129-.961-2.692,2.037-.28Zm3.091,8.664,3.366-2.166,3.233.188L595.6,222.7c-.951.642-2.2,1.485-3.439,2.328l-1.632,1.105Zm5.843-.21-1.624,3.8-2.731.585-.412-1.156C592.1,225.4,593.842,224.225,595.391,223.179Zm-4.771,4.473-2.228.478.094-.264c.489-.336,1.1-.752,1.777-1.216Zm-2.4.959,2.547-.546.3.851-1.471.978-1.52-.886Zm2.95.583.287.805-1.188.285-.4-.23Zm2.962,5.341,4.274.354-3.138,2.015-1.2-2.232Zm4.74.391,3.269.271.825,2.429-4.425,2.866-1.509-.3-1.628-3.04Zm-.682,5.794-.651.421-.33-.615Zm-1.312.28-2.6-1.055,1.99.394Zm9.268,9.571-2.7,1.591-1.3-2.427Zm.41.087.9.188.914,2.692-3.144,1.942-1.643-3.065Zm1.776,11.527-3.044-.9,2.356-.38Zm-26.252-69-1.742-3.214,1.508,1.163,2.228,3.812Zm-1.593,6.087,1.065,2.984-.043.13-2.626-1.935Zm.927,3.4-.368,1.112-1.831-2.728Zm.241.178.149.11.608,1.7-.532.365-.633-.944Zm-.009,2.341-.985.675.474-1.438Zm.908,1.354,1.136,1.694.143.4-2.871-2.223Zm5.056.407,1.452.117.1.178-.06.165-4.234,2.855-.4-1.118Zm1.325.918-1.24,3.427-2.345.324-.384-1.075Zm-4.017,3.81-1.476.2.146-.41,1.014-.684Zm-1.88,1.331,3.16,2.258.059.166-.724,1.773-2.565-4Zm3.365,2.828.884,2.477-.734.478-.83-1.295Zm-.089,3.112-1.553,1.013-.019-.063.849-2.077Zm1.255,1.958,1.292,2.015-3.561-2.147Zm.351.02.306.018.37,1.037Zm2.242,5.441-1.509,1.023c-.5.347-.882.608-1.15.793l-.214.148-.016-.051,2.1-4.126Zm-.29,4.005-.681.164.007-.019-.01-.015.424-.281Zm-1.082,1.259.043-.118,4.437,2.553.414.773-.672,1.52-4.033-4.382Zm5.063,3.524,1.056,1.97-.749.481-.939-1.02Zm1.191,2.223,1.447,2.7-.069-.014-2.067-2.246Zm.889,2.591-2.923-.581-.284-.521,1.379-.886Zm3.4,5.409-2.215,1.408.4-4.789Zm-2.136,1.7,2.272-1.446,2.3,4.284-.569,1.506-3.938-4.232Zm4.745,3.17,1.138,2.124-.646.381-1.022-1.1Zm1.272,2.375,1.224,2.285-1.806-1.941Zm1.513,3.007L601.17,254.4l-.23-.423,1.441-.85Zm2.779,5-2.1.339,1.744-1Zm1.018,1.9.011.02-.564,1.741-2.484-1.978-.444-.817Zm.2.37,1.23,2.3-.489.284-1.253-1Zm1.366,2.55.452.845-.037.013-.8-.635Zm.11.975a7.854,7.854,0,0,0-1.057.515l-.41-.7.712-.415Zm-2.007-27.958a.6.6,0,0,0-.138-.478l-1.661-1.913.211-.021.44.232.122-.152,2.246,2.514a.6.6,0,0,0,.1.6l1.853,2.154a.624.624,0,0,0,.462.206l.584.677,1.188,2.355Zm2.236-.006a.593.593,0,0,0-.593-.19l-2.309-2.586.154-.192-.654-.5,0-.012,0-.021-.221-.509-.542-1.324-.021.033c-.54-1.239-1.229-2.815-1.625-3.714a8.466,8.466,0,0,0,.812-1l5.12,10.155Zm-8.1-14.331a.178.178,0,0,1,.169-.17.172.172,0,1,1,.008.344.18.18,0,0,1-.175-.175ZM572.357,215.8h-.06v-.545l-.192.034.69-27.432c.1.077.188.146.271.2Zm-.326-.5-.265.047.7-27.778c.089.083.174.158.26.227Zm1.364,1.244.949-27.388.229-.01-.825,27.394Zm2.017-25.989-.8,26.352-.2-.284.8-26.7Zm4.225,6.21.767,2.188v.007c0,.006,0,.012,0,.018l-1.624,1.2-1.023-3.387Zm1.3,7.361-.5,1.513-1.243-4.116Zm3.083,5.027.486,1.361-2.157,1.455-1.629-5.393Zm-1.169,4.392,2.554,3.984-.788,1.936-1.777-5.882Zm6.253,9.855.138.388-2.087,4.1-2.091-6.92Zm-1.121,5.877,1.357.788-.323.215-.9.116-.322-.593Zm5.112,7.606.817.889-1.32.848-.146-.269Zm4.129,4.562.049.093-.414,4.924-3.6-6.623Zm4.078,10.509.884.951-1.379.813-.1-.185Zm3.747,4.1.055.1-.8,3.983-2.919-5.377Zm.265.5,1.7,3.179-2.241,1.289-.264-.485Zm2.562,8.042-.432,1.333-1.607-2.953Zm.239.19,1.086.862-1.449.842-.117-.215Zm19.378,7.042-.238-.4c-.072-.123-.194-.314-.261-.43l-.223-.379-.246-.488c.025-.082.046-.145.058-.182l.018-.049a1.175,1.175,0,0,1,1.086-.994l2.393-.059a.137.137,0,0,0,.141-.146.146.146,0,0,0-.141-.146c-.023.01-1.5.036-2.4.066a1.446,1.446,0,0,0-1.336,1.148l-.424-.841a1,1,0,0,1,.717-.3c.9-.038,2.57-.051,2.582-.051a.155.155,0,0,0,.146-.151.158.158,0,0,0-.146-.141c-.025,0-1.7.026-2.592.051a1.291,1.291,0,0,0-.843.322L615.2,247.681l16.168,18.477c-.174,1.463-.521,4.509-.627,5.451Zm31.219-11.181c.225-.008.417.5.43,1.114l.008,1.042-.821.013-.013-1.042c0-.621.176-1.13.4-1.13Zm-9.65-30.787.056.143-25.528-14.909.122-.254,24.77,14.464-.118.06Zm-.509-.592-24.812-14.487.121-.252,24.979,14.591Zm-24.092-15.992,25.912,15.133-.13.248-25.9-15.129Zm-.152.317,25.9,15.125-.13.242-25.888-15.12Zm25.74,15.424-.13.248-25.878-15.112.123-.256Zm-.165.311-.064.12-.839-.4-.068.034-25.025-14.616.119-.249Zm.547.345.011-.019.243.142Zm1.042.5-1-.581.141-.243,1.042.608Zm.409-.47-.179.205-1.054-.615.138-.237,1.094.639Zm0-.087L650.82,229l.141-.243.914.534Zm-.882-.922.044-.073.661.483Zm-.6-.347-25.914-15.131.043-.092-.45-.47,26.078,15.23-.017.177Zm1,.147.575-.013.381.274-.228.2-.318-.185Zm.281-.211-.356.034-1.138-.757-.024.251L623.9,212.471l-.9-.947Zm-37.6-20.206v0a1.958,1.958,0,0,1,1.2,1.6l.987.183.741.441a1.541,1.541,0,0,0,.581.793,3.121,3.121,0,0,1,.969.776c.194.285.411.782.889.9a2.145,2.145,0,0,1,1.11.885c.762.424,2.92,1.648,2.92,1.648l.068-.141,25.6,14.949.32.815.7.059,1.83,1.534.007.424,4.063,2.157a2.193,2.193,0,0,0-.059.9s0,.007.006.01l-14.878,19.846-1.351-1.141c-.013,0-.013,0-.013-.013s-.013-.01-.023-.01l-.026-.018a.557.557,0,0,0-.752.1.564.564,0,0,0,.026.75l.031.03a.018.018,0,0,0,.013.008c.005.005.01.013.018.013l1.4,1.186-6.672,8.894-.3-.319-.128.058L612.413,241.1a.606.606,0,0,0-.13-.487l-1.542-1.78-5.271-10.448c.261-.4.434-.819.24-1.031a1.678,1.678,0,0,0-.928-.335L586.9,191.568l25.969,15.7a.953.953,0,0,0,.955.821,1.213,1.213,0,0,0,.264-.013Zm25.589,47.269a.337.337,0,0,1-.473.041.33.33,0,0,1-.044-.47.321.321,0,0,1,.466-.043.333.333,0,0,1,.05.469Zm-26.314-48.794a.9.9,0,0,0-.384.32c-.168-.122-.362-.347-.309-.421C612.7,206.387,613.007,206.425,613.361,206.553Zm-.886-.189c-.13.285.294.624.387.69.006.008.017.006.026.008a.67.67,0,0,0-.023.125l-26.03-15.741-.442-.877Zm-26.248-15.977-2.171-1.316a.536.536,0,0,0-.381-.231l0,0h0a.847.847,0,0,0-.38.054c-.145-.128-1.12-.952-1.12-.952l-.432-.133.368-.447.67.538s.368.163.5-.043.22-.624-.151-.715a1.352,1.352,0,0,1-.182-.194,2.115,2.115,0,0,0,.691-1.243l.139-.182Zm-2.57-5.1.081.16-.087.117c0-.049.014-.1.015-.148S583.658,185.335,583.658,185.291Zm-1.761-2.562,2.215,2.224-.33.438-.135-.267a2.014,2.014,0,0,0-.832-1.406,2.261,2.261,0,0,0-1.78-.388Zm-9.5,4.777-.7,27.862-.268.048.713-28.167c.087.093.171.178.256.258Zm-.59-.655a1.523,1.523,0,0,0,.121.162c.05.059.1.109.149.164l-.716,28.25-.083.015-.164.58.062.583-.122.117Zm2.292,29.691.833-27.406.047,0,.183.6-.809,26.806Zm.814.8-.223-.324.8-26.222.211.691ZM655.5,263.282l2.583-11.844-.083,11.7Z" transform="translate(-555.454 -180.325)" fill="#333335"/>
        <path id="Path_11007-3" data-name="Path 11007" d="M603.555,191.528a1.975,1.975,0,1,1-1.974-1.975h0a1.974,1.974,0,0,1,1.974,1.975Z" transform="translate(-580.433 -185.546)" fill="#a53721"/>
      </g>
      <g id="Group_10476" data-name="Group 10476" transform="translate(0)">
        <path id="Path_12287" data-name="Path 12287" d="M539.346,517.358c-9.511-9.991-23.114-17.831-35.968-24.492-4.617-2.393-8.128-6-12.556-8.82-4.493-2.856-9.884-4.632-14.647-6.846a114.81,114.81,0,0,0-20.962-7.089c-10.274-2.49-20.767-5.013-31.2-7.063-5.547-1.089-8.705-1.654-12.821-4.448s-5.958-5.671-10.767-8.008c-6.161-3-13.251-5.024-19.457-7.368-8.757-3.308-18.46-4.707-27.756-7.265-6.059-1.667-12.953-2.953-19.019-4.2-3.415-.7-7.042-.453-10.578-1.138-3.241-.626-6.1-2.25-9.437-2.712-4.708-.654-9.795.726-14.517-.115-2.029-.363-3.164-1.47-5.232-1.813-2.4-.4-5.66.066-8.148.072-6.435.01-13.312.225-19.142.738-6.556.578-13.466-.373-20.07.194-7.14.611-12.047,5.149-19.108,5.722-7.75.626-16.274.831-24.015.953-7.328.118-14.485-.1-21.588.744a169.039,169.039,0,0,1-20.6,1.161c-6.989,0-14.007-.141-20.993,0-4.187.084-4.97.744-8.6,2.132-4.477,1.711-8.954,1.838-13.295,3.362-11.375,4-22,9.824-33.539,12.57-7.206,1.713-15.163,2.28-22.591,3.817-8.234,1.7-16.493,5.289-25.354,6.437-12.614,1.634-25.3,8.468-34.45,15.689-9.618,7.585-15.072,17.836-21.529,27.393-5.485,8.124-13.9,12.5-17.1,21.085-1.942,5.22-2.129,7.073,4.851,9.039,9.737,2.746,16.4,4.039,27.076,4.047,29.008.008,58.013-.061,87.017,0,20.76.041,41.24-3.439,62.048-4.512,7.832-.406,17.35.026,25.031-1.117,6.058-.9,10.037-2.027,16.473-1.976,13.266.1,26.339-.955,39.614-.955,37.349-.01,76.132-2.554,112.881,2.613,23.435,3.293,46,3.091,69.875,3.091,13.143,0,26.944.948,39.712-1.14,14.652-2.4,28.575-8.479,43.8-8.37,10.361.071,20.728,0,31.089,0Z" transform="translate(36.853 -71.767)"/>
        <g id="Group_10475" data-name="Group 10475" transform="translate(150.362 284.983)">
          <path id="Path_12288" data-name="Path 12288" d="M250.585,324.069Z" transform="translate(-217.124 -300.169)"/>
          <path id="Path_12289" data-name="Path 12289" d="M201.822,300.9l-28.29-16.024,1.317-2.321L204.7,299.458c.212-.241.381-.42.381-.42a4.216,4.216,0,0,1,.3-1.015c.243-.583.836-.823.936-1.46a3.656,3.656,0,0,1,.682-1.846c-.02.026-.153.161.238-.746a30.826,30.826,0,0,1,2.025-3.3s.028-.2.064-.614c.378-.69,3.837-2.28,4.87-2.549a3.659,3.659,0,0,0,1.889-1.2c.21-.281.02-.529.644-1.5a6.251,6.251,0,0,1-.6-1.964c-.672.264-.664-1.173-.672-1.559a11.582,11.582,0,0,0-.547-1.5c-.113-.461.363-.345.363-.345-.928-5.1.516-4.672.955-5.385a3.678,3.678,0,0,1,2.756-1.474c.828-.787,2.475-.289,3.213.558a2.649,2.649,0,0,1,1.813,1.884,3.975,3.975,0,0,1,.56,2.272,5.879,5.879,0,0,0-.126,1.846c.187-.266.695-.56.885.2s-.616,1.346-.654,2-.332,1.429-.921,1.39a4.665,4.665,0,0,0,.059,1.222,2.478,2.478,0,0,0,.222.987c.69.35,6.923,2.7,7.649,3.561a7.645,7.645,0,0,1,1.626,2.533c.923.606,1.39,3.068,2.035,4.512a40.676,40.676,0,0,0,3.068,4.707,22.775,22.775,0,0,0,.667,3.032c.688-.007.673,1.414-.141,2.258-.2.955.251,4.52.143,5.356a8.373,8.373,0,0,0-1.628,2.278,21.8,21.8,0,0,0,.22,3.63s-.4.01-.971-.036a5.128,5.128,0,0,1,.169.915l35.919,20.343-1.319,2.324-35.34-20.022a.839.839,0,0,1-.079.043c-.02.608-.647.327-.992.026-.424.614-.828.015-.849-.268l-1.069.419a4.559,4.559,0,0,1-1.365,1.023c-.005.565-.439,2.539-.373,3.525s1.575,5.993,1.749,7.076.749,2.4.4,3.234.806,2.639.683,3.194-.161.314.22,2.415c.228,2.454,1.017,5.277.716,6.407a6.344,6.344,0,0,0-.013,2.6,2.49,2.49,0,0,1,.687,1.427c.846.81.744,1.761.521,3.006a10.047,10.047,0,0,0,.072,2.891.912.912,0,0,1-.389.09,9.061,9.061,0,0,0,.941,1.79s.112.782.256,1.536a3.024,3.024,0,0,1,.411,1.672c.079.266-.094.4-.447.575s.031.453.031.453-2.178.541-4.136.853-2.053-.895-2.053-.895a3.926,3.926,0,0,1-.325-1.212,1.3,1.3,0,0,1,.363-1.242c.248-.195.161-.923.161-.923s-.11-2.239-.164-2.764a4.353,4.353,0,0,1-.877-2.51c-.02-1.216.695-1.4.754-1.754-1.669.782-1.895-.155-2.058-.488.243-.908-.171-2.559.136-3.737a8.915,8.915,0,0,0-.738-4.668,11.628,11.628,0,0,1-.79-4.261c-.928-1.153-.6-2.268-1.421-3.364s-.836-2.237-1.534-3.265a14.358,14.358,0,0,1-2.183-6.974,8.8,8.8,0,0,0-.407-2.022,2.016,2.016,0,0,0-.611.629,1.878,1.878,0,0,1-.491,1.607c.422,5.116-.994,4.522-.895,7.23a51.311,51.311,0,0,1-.854,8.551,26.911,26.911,0,0,0-.033,3.847c.01,1.275,1.488,2.268,1.457,3.349a3.532,3.532,0,0,1-.882,2.519,1.954,1.954,0,0,1-.195,2.321s.059,1.191.136,2.02c.32.565.164,2.132.422,2.359.038.6.534,1.056.194,1.726s-2.482.45-3.53.5-1.371-1.092-1.44-1.544c.01-.434-1.133-.987-1.493-1.135a.893.893,0,0,1-.539-.969,2.845,2.845,0,0,1,.255-1.748c.192-.565.75-1.526,1.09-1.227a.626.626,0,0,0-.087-.376,1.356,1.356,0,0,1-.156-.747,1.852,1.852,0,0,1-.026-2.644c-1.332-.365-1.925-2.876-1.506-4.333s-.089-2.27.123-4.082-1.03-15.395-.856-16.468a46.659,46.659,0,0,0-.186-5.952,13.856,13.856,0,0,1,.371-3.326,1.829,1.829,0,0,1,.268-1.656c.215-.212-.437-1.992-.631-2.662s.683-.882,1.427-.9c.153-.434.005-1.063.3-1.57-.414-.064-.918.333-1.52-.02-.286-.636.225-1.672.7-2.432l-4.456-2.523a5.959,5.959,0,0,1-1.8,1.817,5.418,5.418,0,0,1-2.224.149,8.343,8.343,0,0,1-2.671-2.022,2.988,2.988,0,0,1-.033-1.611c-.521-.178-.545-.905-.095-1.437a.521.521,0,0,1,.319-.578Zm32.472,8.034a7.235,7.235,0,0,1-.281-1.78.782.782,0,0,1,.174-.721,4.065,4.065,0,0,0-.253-1.52c-1.138-.494-1.061-2.1-1.433-3.308-.586-.115-1.281-.946-1.708-1.833a18.39,18.39,0,0,1-1.427,6c.432,2.981,1.539,2.439,1.572,3.229s-.143,1.194-1.066,1.509c.13.417,1.038.943,1.056,1.1s.291.409-.22.614c.23-.036,1.429.036,1.429.036a1.39,1.39,0,0,1,.1.389c.619.141,1.39,1.7,1.39,1.7l.613-2.326s-.038-1.437-.079-1.759a.654.654,0,0,1,.279-.545,2.447,2.447,0,0,1-.143-.784Zm-21.472-6.94c-.647-.611-.793-2.547-1.03-2.94a2.2,2.2,0,0,1-1.079,2.272,4.128,4.128,0,0,0-.816,1.086l2.965,1.68c.123-.626.514-1.582-.041-2.1Z" transform="translate(-173.532 -270.818)"/>
          <path id="Path_12290" data-name="Path 12290" d="M267.691,274.932c.245,0,.268.5.565.5.959-.032,1.911-.331,4.5-.5,2.991-.2,4.113,1.219,5.363,1.158a9.589,9.589,0,0,1,.55-1.15c-.371-5.525-4.277-5.979-5.619-5.891A5.529,5.529,0,0,0,267.691,274.932Z" transform="translate(-226.801 -269.033)"/>
          <path id="Path_12291" data-name="Path 12291" d="M268.569,277s-3.242-.658-4.088.612,1.491,2.823,1.94,2.912C267.893,279.611,268.569,277,268.569,277Z" transform="translate(-224.881 -273.443)"/>
        </g>
        <path id="Path_12292" data-name="Path 12292" d="M121.235,425.74a2.7,2.7,0,0,1,1.268-2.135c.918-.683,1.34-2.937,1.5-3.351-.1-.251-.473-.156-.337-1.11s-.363-1.629-.005-2.1.55-.33.55-.33a2.248,2.248,0,0,0,.266-.4,10.513,10.513,0,0,1,.01-3.019c.345-1.516.7-4.924,1.16-5.606-.066-.772-.061-1.153-.061-1.153s.342-.649.588-1.03a3.251,3.251,0,0,1,.158-2.035,2.9,2.9,0,0,1-.207-1.861,8.009,8.009,0,0,1,.069-2.385,8.366,8.366,0,0,0,.45-3.28c-.1-1.352.187-1.259.187-1.259a10.175,10.175,0,0,1,.025-1.52.853.853,0,0,1,.1-.808l-.294.026.026.307a.33.33,0,0,1-.657.059l-.164-1.846a.33.33,0,1,1,.657-.057l.028.327.869-.079a4.773,4.773,0,0,0-.895-1,16.735,16.735,0,0,1-3.346-5.7c-.536-1.992.253-3.9,0-4.918-.373-1.048.353-1.871.353-2.311-.291-.614.243-1.342.245-2.221a11.73,11.73,0,0,1,1.419-4.284c.3-.626,1.112-.54,1.708-1.033a3.872,3.872,0,0,1,1.705-.631c.251-.741,1.859-1.125,2.215-1.156a7.028,7.028,0,0,0-.76-1.933c-.386,0-.605-.825-.557-1.321s-.672-.984-.621-1.746c.028-.442.386-.154.491-.043-.038-.545-.353-.417-.578-.877-.235-1.954.322-4.914,4.152-5.255,3.034-.271,4.8,3.308,4.694,4.907-.212.24-.493.281-.345,1.05,0,0,.471-.122.379.424s-.406,1.056-.409,1.457.077,1.1-.578,1.172c-.125.373-.278,1.145-.345,1.447a1.6,1.6,0,0,1,.458.81c.333.118,3.612,1.332,4.924,2.587,1.058.642,2.7,4.64,2.636,5.366a15,15,0,0,1,.675,2.178,1.554,1.554,0,0,1,.3,1.575,32.931,32.931,0,0,1,.478,4.119c-.207.549-.933,1.828-1.048,2.316a7.209,7.209,0,0,0-.979,1.831c-.11.278-.651,1.153-1.068,1.833l.519-.046-.028-.327a.326.326,0,0,1,.3-.358.331.331,0,0,1,.358.3l.164,1.843a.332.332,0,0,1-.3.358.327.327,0,0,1-.355-.3l-.028-.307-.955.084a2.436,2.436,0,0,0,.544.57,8.472,8.472,0,0,0,.092,1.94c.128.521,1.542,5.356,1.848,7.62a18.6,18.6,0,0,1,.266,2.682,2.8,2.8,0,0,1,.747,1.874c-.02.68.258.55.37.675a1.138,1.138,0,0,0,.061.588.91.91,0,0,1,.445.718c.013.489.281,1.363.289,1.734a3.433,3.433,0,0,1,.718,1.644c.051.45.151,1.107.164,1.4s-.276.651-.243.862.169,1.145.169,1.145a2.7,2.7,0,0,0,.6.281c.174.023.37.58.215.912a6.525,6.525,0,0,0,.877,2.684.472.472,0,0,1-.158.233,8.2,8.2,0,0,1,.9,1.853,9.34,9.34,0,0,0,1.259,1.071,4.643,4.643,0,0,1,1.16,1.833,4.9,4.9,0,0,1,.072.793,5.262,5.262,0,0,1-1.534.5c-.442-.02-2.215.279-3.091-.524A7.14,7.14,0,0,1,147,422.789a2.569,2.569,0,0,1-.155.772,4.088,4.088,0,0,0-1.675-.848,10.045,10.045,0,0,1,.005-3.318c-.235-.821-.036-.816-.125-1.168a5.716,5.716,0,0,0-.936-1.317c-.294-.376.192-.738.22-1.1a3.721,3.721,0,0,1-.68-.018s-.35-.11-.386-1.206-1.1-2.442-1.611-5.037c-.974-2.432-1.644-3.911-1.843-4.553a9.412,9.412,0,0,1-1.035-1.544l.159,1.8a.632.632,0,0,1-.578.69l-.928.084.35,3.945-.706.064,1.232,13.851-.281,2.183-.66-2.1-1.23-13.848-.708.061-.35-3.947-.925.082a.634.634,0,0,1-.695-.578l-.276-3.116c-.908,2.723-2.329,6.5-2.567,7.35a6.293,6.293,0,0,1-.723,1.3s-.01,1.24-.379,1.6a6.862,6.862,0,0,1-1.3,4.075c-.015.24.013.356-.189.555a2.117,2.117,0,0,1,.128,1.447c-.179.458-.58.889-.516,1.386.039.657.4,1.4.31,1.672a.886.886,0,0,1,.184,1.184,6.444,6.444,0,0,0-.651.779c-.274-.174-.721-.5-.721-.5a5,5,0,0,0-.6,1.534,2.514,2.514,0,0,1-1.954,2.114,4.4,4.4,0,0,1-2.887-.322C120.923,426.305,121.32,426.252,121.235,425.74Zm19.2-38.334a23.024,23.024,0,0,1,1-3.075,8.25,8.25,0,0,1,.559-1.2s-.061-.685-.084-.951-.233-.192-.373-.9a13.136,13.136,0,0,1-.925-1.411c-.018-.21-.187-.918-.187-.918-.386.782-.026,1.23-.095,1.664-.442.425-.355.509-.439,1.665a3.855,3.855,0,0,0,.529,2.352C140.672,385.014,140.189,386.791,140.432,387.406Zm-12.373-5.99c-.059-.37-.337-.506-.383-1.035a2.713,2.713,0,0,0-.465.818c-.028.266.251.964.128,1.4-.028.268.023.849-.176,1.028.026.266.391.764.327.984a9.757,9.757,0,0,0,.4,1.511,2.6,2.6,0,0,0,.366-1.58,3.645,3.645,0,0,0,.266-1.81C128.519,382.094,128.117,381.782,128.058,381.417Z" transform="translate(6.472 -33.617)"/>
        <path id="Path_12293" data-name="Path 12293" d="M562.985,273.362c-.036-.465-.036-1.383.521-1.421s.634.36.634.36a.4.4,0,0,1,.309-.36,1.15,1.15,0,0,1,1.138.248c.414-.207.57-.568,1.156-.411a2.464,2.464,0,0,1,.912.762l16.768-2.027c0-.07-.007-.126-.007-.164-.026-.915.544-.619.662-.772a1.122,1.122,0,0,1,.514-.273.917.917,0,0,0-.082-.405c-.394.036-.212-.534-.135-.7-.407.1-.32-.493-.373-.733-.207.05-.6-.26-.586-.587a7.847,7.847,0,0,1,1.017-1.724c.207-.31-.135-1.018-.4-1.138-.251-.083-.164-.405-.018-.766.005-.033.013-.064.018-.092a2.036,2.036,0,0,1,.107-.571c.008-.043.015-.087.02-.137-1.824.386-3.687.275-3.124-.444a8.09,8.09,0,0,1,3.1-1.557,4.856,4.856,0,0,1,5.445-3.41c2.792.312,4.356,2.18,4.627,6.087-.426.11-.731.68-.9.871H594.3c0,.575-.018,1.071-.018,1.071a6.474,6.474,0,0,0-.363,1.259,2.872,2.872,0,0,1-.621,1.088,1.922,1.922,0,0,0-.1.69,8.8,8.8,0,0,1,1.45.257l-.018.843s.071.018.22.047l10.333-1.247a.448.448,0,0,1,.293-.181l.755-.1-.174-.309.744-1.265s4.107.064,5.32.633c1.443.675,5.149,4.669,5.149,4.669l1.446,2.434S615.17,271,612.8,270.47a47.329,47.329,0,0,0-5.261-.4l-.645-1.144-1.264.166a.429.429,0,0,1-.334-.1l-7.869.952a6.164,6.164,0,0,1,1.639,3.3,17.009,17.009,0,0,1,.327,4.277c-.4.6-1.068,1.723-1.068,1.723l-.189.966s.24,1.621-.138,2.035-.588,2.239-.81,2.876a9.593,9.593,0,0,0-.192,2.452c-.018.727-.637.67-.895,1.327a1.834,1.834,0,0,0,.6,1.81,1.259,1.259,0,0,0,.406,1.068,2.2,2.2,0,0,1,.049,1.216,4.733,4.733,0,0,0,.494.644c.284-.074.672.184.981.545a1.91,1.91,0,0,1,1.346,1.4,12.259,12.259,0,0,0,.3,1.838v3.41l-.637.649a1.8,1.8,0,0,0-.13-.388.648.648,0,0,0-.7.493c-.36,0-1.033.568-1.033.568s-.933,0-1.424-.051c.284.621.7.591.389,2.014a25.113,25.113,0,0,0,.051,5.044s.9.782.9.908.335,2.12.491,3.1c.544.775.751,3.1,1.163,4.939s.072,7.258.072,7.828c.394.258.291,1.465.207,1.7.291.036.688.744.378.76a1.109,1.109,0,0,0-.793.417c.757.514.309,3.274.276,4.271.361-.033.412.984.48,1.536a2.72,2.72,0,0,1,.243,1.741c-.345.67-1.57.862-1.57.862l-.087-.294a3.4,3.4,0,0,0-1.015,1.467c-1.158,2-3.329,1.552-4.6,1.45a3.558,3.558,0,0,1-2.122-.777,1.432,1.432,0,0,1-.376-.861,2.357,2.357,0,0,1,.667-1.726c.4-.45,1.656-1.45,2.432-2.1.084-.552.429-.5.637-.618-.018-.276.483-.521.483-.521s-.378.138-.69-.343c-.015-.465.243-.57.243-1.071a6.871,6.871,0,0,1,.447-1.981,1.768,1.768,0,0,1-1.362-1.6,11.686,11.686,0,0,0,.207-2.02,11.835,11.835,0,0,0-.637-3.05c-.294-1.069.276-2.119-.45-3.052a49.211,49.211,0,0,1-3.362-10.76c.468,5.433-2.912,12.156-2.981,12.759a1.328,1.328,0,0,1-.552,1.053,3.038,3.038,0,0,1-.312,2.05c-.24.585.207,1.242.223,1.828a1.779,1.779,0,0,1-.463,1.1,10.287,10.287,0,0,0-.069,1.314c.138.258.015.514-.309.654a2.653,2.653,0,0,0,.5,1.654s.57.294.192,1.259c-1,1.122-2.485.864-3.055.933a1.7,1.7,0,0,1-1.465-.846c-.432-.291-.895-.261-2.671,0-2.966-.172-3.676-1.066-4.062-2.035a1.244,1.244,0,0,1,1.086-1.73c.685-.013,2.163.491,2.482.4.118-.466.893-1.007,1.23-1.138a2.362,2.362,0,0,0,.723-.6s.013-1.112.013-1.421c.026-.233.583-.376.714-.532a2.9,2.9,0,0,0,.255-.762,3.842,3.842,0,0,0,.079-.955,1.07,1.07,0,0,1-.583-1,1.341,1.341,0,0,1,.7-1.166c.378-.164.738-.928.738-.928s.026-1.864-.023-2.47a2.334,2.334,0,0,1-.074-1.24,7.945,7.945,0,0,0-.138-2.035,17.8,17.8,0,0,1,.174-5.515c.381-1.276,1.447-7.071,1.483-7.825a19.423,19.423,0,0,1,.516-3.07c.1-.171.517-1.554.517-1.554a14.709,14.709,0,0,1-.26-2.93,4.424,4.424,0,0,1,.974-2.122l.013-1.278a11.087,11.087,0,0,1-.943-1.1c.181-.494.1-1.529.309-2.3,0-.6-.025-2.791.08-3.41a24.058,24.058,0,0,0-.13-3.214c-.813-.023-2.38.662-2.856.651s-.828-.274-1.462-.182a22.054,22.054,0,0,1-2.922.243c-.713-.37-3.919-1.664-5.005-2.081-1.357-.038-1.322-.57-1.437-.8a11.457,11.457,0,0,0-1.316-1.216s-.647.087-.893-.138c-.041-.215-.245-.314-.286-.524-.943.066-1.317-.151-1.358-.243a1.606,1.606,0,0,1-.026-.4,1.3,1.3,0,0,0-.258-.3,3.053,3.053,0,0,1-1.5-1.008c-.245-.4-.738-.854-.995-.79-.271.529-.7.013-.868-.141S562.65,273.726,562.985,273.362Zm5.379.69c.258,0,.532.516.79.81a.8.8,0,0,0,.327-.123,15.258,15.258,0,0,0,3.157,1.483c.243-.412,2.879.933,3.587,1.089a8.729,8.729,0,0,0,1.828,0c.12.033.084.376.273.36s.192-.516.434-.621.568.4.777.21,1-.708,1-.708a3.414,3.414,0,0,0,1.123,0c.258-.12.777-.6,1.12-.55a.955.955,0,0,1,.8-.432,16.712,16.712,0,0,1,1.749-1.414c.233-.2.465-.406.491-.639-.762-.251-1.109-1.216-1.265-2.025l-16.193,1.954a.084.084,0,0,0,.013.018A1.768,1.768,0,0,0,568.364,274.053Z" transform="translate(-243.332 22.757)"/>
        <path id="Path_12294" data-name="Path 12294" d="M505.243,351.359a5.562,5.562,0,0,0,4.047-.511l.951.13,1-.721.094.1,10.372-8.654a12.558,12.558,0,0,1-.051-1.288,5.623,5.623,0,0,1,.757-1.509,1.218,1.218,0,0,0,.156-.511.3.3,0,0,1-.2-.115,5.159,5.159,0,0,0,.731-1.107.843.843,0,0,1,.207-.662,1.4,1.4,0,0,1,.146-.627.921.921,0,0,1,.233-.9,1.685,1.685,0,0,1,.194-.831c-.026-.066-.194.025-.038-.381a9.283,9.283,0,0,1,.391-.912.932.932,0,0,1-.028-.624c-.064-.312.261-.5.261-.6s.013-.793-.025-1.3a2.871,2.871,0,0,1,.235-1.133s.039-2.525.028-3.384a3.208,3.208,0,0,1,.419-1.631c.079-.108.059-.243.1-.465.248-.833,1.125-1.017,1.2-1.311a4.1,4.1,0,0,1,.693-1.022c-.419.046-.442-.333-.557-.5s-.253-.156-.294-.2a.848.848,0,0,1-.066-.235s-.059-.038-.228-.125c-.164-.343-.573-.245-.593-.43s-.169-.45-.2-.685-.42-.849-.76-.887-.284-.35-.263-.654a.7.7,0,0,0-.128-.391l-.251.13c-.115-.289-.094-.307-.274-.744-1.042.951-2.3,1.6-2.206.915a6.12,6.12,0,0,1,1.421-2.209,3.682,3.682,0,0,1,2.232-4.32c1.943-.872,3.681-.256,5.361,2.188-.235.233-.215.724-.248.912h0l-.174.089c.215.4.087.585.279.989a2.607,2.607,0,0,1,.263,1.146,1.059,1.059,0,0,0,.195.506l-.195.312.383.729s.223-.235.391-.235a3.961,3.961,0,0,1,1.133.951c.337.209,1.784-.233,2.449-.376s2-.118,2.186.182a15.887,15.887,0,0,1,1.73.5c.261.028.468-.133.588.026a3.829,3.829,0,0,0,.726.481.789.789,0,0,1,.651.013c.391.158,3.034,1.173,3.305,1.314s.534-.092.744-.013.079.3.128.378a1.658,1.658,0,0,1,.731,1.117c.271.955-.626,1.38-.706,1.68A14.213,14.213,0,0,1,542.742,326a.631.631,0,0,0-.261.611s-1.771,1.483-2.032,1.6-.22-.117-.417-.248a8.025,8.025,0,0,1,.026,1.066c-.337.665-.532.951-.611.977a2.092,2.092,0,0,1-.379.028l-.051.1a.712.712,0,0,1-.353.026c.041.22.509.885.5,1.25a6.644,6.644,0,0,0,.691,2.523,11.5,11.5,0,0,1,.766,1.979s-.036.588-.036.849.3.414.44.675a4.982,4.982,0,0,0-.22,1.225,6.265,6.265,0,0,1,.455,1.419c.051.521.379.7.4,1.394a4.155,4.155,0,0,0,.5,1.613,3.284,3.284,0,0,1,.391,1.682c-.026.844.209.923.209,1.248a5.659,5.659,0,0,0,.818,1.587c-.066.432.286.691.286,1.238a3.281,3.281,0,0,1,.7,1.38s.964,2.437,1.081,2.994a3.81,3.81,0,0,1,.248,1.874c-.2.6.079.793.1,1.172a4.483,4.483,0,0,1-.158.9c-.013.251.562.665.928.967s.258.977.309,1.3a1.4,1.4,0,0,1-.233.928c-.041.195.43.912.43.912s-.143.353-.209.6c-.026.678.938,1.759,1.25,2.408s.69,1.317.013,1.94-2.654.143-2.654.143a9.259,9.259,0,0,1-1.212-.859,6.1,6.1,0,0,1,0-1.225c-.2-.1-.6-.4-.6-.4l.041-1.346a2.188,2.188,0,0,0,.271-.647.521.521,0,0,1-.335-.588,3.711,3.711,0,0,0-.34-.849l-.343-.7a6.156,6.156,0,0,1-.049-.767c.01-.3.105-.378,0-.69-1.9.885-1.433-2.265-1.433-2.265s-.366-1.3-.366-1.383a12.986,12.986,0,0,0-.964-2.365,48.006,48.006,0,0,0-2.418-4.637c-.935-1.329-3.548-4.573-3.937-5.435-.317,2.247-3.484,6.92-3.656,7.155.238.194.133.521.225.872a1.251,1.251,0,0,1-.238,1c.212.481.105,1.588.445,2.041s.572,1.225.442,1.433-.222.353.051.716-.064.6-.1.846,1.209,1.018,1.39,1.238a.792.792,0,0,1-.036.859c-.159.2.048.4.048.4v1a4.339,4.339,0,0,1,.223.923,1.369,1.369,0,0,1,0,1.874c-.43.741-2.155.365-2.155.365s.1-.378-.135-.417-.782-.132-1.626.651a4.5,4.5,0,0,1-3.766-.064,1.7,1.7,0,0,1,.054-.611c-.481-.588.051-.912.859-1.056a5.975,5.975,0,0,0,1.915-.82,2.869,2.869,0,0,1,1.133-1.2s.194-.3-.053-.417-.125-.437-.125-.437l.018-.4a1.8,1.8,0,0,1-.478-.419.293.293,0,0,1,.089-.371s.077-.233-.048-.35c-.156.33-.608.465-.762,0-.217-.879-1.172-4.668-1.426-5.274a12.3,12.3,0,0,1-.721-2.068,10.3,10.3,0,0,0-.391-1.368,5.975,5.975,0,0,1-.041-1.209c.079-.7.627-.9.936-2.6a20.964,20.964,0,0,1,1.531-4.277c.028-.417-.115-1.066.156-1.209a2.822,2.822,0,0,1,.171-1.592l-3.426,2.86a2.512,2.512,0,0,1,.054.45.637.637,0,0,1-.391.846.5.5,0,0,1-.637.391c.023.641-.639.363-.639.363s.353.185-.195.55c-.363.241-.6-.084-.762-.452l-10.1,8.424.107.115-1.106.938-.769.138a4,4,0,0,1-1.557.862,6.824,6.824,0,0,1-4.7-.494,8.815,8.815,0,0,1-2.245-1.879C501.841,350.322,504.379,351.188,505.243,351.359Zm21.687-16.346c-.417.452-.287.649-.483,1.115a3.43,3.43,0,0,0-.468,1.892.673.673,0,0,1-.4.038,2.345,2.345,0,0,0-.422.764l3.273-2.73a8.3,8.3,0,0,1,1.16-1.381.636.636,0,0,1-.651-.844,6.763,6.763,0,0,0,.156-1.03c-.118-.312-.639-1.158-.741-1.563a1.527,1.527,0,0,1,.274-1c.051-.092-.184-.312-.184-.312l-.391-.066-.141-.365a5.734,5.734,0,0,1-.053,1.03c-.389.468-.118,1.368-.181,2.406-.4.806-.328,1.586-.742,2.046Zm10.714-7.475c.077-.261.662-.677.662-.677l-.038-.1a12.456,12.456,0,0,1,1.483-1.429l.248-.079v-.207a8.514,8.514,0,0,0,1.145-1.6.6.6,0,0,1-.468-.3,10.492,10.492,0,0,0-2.319.195c-.688.769-.767,3.607-.713,4.2Z" transform="translate(-208.744 -7.606)"/>
        <path id="Path_12295" data-name="Path 12295" d="M427.172,388.2c-1.2.128-6.388,4.024-6.861,5.412-.286.836-.532,1.824-.885,2.61-.621,1.373-1.634,1.94-2.741,2.927-2.863,2.552-3.489,4.228-6.936,5.7a17.58,17.58,0,0,0-4.193,2.045,26.037,26.037,0,0,0-3.139,3.625c-.731.851-.555,2.62-1.34,3.318-.841.744-2.171,3.39-1.189,3.812.483.2,4.8-.723,5.233-.44,1.042.68,2.741-.7,3.99-.488a22.74,22.74,0,0,0,3.221-.11,79.718,79.718,0,0,0,10.295-.67c2.85-.307,5.559-.843,8.385-1.148,3.162-.34,6.051-1.37,9.114-1.961a31.4,31.4,0,0,1,5.936-.447c1.774.015,3.558-.373,5.33-.521,1.552-.13,2.866.751,4.277-.4a8.468,8.468,0,0,1,1.153-.912c.516-.287,1.772-.591,2-1.2.588-1.607-1.65-1.3-2.485-1.216-1.547.177-3.109.568-4.6.021-.925-.347-3.114-.708-3.648-1.694-.688-1.248.092-2.986-.8-4.188-.708-.969-1.992-1.69-2.8-2.615-.8-.9-1.889-1.5-2.6-2.47a13.636,13.636,0,0,0-3.035-3.188c-1.209-.9-2.393-1.146-3.446-2.275C435.408,391.733,428.272,388.079,427.172,388.2Z" transform="translate(-151.032 -51.464)"/>
        <path id="Path_12296" data-name="Path 12296" d="M806.778,27.366l28.061-147.047q0-.051,0-.1a.262.262,0,0,1,.008-.043.975.975,0,0,1,.051-.187l4.2-22c0-.011,0-.021,0-.032a.757.757,0,0,1,0-.163.886.886,0,0,1,.094-.3l3.474-18.2h-3.8a.093.093,0,0,1-.066-.027.093.093,0,0,1-.027-.066v-21.127a.093.093,0,0,1,.027-.066.092.092,0,0,1,.066-.027h6.135l.626-8.407a5.6,5.6,0,0,1-3.083-.4,5.259,5.259,0,0,1-.67-.364,3.63,3.63,0,0,1-.605-.205c-1.477-.658-2.4-2.244-2.758-4.381l-4.892-13.536a1.413,1.413,0,0,1-1.369.405.733.733,0,0,1-.13-.092.5.5,0,0,1-.13-.024c-.508-.227-.633-1.468,0-2.888s1.641-2.156,2.149-1.929a.5.5,0,0,1,.1.079.735.735,0,0,1,.156.037,1.439,1.439,0,0,1,.614,1.331l12.564-4.226.307-4.129h-3.261a.093.093,0,0,1-.093-.093v-21.125a.093.093,0,0,1,.093-.093h4.849l1.4-18.811h-2.148c-1.978,0-3.58-2.464-3.58-5.5s1.6-5.5,3.58-5.5H851.7l.532-7.145H851c-2.229,0-4.039-2.76-4.039-6.164s1.807-6.167,4.039-6.167h2.152l.078-1.049c0-.028,0-.057.005-.085a.283.283,0,0,1,0-.047l.3-4.1c-1.343-.794-2.3-2.79-2.3-5.133,0-2.779,1.343-5.073,3.083-5.445l.288-3.874a.822.822,0,0,1,.016-.215l1.1-14.824h-1.072v-2.255h-3.339c-1.977,0-3.581-2.464-3.581-5.5s1.6-5.5,3.581-5.5h3.339v-34.266a1.7,1.7,0,0,1-1.056-1.575,1.7,1.7,0,0,1,1.7-1.7,1.7,1.7,0,0,1,1.7,1.7,1.7,1.7,0,0,1-1.057,1.575v34.272c1.939.068,3.5,2.5,3.5,5.5a7.121,7.121,0,0,1-1.129,4.005h2.606v-54.056a1.7,1.7,0,0,1-1.057-1.575,1.7,1.7,0,0,1,1.7-1.7,1.7,1.7,0,0,1,1.7,1.7,1.7,1.7,0,0,1-1.056,1.574v54.059h2.63v-12.948a.092.092,0,0,1,.093-.093h2.844v-29.469a1.7,1.7,0,0,1-1.057-1.575,1.7,1.7,0,0,1,1.7-1.7,1.7,1.7,0,0,1,1.7,1.7,1.7,1.7,0,0,1-1.056,1.574v29.47h4.253a.092.092,0,0,1,.092.093V-321.7a.093.093,0,0,1-.092.092h-3.9l.752,10.385a.761.761,0,0,1,.009.122l1.072,14.817c1.724.7,3,3.1,3,5.949a7.051,7.051,0,0,1-2.171,5.463l2.075,28.653h1.836c1.99,0,3.6,2.464,3.6,5.5s-1.614,5.5-3.6,5.5h-1.039l.13,1.809h3.288a.109.109,0,0,1,.109.109v9.238a.109.109,0,0,1-.109.109h-2.6l.709,9.792h1.921a.093.093,0,0,1,.093.093v21.124a.092.092,0,0,1-.093.092h-.376l.681,9.413h2.866c1.99,0,3.6,2.464,3.6,5.5s-1.614,5.5-3.6,5.5h-2.071l.645,8.91h4v5.635h-4.938l.711,3.832c.01.018.025.033.034.052a.918.918,0,0,1,.076.541l3.886,20.959a1.262,1.262,0,0,1,.094.434c0,.014,0,.027-.006.043l4.082,22.023a.921.921,0,0,1,.043.154c0,.022.008.043.01.066s0,.061.005.092L915.42,27.374a.925.925,0,0,1-.742,1.078.955.955,0,0,1-.168.015.924.924,0,0,1-.912-.756l-.5-2.7H874.222v2.558H849.531V25.027H809.136l-.514,2.692a.937.937,0,0,1-.922.764.834.834,0,0,1-.174-.017.937.937,0,0,1-.749-1.1Zm65.285-215.99v15.109h5.93Zm-.628-56.589c-1.991,0-3.6-2.464-3.6-5.5a7.84,7.84,0,0,1,.445-2.649l-.244-.533-4.381,11.434,6.7-.052v-.779a.109.109,0,0,1,.11-.109h2.357L872-245.212ZM862.5-326.957l-.277.7v.13h-.052l-1.707,4.3h4.014ZM834.9-211.4l7.045,1.331a21.187,21.187,0,0,1,4.673-5.715l-11.624,3.911a3.9,3.9,0,0,1-.1.473Zm14.635,133.97v-1.381l-1.662,1.381Zm-3.113,1.879,3.113,3.081v-3.081Zm27.8-1.879h1.267l-1.267-1.083Zm0,1.879v2.723l2.674-2.723Zm0,30.382h4.459l-4.459-3.344Zm-24.691-3.6-4.946,3.6h4.946ZM874.223-43.3v4.172L879-43.3Zm-24.691,0h-5.278l5.275,4.478Zm0-7.807v-6.925l-22.707-.063,14.919,12.665Zm0-8.807v-9.919L844.6-74.714,826.85-59.97Zm0-21.348v-8.091H832.479l12.229,12.1Zm0-9.974v-11.542l-2.015-2.269L832.59-91.227Zm-1.881-16.494,1.881-1.741V-118.7l-11.661-.028Zm1.881-12.86v-9.662L838.3-120.61Zm24.691-22.434,6.662-.008-6.662-6.75Zm0,1.85v7.122l6.725-7.128Zm0,20.6L884.8-120.6l-10.576-9.343Zm0,1.85v9.588l1.476,1.407,9.51-11.02Zm1.607,13.679-1.607,1.862v11.966h16.122Zm-1.607,15.677v8.413l4.282,3.661c.02.012.04.025.059.039l11.89-12.112Zm0,19.179V-59.9l21.7-.062L878.667-74.714Zm0,12.143v7.209l7.213,5.41,14.515-12.68Zm7.3,15-7.3,6.379v8.631h27.315Zm-7.3,16.86v10.049L885.075-5.342l17.274-20.835Zm0,12.658v8.611h8.659Zm-24.691-.351-9.277,8.962h9.277Zm0-2.61v-9.679h-29.3L838-5.341Zm0-11.561v-8.307l-7.875-6.685L821.078-28.043ZM840.184-44.29,824.847-57.306l-5.361,28.1Zm3.072-31.752L830.78-88.389l-5.15,26.99Zm3.016-30.4-9.916-11.161-4.714,24.7Zm2.337-25.482-7.958-8.191-3.428,17.962Zm.924-1.744v-7.479l-7.274-.008Zm0-9.36v-7.095l-7.206,7.089Zm0-19.625h-2.175v1.509l2.175,2.636Zm7.647-122.988.747,2.156,3.415-8.1-6.236-.039.556,1.607a7.508,7.508,0,0,1,1.517,4.379Zm-.638,17h4.878l-3.634-10.484-3.214,7.623a4.863,4.863,0,0,1,1.969,2.863Zm3.61-27.749a2.4,2.4,0,0,1-.776.133h-2.761l-1.4,3.078,6.167.037Zm2.649-6.978h2.284l-2.581-5.841-1.256,2.763a5.786,5.786,0,0,1,1.551,3.078Zm.155,1.563v.046a6.754,6.754,0,0,1-1.484,4.455l1.031,2.722,2.66-7.223Zm-5.258-5.458h1.678a2.384,2.384,0,0,1,.5.061l1.426-3.136-4.777-.013Zm8.52,2.6,2.1-5.687-4.6.013Zm-2.581,11.526.856-.006c.671-1.984,2.024-3.344,3.587-3.344h.044l-1.774-4.015Zm.49,1.559-.452,0,.379.924a9.122,9.122,0,0,1,.073-.928Zm-1.622,1.263-3.474,8.238h6.851Zm-3.553,9.8,3.552,10.249,3.452-10.249Zm-1.076,24.965,4.627,11.735,4.5-11.736Zm8.685-1.563-4.056-8.887-4.175,8.887Zm-13.447,19.719,2.877,6.257,5.225-9.756-8.1-.061Zm0,3.742v7.886l1.951-3.643Zm4.126,3.487h10.379L862.5-240Zm-.087,1.563,5.352,11.634,5.2-11.635Zm.655,23.084,3.545-8.776h-4.391a13.684,13.684,0,0,1,.849,8.774Zm-1.944,8.982h13.088L862.5-212.983Zm-.076,1.563,6.712,20.159.983-3.04v-14.242a.092.092,0,0,1,.093-.092h4.545l.9-2.788Zm-8.435,21.476h13.94l-6.655-20-7.282,18.03Zm5.593-44.042a3.724,3.724,0,0,1,.558.315,5.231,5.231,0,0,1,.719.256,5.33,5.33,0,0,1,1.6,1.113H861.3l-5.414-11.774-2.77,5.17v1.626a.092.092,0,0,1-.027.066.092.092,0,0,1-.065.027h-.828l-1.576,2.943A4.044,4.044,0,0,1,852.946-217.553Zm8.418-24.91-4.529-11.486-5.361,11.412Zm-.078-24.623h-4.458c.02.232.033.466.033.706a6.752,6.752,0,0,1-1.489,4.463l1.591,4.035Zm-4.267-14.252-.315-.912a4.588,4.588,0,0,1-2.9,3.135l-.488,6.561Zm-.992-25.934-.106-.278-.021.278Zm.514-4.647,4.9.012-2.2-6.824Zm1.949-9.149-1.269-3.94-.655,8.794ZM862.5-313.7l2.054-6.56h-4.169Zm3.193-4.971-2.116,6.762,4.719-.012Zm1.429,16.05,2.547,5.765-.767-10.6Zm-.608,17.973.453,1.106.258-.767a3.1,3.1,0,0,1-.711-.341Zm-2.917,16h7.786l-4.273-10.43Zm.13,1.563,4.179,9.155,3.508-9.153Zm6.624,26.13-6.557.049,5.055,9.713,1.5-3.369Zm-6.637,25.083h6.218v-8.191a.093.093,0,0,1,.092-.093h.724l-1.795-3.449Zm6.31,13.028a.092.092,0,0,1-.092-.092v-11.374h-6.275l6.368,16.224,1.54-4.76Zm-.264,10.643h.895l-.49-1.249Zm-20.232,24.322h-2.175v3.344h2.175Zm24.691,8.926,2.98-3.717h-2.98Zm0,2.96v3.583l7.369,7.466-3.048-16.438Zm.545,24.069,11.046,9.757-3.326-17.941Zm11.894,14.331-9.62,11.145,14.195,13.523Zm5.418,29.221L879.967-76.034,897.077-61.4Zm5.762,31.078-14.89,13.01,20.1,15.072Zm5.977,32.243L886.391-4.031l26.143,26Zm-29.6,22.022V7.75l8.935-10.777Zm-24.691,0h-9.56l9.56,11.2ZM818.695-25.062l-8.977,47.043L836.645-4.032Zm22.873-119.864,7.963-7.833v-2.8l-4.256-5.156h-.695Zm5-37.095h.69a.093.093,0,0,1,.093.093v2.275l6.521-16.144-.127-.381a14.9,14.9,0,0,1-6.521,5.341Zm-6-25.373c.347-.778.722-1.52,1.118-2.233l-6.946-1.311c-.027.071-.047.14-.079.212a4.132,4.132,0,0,1-.657,1.034l4.342,12.019A23.647,23.647,0,0,1,840.573-207.394ZM849.3-218.66l1.12-2.1h-.964Zm2.028-27.235,4.721-10.048-2-5.066a2.4,2.4,0,0,1-.772.13h-.835Zm6.466-82.423,1.6,4.968,1.537-3.878v-1.089Zm5.856,0,1.206,3.131v-3.131Zm3.407,6.708h-.444l-.169.541,1.816,4.714-.38-5.255Zm3.179,37.44h-1.41l-.955,2.831,3.548,8.66-.834-11.519a2.6,2.6,0,0,1-.349.027Zm1.79,19.851-3.211,8.377.406.888a2.921,2.921,0,0,1,2.215-1.166h1.176Zm.442,30.372h-.678l-2.019,4.522,2.743,5.271h2.419l-.709-9.792Zm4.007,31.1h-3.267l-2.282,7.051,2.58,6.575c.381-2.415,1.8-4.212,3.5-4.212h.148Zm.533,20.42a2.45,2.45,0,0,1-.905-.182l2.252,5.738-.4-5.556Zm-2.785,14.545v3.361h3.74l-.623-3.359ZM911.113,23.161,885.205-2.6,874.223,10.644V23.16ZM849.531,11.067,837.866-2.6l-26.654,25.75h38.319Z" transform="translate(-381.411 387.215)"/>
        <path id="Path_12297" data-name="Path 12297" d="M821.981,337.428c-.092.654.5,1.191.469,1.863a2.048,2.048,0,0,1-.541,1.581c-.508.635-1.43,1.708-1.43,1.708l-.517.684a4.41,4.41,0,0,1,.356,2.5c-.391.42-2.6,2.215-2.678,2.342.058.469.078.887-.337,1.161-.42.3-4.343,3.493-4.343,3.493a6.04,6.04,0,0,0-1.815,1.552,5.108,5.108,0,0,1-4.353,1.834c-2.122-.185-5.862,1.151-7.947.782a4.822,4.822,0,0,1-1.986,1.493c-.083.79.039,4.479-.518,6.352-.542,1.873-.853,7.7-1.151,9.544.4.391,1.176.888,1.068,1.718a2.34,2.34,0,0,0,.771.1s.761.926,1.141.985,12.793,2.019,14.867,5.737-2.556,6.978-3.42,8.714-3.332,3.952-3.8,4.675c-.489.721-3.083,2.751-4.869,2.654-.186.332.195,1.083.122,1.513s-.82.506-.82.506a1.733,1.733,0,0,1,0,1.445,4.128,4.128,0,0,0,.015.672,16.294,16.294,0,0,0,1.923,1.533c.317.117,2.093,1.268,3.449.917,1.346-.332,1.985.507,1.78,2.03s-2.011,2.128-7.455,2a4.476,4.476,0,0,0-3.083-.9c-.726.03-1.136.908-1.136.908l-3.8-.284a11.651,11.651,0,0,0-1.469-1.776,7.735,7.735,0,0,1,1.689-4.743,21.479,21.479,0,0,0,.214-3.083,24.833,24.833,0,0,0,2.572-2.478,3.874,3.874,0,0,1,2.22-1.5c.03-.45.24-.7.942-1.611.7-.887,2.263-4.215,3.323-5.259-.878.029-6.24-.039-6.24-.039a7.273,7.273,0,0,0-2.352,3.59,144.859,144.859,0,0,0-3.318,15.282c-.181,2.323-.473,5.094-2.234,6.031-1.777.947-5.348,1.337-7.26,0-2.034-1.014-8.855-5.162-12.364-8.772a2,2,0,0,1-2.034-1.4c-.659-.264-1.132-.41-1.132-.41a6.161,6.161,0,0,0-1.474,1.073,2.027,2.027,0,0,0-.415,1.444c0,.459-.18,2.84-.18,2.84a2.2,2.2,0,0,1-1.137,1.259,7.481,7.481,0,0,1-2.356.146,4.626,4.626,0,0,1-2.069-2.468,5.733,5.733,0,0,1-.034-.6l-.425-.321v-.492l.137-.058-.015-.283-.3-.342V404.6l.287-.078-.025-.174-.22-.059a7.843,7.843,0,0,1,.269-2.137.993.993,0,0,1,.287.019,13.157,13.157,0,0,0,1.01-2.692c0-.624,0-1.767,0-1.767l-.352-.058.074-.7.3-.117.039-.2-.185-.137-.049-.537.459-.215-.015-.254h-.092l-.079-.594.44-.332-.039-.537s.614-1.591,3.255-1.433c1.151.068,1.966,1.073,2.59,1.308.908.341,1.42.683,1.63.683.225,0,1.122-.342,1.772.117a13.151,13.151,0,0,1,2.537,2.86c.757.019,2,.966,3.02,2.644a13.95,13.95,0,0,1,5.459,2.4c-.21-1.494-.395-5.407-.878-6.8-.551.068-.835.576-1.083.537s-1.042-.9-1.3-1c-.283-.087-.766.059-.937.019s-.371-.322-.6-.341c-.18.214-.146.809-.59.76-.59-.419-2.668-2.527-2.668-2.527v-4.733s.287-3.679,1.463-4.469a1.432,1.432,0,0,1,.352-.7l1.615.039.634-.342a20.031,20.031,0,0,1,.073-3.328c.2-.643.782-2.615.3-3.854-.478-1.269,1.205-3.9,1.731-4.781.533-.859.873-2.021-.19-2.606-1.059-.564-.386-1.151-.1-1.824a17.1,17.1,0,0,0-.434-5.776c-.4-.869-.771-3.962-1.537-5.26s-.288-5.289.625-6.636,2.932-2.566,2.883-2.849,2.274.244,2.372-.575c.087-.918.3-2.615.3-2.615l1.733-.137.217-1.552a7.861,7.861,0,0,1-1.556-1.679,13.727,13.727,0,0,1-.634-1.853,2.714,2.714,0,0,0-1.552-.695c-1.527-5.923-.141-9.476,3.845-11.329a7.6,7.6,0,0,1,9.758,2.352c1.849,0,4.377.117,5.385.782,1.191.771-1.517,1.865-4.421,2.205.445.868.489.859.787,1.433l-.508.195a3.329,3.329,0,0,1,.234,1.279c.287.651.322.975.575,1.2s-.468,1.042-.829,1.454c0,.537.034,1.249.4,1.552.371.283.76.965.122,1.366a2.74,2.74,0,0,0-.239,1.366,5.042,5.042,0,0,1-.352.439.646.646,0,0,1,.327.489c.025.332-.356.254-.4.409-.015.361.024,1.522.024,1.522s-.146.732-1.322.9a9.054,9.054,0,0,1-1.5.166l-.4.391a18.2,18.2,0,0,0,2.4,1.757c.376.1.648.605,1.317.771s3.005.42,3.005.42a2.313,2.313,0,0,1,1.664-.82,3.36,3.36,0,0,1,2.268-2.266c.776-.976,3.738-4.031,3.738-4.031s.415-.107.585.079c.307-.546.244-.8.8-1.181a19.384,19.384,0,0,0,2.308-2.4c.278-.342,1.366-.986,1.6-1.22a.211.211,0,0,1,.156-.049v-.254h-.43c-.644,0-2.415.215-2.415-.43v-.936c0-.634,1.771-1.815,2.415-1.815h3.826a.931.931,0,0,1,.927.752c.024,0,.034-.01.054-.01h.99a.755.755,0,0,1,.7.459h2.639a7.492,7.492,0,0,0-1.459-2.9c-.025-.644.043-.732.043-.732-.147-.215-.181-.634-.059-.684-.107-.244.1-.878.552-.459a45.466,45.466,0,0,1,2.615,4.773h1.371l2.313.136-2.313.166h-1.273c.229.878.532,1.025.512,1.4.264-.2.695-.731,1.059-.322C822.854,335.964,822.421,336.9,821.981,337.428Zm-8.792,8.236c.01-.029.049-.058.074-.1H809.51c-.337,0-.614-.4-.614-.889s.278-.9.614-.9h.674c0-.01,0-.02,0-.03v-.5a2.337,2.337,0,0,1-1.293.03c-.326.107-.532.575-.532.575a3.611,3.611,0,0,1,.146,1.6,4.13,4.13,0,0,1-1.3,1.279c-.268.174-.361.946-.776,1.415a26.853,26.853,0,0,0-1.966,2.205c-.243.439,1.332-.5,1.433-.83a.611.611,0,0,1,1.112-.108c.337.605.829.849,1.42.059S812.623,346.366,813.189,345.663Zm5.748-11.329h-2.62s.01,0,.01.02a.765.765,0,0,1-.782.77h-1.006a.907.907,0,0,1-.966.888H812.6v.85a5.143,5.143,0,0,1,1.127.565,1.4,1.4,0,0,1,0,.469,1.8,1.8,0,0,1,.268.684,1.365,1.365,0,0,1,.215.829c.317.3.654,1.034.2,1.463-.161.372-.293.217-.293.217s.049.44-.039.489a5.013,5.013,0,0,1-.6.048s.156.966.024,1.122a1.249,1.249,0,0,1-.864.723c-.009-.072-.022-.144-.039-.215v.528h.672c.342,0,.625.4.625.9a1.106,1.106,0,0,1-.034.293c1.225-1.19,3.5-3.17,3.5-3.17a1.321,1.321,0,0,0,.171.322c.4-.429,1.216-1.2,1.293-1.786,0-.911.149-5.213.114-6.005Z" transform="translate(-352.825 -15.633)"/>
      </g>
    </g>
  </g>
</svg>
