<svg xmlns="http://www.w3.org/2000/svg" width="50" height="50" viewBox="0 0 50 50">
  <g id="Group_10770" data-name="Group 10770" transform="translate(5 5)">
    <g id="Path_11027" data-name="Path 11027" transform="translate(0 0)" fill="#fff">
      <path d="M 20 42.5 C 16.96361923217773 42.5 14.01673984527588 41.90475845336914 11.24122047424316 40.73080825805664 C 8.561639785766602 39.59743881225586 6.15565013885498 37.97544860839844 4.090099811553955 35.9099006652832 C 2.024549961090088 33.8443489074707 0.4025599956512451 31.4383602142334 -0.7308099865913391 28.75877952575684 C -1.904760003089905 25.9832592010498 -2.5 23.03638076782227 -2.5 20 C -2.5 16.96361923217773 -1.904760003089905 14.01673984527588 -0.7308099865913391 11.24122047424316 C 0.4025599956512451 8.561639785766602 2.024549961090088 6.15565013885498 4.090099811553955 4.090099811553955 C 6.15565013885498 2.024549961090088 8.561639785766602 0.4025599956512451 11.24122047424316 -0.7308099865913391 C 14.01673984527588 -1.904760003089905 16.96361923217773 -2.5 20 -2.5 C 23.03638076782227 -2.5 25.9832592010498 -1.904760003089905 28.75877952575684 -0.7308099865913391 C 31.4383602142334 0.4025599956512451 33.8443489074707 2.024549961090088 35.9099006652832 4.090099811553955 C 37.97544860839844 6.15565013885498 39.59743881225586 8.561639785766602 40.73080825805664 11.24122047424316 C 41.90475845336914 14.01673984527588 42.5 16.96361923217773 42.5 20 C 42.5 23.03638076782227 41.90475845336914 25.9832592010498 40.73080825805664 28.75877952575684 C 39.59743881225586 31.4383602142334 37.97544860839844 33.8443489074707 35.9099006652832 35.9099006652832 C 33.8443489074707 37.97544860839844 31.4383602142334 39.59743881225586 28.75877952575684 40.73080825805664 C 25.9832592010498 41.90475845336914 23.03638076782227 42.5 20 42.5 Z" stroke="none"/>
      <path d="M 20 0 C 8.954309463500977 0 0 8.954309463500977 0 20 C 0 31.04568862915039 8.954309463500977 40 20 40 C 31.04568862915039 40 40 31.04568862915039 40 20 C 40 8.954309463500977 31.04568862915039 0 20 0 M 20 -5 C 23.37277984619141 -5 26.64731979370117 -4.338310241699219 29.7326602935791 -3.033321380615234 C 32.71023941040039 -1.773910522460938 35.38333129882812 0.02798843383789062 37.67766952514648 2.322330474853516 C 39.97201156616211 4.616668701171875 41.77391052246094 7.289760589599609 43.03332138061523 10.2673397064209 C 44.33831024169922 13.35268020629883 45 16.62722015380859 45 20 C 45 23.37277984619141 44.33831024169922 26.64731979370117 43.03332138061523 29.7326602935791 C 41.77391052246094 32.71023941040039 39.97201156616211 35.38333129882812 37.67766952514648 37.67766952514648 C 35.38333129882812 39.97201156616211 32.71023941040039 41.77391052246094 29.7326602935791 43.03332138061523 C 26.64731979370117 44.33831024169922 23.37277984619141 45 20 45 C 16.62722015380859 45 13.35268020629883 44.33831024169922 10.2673397064209 43.03332138061523 C 7.289760589599609 41.77391052246094 4.616668701171875 39.97201156616211 2.322330474853516 37.67766952514648 C 0.02798843383789062 35.38333129882812 -1.773910522460938 32.71023941040039 -3.033321380615234 29.7326602935791 C -4.338310241699219 26.64731979370117 -5 23.37277984619141 -5 20 C -5 16.62722015380859 -4.338310241699219 13.35268020629883 -3.033321380615234 10.2673397064209 C -1.773910522460938 7.289760589599609 0.02798843383789062 4.616668701171875 2.322330474853516 2.322330474853516 C 4.616668701171875 0.02798843383789062 7.289760589599609 -1.773910522460938 10.2673397064209 -3.033321380615234 C 13.35268020629883 -4.338310241699219 16.62722015380859 -5 20 -5 Z" stroke="none" fill="#4a92b2"/>
    </g>
    <g id="Group_9429" data-name="Group 9429" transform="translate(9.752 5.459)">
      <circle id="Ellipse_144" data-name="Ellipse 144" cx="4.662" cy="4.662" r="4.662" transform="translate(5.184 8.448) rotate(-64.962)" fill="#4a92b2"/>
      <path id="Path_11034" data-name="Path 11034" d="M24.487,42.486a3.732,3.732,0,1,0-2.253-.786l-1.152,2.593-3.2.1s-1.86-3.143-2.907-4.872c-1.414-2.3-5.134-4.846-7.91-2.41-2.724,2.41-3.562,8.355-3.772,12.6a.979.979,0,0,0,.969,1.022h8.382a.984.984,0,0,0,.969-.969V45.577l1.257,2.1a2.176,2.176,0,0,0,.917.838,2.479,2.479,0,0,0,.969.21l5.736-.21a2.1,2.1,0,0,0,2.043-2.2,2.129,2.129,0,0,0-1.6-1.991l.838-1.912A3.438,3.438,0,0,0,24.487,42.486Zm0-5.658a1.964,1.964,0,1,1-1.964,1.964A1.962,1.962,0,0,1,24.487,36.829Z" transform="translate(-3.296 -25.725)" fill="#4a92b2"/>
    </g>
  </g>
</svg>
