<svg id="Group_37" data-name="Group 37" xmlns="http://www.w3.org/2000/svg" width="27.398" height="27.397" viewBox="0 0 27.398 27.397">
  <path id="Path_73" data-name="Path 73" d="M-1118.881,2356.675a12,12,0,0,1-12,12,12,12,0,0,1-12-12,12,12,0,0,1,12-12,12,12,0,0,1,12,12" transform="translate(1144.569 -2343.092)" fill="#24231f" fill-rule="evenodd"/>
  <path id="Path_74" data-name="Path 74" d="M-1125.67,2358.347a3.567,3.567,0,0,1-3.567,3.567h-6.856a3.566,3.566,0,0,1-3.566-3.567v-6.855a3.566,3.566,0,0,1,3.566-3.566h6.856a3.567,3.567,0,0,1,3.567,3.566Zm1.627-6.855a5.194,5.194,0,0,0-5.194-5.193h-6.856a5.194,5.194,0,0,0-5.193,5.193v6.855a5.194,5.194,0,0,0,5.193,5.194h6.856a5.194,5.194,0,0,0,5.194-5.194Zm-8.592,6.267a2.73,2.73,0,0,1-2.727-2.728,2.73,2.73,0,0,1,2.727-2.727,2.73,2.73,0,0,1,2.727,2.727A2.73,2.73,0,0,1-1132.635,2357.758Zm0-6.986a4.263,4.263,0,0,0-4.258,4.258,4.263,4.263,0,0,0,4.258,4.258,4.263,4.263,0,0,0,4.258-4.258A4.263,4.263,0,0,0-1132.635,2350.772Zm4.506-1.3a1.014,1.014,0,0,0-1.014,1.014,1.014,1.014,0,0,0,1.014,1.013,1.014,1.014,0,0,0,1.014-1.013A1.014,1.014,0,0,0-1128.129,2349.473Zm-4.619,19.257a13.715,13.715,0,0,1-13.7-13.7,13.714,13.714,0,0,1,13.7-13.7,13.715,13.715,0,0,1,13.7,13.7,13.715,13.715,0,0,1-13.7,13.7" transform="translate(1146.447 -2341.332)" fill="#04a349" fill-rule="evenodd"/>
</svg>
