<svg id="Group_38" data-name="Group 38" xmlns="http://www.w3.org/2000/svg" width="27.578" height="27.577" viewBox="0 0 27.578 27.577">
  <path id="Path_71" data-name="Path 71" d="M-1132.848,2299.668a13.8,13.8,0,0,1-13.789-13.788,13.8,13.8,0,0,1,13.789-13.789,13.8,13.8,0,0,1,13.789,13.789,13.8,13.8,0,0,1-13.789,13.788" transform="translate(1146.637 -2272.091)" fill="#04a349" fill-rule="evenodd"/>
  <g id="Group_12052" data-name="Group 12052" transform="translate(7.447 8.321)">
    <g id="Group_7584" data-name="Group 7584" transform="translate(0.175 3.702)">
      <g id="Group_7583" data-name="Group 7583">
        <g id="Group_7582" data-name="Group 7582">
          <path id="Path_9960" data-name="Path 9960" d="M510.8,737.51v4.421a.2.2,0,0,1-.2.2H508.32a.2.2,0,0,1-.2-.2V737.82c0-1.082-.387-1.821-1.356-1.821a1.465,1.465,0,0,0-1.374.979,1.836,1.836,0,0,0-.089.652v4.3a.2.2,0,0,1-.2.2h-2.281a.2.2,0,0,1-.2-.2c0-1.095.028-6.407,0-7.656a.2.2,0,0,1,.2-.2h2.277a.2.2,0,0,1,.2.2v.944c-.005.009-.013.018-.018.026h.018v-.026a2.658,2.658,0,0,1,2.413-1.33c1.762,0,3.083,1.151,3.083,3.624Zm-12.135,4.619h2.282a.2.2,0,0,0,.2-.2v-7.659a.2.2,0,0,0-.2-.2h-2.282a.2.2,0,0,0-.2.2v7.659A.2.2,0,0,0,498.665,742.129Z" transform="translate(-498.468 -733.886)" fill="#24231f"/>
        </g>
      </g>
    </g>
    <g id="Group_7585" data-name="Group 7585">
      <path id="Path_9961" data-name="Path 9961" d="M500.912,726.375a1.433,1.433,0,1,1-1.433-1.434A1.434,1.434,0,0,1,500.912,726.375Z" transform="translate(-498.045 -724.942)" fill="#24231f"/>
    </g>
  </g>
</svg>
