<svg id="logo" xmlns="http://www.w3.org/2000/svg" width="263" height="36.951" viewBox="0 0 263 36.951">
  <path id="Path_10512" data-name="Path 10512" d="M257.4,298.357h6.14a6.5,6.5,0,0,0,3.283-.63,1.928,1.928,0,0,0,1.023-1.708,1.829,1.829,0,0,0-.458-1.216,3.036,3.036,0,0,0-1.42-.846,8.772,8.772,0,0,0-2.581-.307H257.4Zm-4.123,11.077v-19.17h10.079a13.529,13.529,0,0,1,4.734.724A6.3,6.3,0,0,1,271,293a4.773,4.773,0,0,1,.977,2.955,4.54,4.54,0,0,1-.718,2.522,5.535,5.535,0,0,1-2.031,1.831,9.843,9.843,0,0,1-2.994,1.031l6.536,8.092h-4.673l-6.231-7.754H257.4v7.754Z" transform="translate(-203.505 -280.799)" fill="#05a34a"/>
  <path id="Path_10513" data-name="Path 10513" d="M303.774,307.776a6.83,6.83,0,0,1-2.489-5.653V290.264h4.338v.277a.913.913,0,0,0-.2.4,4,4,0,0,0-.046.736v10.473a4,4,0,0,0,1.359,3.179,6.225,6.225,0,0,0,4.169,1.182q3.023,0,4.337-1.182a4.178,4.178,0,0,0,1.314-3.271V290.264h4V302.03a7.344,7.344,0,0,1-1.237,4.394,7.172,7.172,0,0,1-3.421,2.534,14.333,14.333,0,0,1-5.024.815q-4.612,0-7.1-2" transform="translate(-224.021 -280.799)" fill="#05a34a"/>
  <path id="Path_10514" data-name="Path 10514" d="M353.948,309.1a12.4,12.4,0,0,1-4.123-1.754l2.077-3.077.152-.277.245.154a1.031,1.031,0,0,0,.2.415,3.163,3.163,0,0,0,.565.478,10.87,10.87,0,0,0,2.779.969,17.079,17.079,0,0,0,3.635.354,16.652,16.652,0,0,0,2.2-.135,9.344,9.344,0,0,0,1.756-.391,3.038,3.038,0,0,0,1.161-.661,1.255,1.255,0,0,0,.413-.916,1.205,1.205,0,0,0-.184-.656,2.162,2.162,0,0,0-.595-.579,5.613,5.613,0,0,0-1.161-.579q-.749-.289-1.832-.64t-2.612-.808a25.37,25.37,0,0,1-4.688-1.692,6.352,6.352,0,0,1-2.413-1.921,4.2,4.2,0,0,1-.718-2.424,3.478,3.478,0,0,1,1.13-2.606,7.69,7.69,0,0,1,3.147-1.692,16.175,16.175,0,0,1,4.673-.609,17.3,17.3,0,0,1,3.222.291,15.93,15.93,0,0,1,2.871.816,9.076,9.076,0,0,1,2.367,1.353l-2.138,2.646-.184.247-.214-.185a.8.8,0,0,0-.168-.415,3.059,3.059,0,0,0-.5-.446,7.566,7.566,0,0,0-2.489-.785,21.172,21.172,0,0,0-3.009-.2,15.4,15.4,0,0,0-1.894.107,7.194,7.194,0,0,0-1.466.319,2.586,2.586,0,0,0-.932.517.941.941,0,0,0-.321.7,1.087,1.087,0,0,0,.168.578,1.852,1.852,0,0,0,.6.548,7.263,7.263,0,0,0,1.191.577q.764.3,1.925.67t2.81.821a29.787,29.787,0,0,1,3.6,1.278,10.151,10.151,0,0,1,2.29,1.339,4.245,4.245,0,0,1,1.221,1.505,4.321,4.321,0,0,1,.367,1.81,4.207,4.207,0,0,1-1.039,2.723,7.174,7.174,0,0,1-3.238,2.039,17.275,17.275,0,0,1-5.651.776,22.031,22.031,0,0,1-5.193-.585" transform="translate(-244.766 -280.708)" fill="#05a34a"/>
  <path id="Path_10515" data-name="Path 10515" d="M399.622,306.7q2.536-1.71,4.627-3.025t3.742-2.352q1.649-1.039,2.764-1.91a8.071,8.071,0,0,0,1.695-1.712,3.092,3.092,0,0,0,.581-1.788,2.156,2.156,0,0,0-.29-1.145,2.063,2.063,0,0,0-.886-.764,5.577,5.577,0,0,0-1.466-.443,11.658,11.658,0,0,0-2-.153,14.95,14.95,0,0,0-2.306.17,10.88,10.88,0,0,0-1.985.491,6.145,6.145,0,0,0-1.6.847,2.882,2.882,0,0,0-.474.569.929.929,0,0,0-.107.446l-.183.184-.214-.215-2.565-2.246a10.182,10.182,0,0,1,2.4-1.923,11.687,11.687,0,0,1,3.162-1.247,16.424,16.424,0,0,1,3.879-.43,13.762,13.762,0,0,1,4.4.657,7.283,7.283,0,0,1,3.1,1.9,4.279,4.279,0,0,1,1.146,3.014,5.559,5.559,0,0,1-.458,2.264,7.732,7.732,0,0,1-1.314,2A15.88,15.88,0,0,1,413.2,301.8q-1.208.949-2.719,1.989t-3.314,2.233h8.583a2.984,2.984,0,0,0,.733-.062.924.924,0,0,0,.4-.246h.244v3.63h-17.5Z" transform="translate(-265.761 -280.708)" fill="#24241f"/>
  <path id="Path_10516" data-name="Path 10516" d="M450.942,306.265h4.917a18.337,18.337,0,0,0,3.452-.277,5.263,5.263,0,0,0,2.123-.816,1.619,1.619,0,0,0,.718-1.339,1.972,1.972,0,0,0-.779-1.57,5.522,5.522,0,0,0-2.352-.984,19.121,19.121,0,0,0-3.924-.338h-4.154Zm0-8.431h3.97a19.662,19.662,0,0,0,3.589-.262,4.287,4.287,0,0,0,1.97-.785,1.607,1.607,0,0,0,.61-1.262,1.276,1.276,0,0,0-.336-.892,2.763,2.763,0,0,0-1.039-.646,8.036,8.036,0,0,0-1.772-.431,18.183,18.183,0,0,0-2.535-.153h-4.459Zm-4.093,11.6v-19.17h8.521a26.6,26.6,0,0,1,4.613.34,9.726,9.726,0,0,1,3.039.983,4.359,4.359,0,0,1,1.665,1.524,3.707,3.707,0,0,1,.519,1.923,4.369,4.369,0,0,1-.382,1.785,3.975,3.975,0,0,1-1.161,1.492,4.8,4.8,0,0,1-1.97.908,9.272,9.272,0,0,1,1.894.723,6.425,6.425,0,0,1,1.482,1.046,4.281,4.281,0,0,1,.962,1.354,3.928,3.928,0,0,1,.336,1.616,4.271,4.271,0,0,1-2.5,4.077,11.471,11.471,0,0,1-3.405,1.046,31.625,31.625,0,0,1-5.147.353Z" transform="translate(-286.231 -280.799)" fill="#05a34a"/>
  <path id="Path_10517" data-name="Path 10517" d="M497.735,309.434v-3.323h5.895V293.588h-5.589v-3.324h15.271v3.324H507.6v12.554h5.986v3.292Z" transform="translate(-307.979 -280.799)" fill="#05a34a"/>
  <path id="Path_10518" data-name="Path 10518" d="M544.94,290.264h4.49v.278a.8.8,0,0,0-.229.4,4.02,4.02,0,0,0-.046.739v14.462h14.2v3.293H544.94Z" transform="translate(-328.153 -280.799)" fill="#05a34a"/>
  <path id="Path_10519" data-name="Path 10519" d="M593.479,290.264h4.489v.278a.808.808,0,0,0-.229.4,4.025,4.025,0,0,0-.046.739v14.462h14.2v3.293H593.479Z" transform="translate(-348.897 -280.799)" fill="#05a34a"/>
  <path id="Path_10520" data-name="Path 10520" d="M193.005,306.513h-21.7v-9.792h5.809v3.906h11.833l-.885-1.67,3.584-3.842,6.228,11.4Zm-21.7-22.72v-5.885H194.3l-6.664,9.865,2.7,4.992-3.594,3.872-4.91-8.864,2.688-3.979h-7.4v7.356h-5.809Zm-4.949,26.892h36.467V273.735H166.357Z" transform="translate(-166.357 -273.735)" fill="#24241f"/>
</svg>
