<svg xmlns="http://www.w3.org/2000/svg" width="53.137" height="39.675" viewBox="0 0 53.137 39.675">
  <g id="noun-progress-report-1453110" transform="translate(-3.3 -18.581)">
    <g id="Group_10795" data-name="Group 10795" transform="translate(3.3 18.581)">
      <path id="Path_12708" data-name="Path 12708" d="M71.966,18.589l-12.289,3.98c-.219.044-.131.35.087.394l4.024.831L52.374,41.462,43.1,36.914l-1.4.787L31.6,43.168l1.312,2.493,9.8-4.636,9.272,6.6,2.055,1.312L55.741,46.8,70,28.735,71.66,31.8c.131.219.394.175.437,0l.262-12.9A.341.341,0,0,0,71.966,18.589Z" transform="translate(-19.223 -18.581)" fill="#58a77a"/>
      <path id="Path_12709" data-name="Path 12709" d="M50.795,66.578a2.494,2.494,0,0,0,.044-.569V51.184l-3.455,4.373V66.534h-13.3a2.082,2.082,0,0,1-2.1,2.012H27.31a2.113,2.113,0,0,1-2.1-2.012h-13.3V44.668H38.593L40.78,41.3H12.091a3.768,3.768,0,0,0-3.63,3.892V65.966a2.31,2.31,0,0,0,.044.569H3.3v.612a3.74,3.74,0,0,0,3.63,3.892H52.282a3.768,3.768,0,0,0,3.63-3.892v-.612H50.795Z" transform="translate(-3.3 -31.364)"/>
    </g>
  </g>
</svg>
