<svg xmlns="http://www.w3.org/2000/svg" width="384" height="387" viewBox="0 0 384 387">
  <g id="Group_10509" data-name="Group 10509" transform="translate(-6022 -2620)">
    <g id="Group_9444" data-name="Group 9444" transform="translate(6022 2619.779)">
      <rect id="Rectangle_3168" data-name="Rectangle 3168" width="384" height="387" rx="14" transform="translate(0 0.221)" fill="#fff"/>
      <path id="Rectangle_3261" data-name="Rectangle 3261" d="M14,0H370a14,14,0,0,1,14,14V88a0,0,0,0,1,0,0H0a0,0,0,0,1,0,0V14A14,14,0,0,1,14,0Z" transform="translate(0 0.221)" fill="#e36767"/>
      <rect id="Rectangle_3171" data-name="Rectangle 3171" width="209" height="7" rx="3.5" transform="translate(133 146.221)" fill="#edf2e9"/>
      <rect id="Rectangle_3172" data-name="Rectangle 3172" width="209" height="7" rx="3.5" transform="translate(133 210.221)" fill="#edf2e9"/>
      <rect id="Rectangle_3175" data-name="Rectangle 3175" width="209" height="7" rx="3.5" transform="translate(133 274.221)" fill="#edf2e9"/>
      <rect id="Rectangle_3177" data-name="Rectangle 3177" width="209" height="7" rx="3.5" transform="translate(133 338.221)" fill="#edf2e9"/>
      <g id="Group_8763" data-name="Group 8763" transform="translate(33.671 114.109)">
        <rect id="Rectangle_841" data-name="Rectangle 841" width="87" height="40" rx="8" transform="translate(0.329 0.113)" fill="#edf2e9"/>
        <path id="Path_12289" data-name="Path 12289" d="M-16.007-10.664h2.2v7.383a3.531,3.531,0,0,1-.45,1.8,3.057,3.057,0,0,1-1.271,1.2,3.97,3.97,0,0,1-1.853.425,3.773,3.773,0,0,1-2.637-.861,3.127,3.127,0,0,1-.945-2.435h2.212a1.715,1.715,0,0,0,.33,1.157,1.319,1.319,0,0,0,1.04.374,1.259,1.259,0,0,0,1-.432,1.826,1.826,0,0,0,.374-1.23ZM-12.4-4.036a4.7,4.7,0,0,1,.454-2.1,3.324,3.324,0,0,1,1.307-1.428,3.814,3.814,0,0,1,1.981-.505,3.609,3.609,0,0,1,2.618.981A3.939,3.939,0,0,1-4.9-4.424l.015.542A4.142,4.142,0,0,1-5.907-.956,3.539,3.539,0,0,1-8.639.146a3.556,3.556,0,0,1-2.736-1.1A4.215,4.215,0,0,1-12.4-3.94Zm2.117.154a2.954,2.954,0,0,0,.425,1.725,1.4,1.4,0,0,0,1.216.6,1.405,1.405,0,0,0,1.2-.59,3.233,3.233,0,0,0,.432-1.886A2.925,2.925,0,0,0-7.438-5.75a1.405,1.405,0,0,0-1.216-.608,1.382,1.382,0,0,0-1.2.6A3.287,3.287,0,0,0-10.28-3.882ZM3.556-3.889a4.8,4.8,0,0,1-.813,2.97A2.693,2.693,0,0,1,.472.146,2.474,2.474,0,0,1-1.586-.842l-.1.842h-1.9V-11.25h2.117v4.036A2.411,2.411,0,0,1,.458-8.071,2.715,2.715,0,0,1,2.732-7.006a4.806,4.806,0,0,1,.824,3ZM1.439-4.043A3.153,3.153,0,0,0,1.058-5.8,1.288,1.288,0,0,0-.077-6.35a1.4,1.4,0,0,0-1.392.828V-2.4A1.415,1.415,0,0,0-.062-1.56,1.307,1.307,0,0,0,1.285-2.571,5.214,5.214,0,0,0,1.439-4.043Zm10.51-.366a5.4,5.4,0,0,1-.916,3.384A3.2,3.2,0,0,1,8.353.146,3.218,3.218,0,0,1,5.687-1a5.244,5.244,0,0,1-.945-3.3V-6.262a5.331,5.331,0,0,1,.927-3.391,3.22,3.22,0,0,1,2.67-1.157A3.223,3.223,0,0,1,11-9.664a5.228,5.228,0,0,1,.945,3.292ZM9.833-6.562a3.9,3.9,0,0,0-.363-1.93,1.225,1.225,0,0,0-1.132-.6,1.2,1.2,0,0,0-1.1.575,3.648,3.648,0,0,0-.377,1.8v2.593a4.092,4.092,0,0,0,.355,1.937,1.209,1.209,0,0,0,1.139.634,1.189,1.189,0,0,0,1.121-.608,3.994,3.994,0,0,0,.359-1.86ZM18.519,0H16.4V-8.159l-2.527.784V-9.1l4.417-1.582h.227Z" transform="translate(41.294 25.113)" fill="#24231f"/>
      </g>
      <g id="Group_9441" data-name="Group 9441" transform="translate(33.671 178.645)">
        <rect id="Rectangle_841-2" data-name="Rectangle 841" width="87" height="41" rx="8" transform="translate(0.329 -0.424)" fill="#edf2e9"/>
        <path id="Path_12294" data-name="Path 12294" d="M-16.007-10.664h2.2v7.383a3.531,3.531,0,0,1-.45,1.8,3.057,3.057,0,0,1-1.271,1.2,3.97,3.97,0,0,1-1.853.425,3.773,3.773,0,0,1-2.637-.861,3.127,3.127,0,0,1-.945-2.435h2.212a1.715,1.715,0,0,0,.33,1.157,1.319,1.319,0,0,0,1.04.374,1.259,1.259,0,0,0,1-.432,1.826,1.826,0,0,0,.374-1.23ZM-12.4-4.036a4.7,4.7,0,0,1,.454-2.1,3.324,3.324,0,0,1,1.307-1.428,3.814,3.814,0,0,1,1.981-.505,3.609,3.609,0,0,1,2.618.981A3.939,3.939,0,0,1-4.9-4.424l.015.542A4.142,4.142,0,0,1-5.907-.956,3.539,3.539,0,0,1-8.639.146a3.556,3.556,0,0,1-2.736-1.1A4.215,4.215,0,0,1-12.4-3.94Zm2.117.154a2.954,2.954,0,0,0,.425,1.725,1.4,1.4,0,0,0,1.216.6,1.405,1.405,0,0,0,1.2-.59,3.233,3.233,0,0,0,.432-1.886A2.925,2.925,0,0,0-7.438-5.75a1.405,1.405,0,0,0-1.216-.608,1.382,1.382,0,0,0-1.2.6A3.287,3.287,0,0,0-10.28-3.882ZM3.556-3.889a4.8,4.8,0,0,1-.813,2.97A2.693,2.693,0,0,1,.472.146,2.474,2.474,0,0,1-1.586-.842l-.1.842h-1.9V-11.25h2.117v4.036A2.411,2.411,0,0,1,.458-8.071,2.715,2.715,0,0,1,2.732-7.006a4.806,4.806,0,0,1,.824,3ZM1.439-4.043A3.153,3.153,0,0,0,1.058-5.8,1.288,1.288,0,0,0-.077-6.35a1.4,1.4,0,0,0-1.392.828V-2.4A1.415,1.415,0,0,0-.062-1.56,1.307,1.307,0,0,0,1.285-2.571,5.214,5.214,0,0,0,1.439-4.043ZM12.081,0H4.772V-1.45l3.45-3.677A8.51,8.51,0,0,0,9.272-6.482a2.177,2.177,0,0,0,.341-1.1A1.629,1.629,0,0,0,9.254-8.7,1.3,1.3,0,0,0,8.229-9.1,1.4,1.4,0,0,0,7.1-8.61a1.958,1.958,0,0,0-.414,1.3H4.559a3.5,3.5,0,0,1,.465-1.78,3.278,3.278,0,0,1,1.315-1.263,4,4,0,0,1,1.926-.458,3.784,3.784,0,0,1,2.56.791,2.8,2.8,0,0,1,.912,2.234,3.586,3.586,0,0,1-.41,1.611A8.954,8.954,0,0,1,9.921-4.263L7.5-1.707h4.585Zm6.438,0H16.4V-8.159l-2.527.784V-9.1l4.417-1.582h.227Z" transform="translate(41.294 25.576)" fill="#24231f"/>
      </g>
      <g id="Group_9442" data-name="Group 9442" transform="translate(33.671 242.247)">
        <rect id="Rectangle_841-3" data-name="Rectangle 841" width="87" height="40" rx="8" transform="translate(0.329 -0.026)" fill="#edf2e9"/>
        <path id="Path_12295" data-name="Path 12295" d="M-16.007-10.664h2.2v7.383a3.531,3.531,0,0,1-.45,1.8,3.057,3.057,0,0,1-1.271,1.2,3.97,3.97,0,0,1-1.853.425,3.773,3.773,0,0,1-2.637-.861,3.127,3.127,0,0,1-.945-2.435h2.212a1.715,1.715,0,0,0,.33,1.157,1.319,1.319,0,0,0,1.04.374,1.259,1.259,0,0,0,1-.432,1.826,1.826,0,0,0,.374-1.23ZM-12.4-4.036a4.7,4.7,0,0,1,.454-2.1,3.324,3.324,0,0,1,1.307-1.428,3.814,3.814,0,0,1,1.981-.505,3.609,3.609,0,0,1,2.618.981A3.939,3.939,0,0,1-4.9-4.424l.015.542A4.142,4.142,0,0,1-5.907-.956,3.539,3.539,0,0,1-8.639.146a3.556,3.556,0,0,1-2.736-1.1A4.215,4.215,0,0,1-12.4-3.94Zm2.117.154a2.954,2.954,0,0,0,.425,1.725,1.4,1.4,0,0,0,1.216.6,1.405,1.405,0,0,0,1.2-.59,3.233,3.233,0,0,0,.432-1.886A2.925,2.925,0,0,0-7.438-5.75a1.405,1.405,0,0,0-1.216-.608,1.382,1.382,0,0,0-1.2.6A3.287,3.287,0,0,0-10.28-3.882ZM3.556-3.889a4.8,4.8,0,0,1-.813,2.97A2.693,2.693,0,0,1,.472.146,2.474,2.474,0,0,1-1.586-.842l-.1.842h-1.9V-11.25h2.117v4.036A2.411,2.411,0,0,1,.458-8.071,2.715,2.715,0,0,1,2.732-7.006a4.806,4.806,0,0,1,.824,3ZM1.439-4.043A3.153,3.153,0,0,0,1.058-5.8,1.288,1.288,0,0,0-.077-6.35a1.4,1.4,0,0,0-1.392.828V-2.4A1.415,1.415,0,0,0-.062-1.56,1.307,1.307,0,0,0,1.285-2.571,5.214,5.214,0,0,0,1.439-4.043ZM12.081,0H4.772V-1.45l3.45-3.677A8.51,8.51,0,0,0,9.272-6.482a2.177,2.177,0,0,0,.341-1.1A1.629,1.629,0,0,0,9.254-8.7,1.3,1.3,0,0,0,8.229-9.1,1.4,1.4,0,0,0,7.1-8.61a1.958,1.958,0,0,0-.414,1.3H4.559a3.5,3.5,0,0,1,.465-1.78,3.278,3.278,0,0,1,1.315-1.263,4,4,0,0,1,1.926-.458,3.784,3.784,0,0,1,2.56.791,2.8,2.8,0,0,1,.912,2.234,3.586,3.586,0,0,1-.41,1.611A8.954,8.954,0,0,1,9.921-4.263L7.5-1.707h4.585Zm1.611-5.244.615-5.42h5.977V-8.9H16.044L15.78-6.606a3.356,3.356,0,0,1,1.6-.4,3.074,3.074,0,0,1,2.388.945,3.774,3.774,0,0,1,.864,2.644A3.866,3.866,0,0,1,20.2-1.571,3.076,3.076,0,0,1,18.951-.3a3.9,3.9,0,0,1-1.919.45,4.14,4.14,0,0,1-1.794-.392,3.183,3.183,0,0,1-1.307-1.1,3,3,0,0,1-.509-1.619h2.095a1.565,1.565,0,0,0,.465,1.036,1.474,1.474,0,0,0,1.044.37,1.3,1.3,0,0,0,1.106-.516,2.392,2.392,0,0,0,.388-1.461,1.978,1.978,0,0,0-.447-1.392,1.64,1.64,0,0,0-1.267-.483,1.832,1.832,0,0,0-1.223.4l-.205.19Z" transform="translate(41.294 24.974)" fill="#24231f"/>
      </g>
      <g id="Group_9443" data-name="Group 9443" transform="translate(33.671 306.784)">
        <rect id="Rectangle_841-4" data-name="Rectangle 841" width="87" height="40" rx="8" transform="translate(0.329 0.437)" fill="#edf2e9"/>
        <path id="Path_12300" data-name="Path 12300" d="M-16.007-10.664h2.2v7.383a3.531,3.531,0,0,1-.45,1.8,3.057,3.057,0,0,1-1.271,1.2,3.97,3.97,0,0,1-1.853.425,3.773,3.773,0,0,1-2.637-.861,3.127,3.127,0,0,1-.945-2.435h2.212a1.715,1.715,0,0,0,.33,1.157,1.319,1.319,0,0,0,1.04.374,1.259,1.259,0,0,0,1-.432,1.826,1.826,0,0,0,.374-1.23ZM-12.4-4.036a4.7,4.7,0,0,1,.454-2.1,3.324,3.324,0,0,1,1.307-1.428,3.814,3.814,0,0,1,1.981-.505,3.609,3.609,0,0,1,2.618.981A3.939,3.939,0,0,1-4.9-4.424l.015.542A4.142,4.142,0,0,1-5.907-.956,3.539,3.539,0,0,1-8.639.146a3.556,3.556,0,0,1-2.736-1.1A4.215,4.215,0,0,1-12.4-3.94Zm2.117.154a2.954,2.954,0,0,0,.425,1.725,1.4,1.4,0,0,0,1.216.6,1.405,1.405,0,0,0,1.2-.59,3.233,3.233,0,0,0,.432-1.886A2.925,2.925,0,0,0-7.438-5.75a1.405,1.405,0,0,0-1.216-.608,1.382,1.382,0,0,0-1.2.6A3.287,3.287,0,0,0-10.28-3.882ZM3.556-3.889a4.8,4.8,0,0,1-.813,2.97A2.693,2.693,0,0,1,.472.146,2.474,2.474,0,0,1-1.586-.842l-.1.842h-1.9V-11.25h2.117v4.036A2.411,2.411,0,0,1,.458-8.071,2.715,2.715,0,0,1,2.732-7.006a4.806,4.806,0,0,1,.824,3ZM1.439-4.043A3.153,3.153,0,0,0,1.058-5.8,1.288,1.288,0,0,0-.077-6.35a1.4,1.4,0,0,0-1.392.828V-2.4A1.415,1.415,0,0,0-.062-1.56,1.307,1.307,0,0,0,1.285-2.571,5.214,5.214,0,0,0,1.439-4.043ZM6.925-6.27H8.053a1.589,1.589,0,0,0,1.194-.4,1.476,1.476,0,0,0,.388-1.069,1.305,1.305,0,0,0-.385-1A1.49,1.49,0,0,0,8.192-9.1a1.562,1.562,0,0,0-1.018.333,1.066,1.066,0,0,0-.41.868H4.647A2.6,2.6,0,0,1,5.1-9.4a3,3,0,0,1,1.26-1.036,4.2,4.2,0,0,1,1.783-.374A3.987,3.987,0,0,1,10.792-10a2.761,2.761,0,0,1,.959,2.23A2.244,2.244,0,0,1,11.3-6.423a2.9,2.9,0,0,1-1.172.945,2.65,2.65,0,0,1,1.344.967,2.623,2.623,0,0,1,.443,1.523A2.807,2.807,0,0,1,10.884-.71,4.167,4.167,0,0,1,8.141.146,3.951,3.951,0,0,1,5.53-.7,2.751,2.751,0,0,1,4.515-2.922H6.632a1.226,1.226,0,0,0,.45.981,1.66,1.66,0,0,0,1.11.381,1.668,1.668,0,0,0,1.183-.4A1.378,1.378,0,0,0,9.8-3.018q0-1.6-1.758-1.6H6.925Zm8.606,0h1.128a1.589,1.589,0,0,0,1.194-.4,1.476,1.476,0,0,0,.388-1.069,1.305,1.305,0,0,0-.385-1A1.49,1.49,0,0,0,16.8-9.1a1.562,1.562,0,0,0-1.018.333,1.066,1.066,0,0,0-.41.868H13.253a2.6,2.6,0,0,1,.45-1.5,3,3,0,0,1,1.26-1.036,4.2,4.2,0,0,1,1.783-.374A3.987,3.987,0,0,1,19.4-10a2.761,2.761,0,0,1,.959,2.23,2.244,2.244,0,0,1-.447,1.348,2.9,2.9,0,0,1-1.172.945,2.65,2.65,0,0,1,1.344.967,2.623,2.623,0,0,1,.443,1.523A2.807,2.807,0,0,1,19.49-.71a4.167,4.167,0,0,1-2.743.857A3.951,3.951,0,0,1,14.136-.7a2.751,2.751,0,0,1-1.014-2.227h2.117a1.226,1.226,0,0,0,.45.981,1.66,1.66,0,0,0,1.11.381,1.668,1.668,0,0,0,1.183-.4,1.378,1.378,0,0,0,.428-1.058q0-1.6-1.758-1.6H15.531Z" transform="translate(41.294 25.437)" fill="#24231f"/>
      </g>
      <g id="noun_Cursor_183251" transform="translate(247.665 35.96)">
        <path id="Path_11011" data-name="Path 11011" d="M77.84,50.518l-17.759,7.91a1.742,1.742,0,0,0-.9.9L51.35,77.156c-.746,1.716-3.507,1.194-4.253-.9L31.651,33.5a1.839,1.839,0,0,1,2.462-2.462l42.831,15.3C79.034,47.01,79.556,49.771,77.84,50.518Z" transform="translate(-15.046 -15.241)" fill="#202121"/>
      </g>
      <rect id="Rectangle_3257" data-name="Rectangle 3257" width="45" height="11" rx="5.5" transform="translate(133 143.221)" fill="#7caf82"/>
      <rect id="Rectangle_3258" data-name="Rectangle 3258" width="105" height="12" rx="6" transform="translate(133 207.221)" fill="#7caf82"/>
      <rect id="Rectangle_3259" data-name="Rectangle 3259" width="62" height="11" rx="5.5" transform="translate(133 271.221)" fill="#7caf82"/>
      <rect id="Rectangle_3260" data-name="Rectangle 3260" width="43" height="11" rx="5.5" transform="translate(133 336.221)" fill="#7caf82"/>
      <path id="Path_12290" data-name="Path 12290" d="M-14.043-8.777h1.579a2.225,2.225,0,0,0,1.671-.564,2.067,2.067,0,0,0,.543-1.5,1.827,1.827,0,0,0-.538-1.4,2.086,2.086,0,0,0-1.482-.5,2.187,2.187,0,0,0-1.425.467,1.492,1.492,0,0,0-.574,1.215h-2.963a3.644,3.644,0,0,1,.631-2.1,4.2,4.2,0,0,1,1.764-1.451,5.886,5.886,0,0,1,2.5-.523A5.582,5.582,0,0,1-8.629-14a3.866,3.866,0,0,1,1.343,3.122,3.141,3.141,0,0,1-.625,1.887A4.064,4.064,0,0,1-9.552-7.67,3.71,3.71,0,0,1-7.67-6.316a3.672,3.672,0,0,1,.62,2.133A3.93,3.93,0,0,1-8.5-.995a5.834,5.834,0,0,1-3.84,1.2A5.531,5.531,0,0,1-16-.974a3.851,3.851,0,0,1-1.42-3.117h2.963a1.717,1.717,0,0,0,.631,1.374,2.324,2.324,0,0,0,1.553.533,2.335,2.335,0,0,0,1.656-.559,1.929,1.929,0,0,0,.6-1.482q0-2.235-2.461-2.235h-1.569ZM3.03-15.083v2.44H2.743A5.034,5.034,0,0,0-.492-11.6a4.249,4.249,0,0,0-1.471,2.82,4.036,4.036,0,0,1,3-1.21,3.8,3.8,0,0,1,3.1,1.395A5.59,5.59,0,0,1,5.286-4.922a5.5,5.5,0,0,1-.631,2.635A4.523,4.523,0,0,1,2.871-.451,5.183,5.183,0,0,1,.261.205,4.841,4.841,0,0,1-3.548-1.436,6.368,6.368,0,0,1-5-5.814V-6.88a9.584,9.584,0,0,1,.918-4.291,6.729,6.729,0,0,1,2.635-2.881,7.722,7.722,0,0,1,3.984-1.031ZM.138-7.608a2.364,2.364,0,0,0-1.3.374,2.254,2.254,0,0,0-.861.99v.9A4,4,0,0,0-1.441-3.02,1.888,1.888,0,0,0,.2-2.184a1.867,1.867,0,0,0,1.543-.754,3.078,3.078,0,0,0,.59-1.953A3.072,3.072,0,0,0,1.738-6.86,1.937,1.937,0,0,0,.138-7.608ZM16.77-10.961a3.473,3.473,0,0,1-.543,1.928,3.912,3.912,0,0,1-1.5,1.343A4.33,4.33,0,0,1,16.452-6.25a3.7,3.7,0,0,1,.636,2.158A3.913,3.913,0,0,1,15.735-.948,5.49,5.49,0,0,1,12.053.205,5.515,5.515,0,0,1,8.362-.954,3.9,3.9,0,0,1,7-4.091a3.719,3.719,0,0,1,.636-2.164A4.251,4.251,0,0,1,9.346-7.69,3.871,3.871,0,0,1,7.854-9.034a3.5,3.5,0,0,1-.538-1.928A3.87,3.87,0,0,1,8.588-14a5.006,5.006,0,0,1,3.456-1.133,5.039,5.039,0,0,1,3.45,1.123A3.855,3.855,0,0,1,16.77-10.961ZM14.115-4.307a2.15,2.15,0,0,0-.564-1.559,2.011,2.011,0,0,0-1.518-.584,2.007,2.007,0,0,0-1.507.579,2.146,2.146,0,0,0-.564,1.564,2.144,2.144,0,0,0,.554,1.538,2.017,2.017,0,0,0,1.538.584,2.012,2.012,0,0,0,1.512-.564A2.141,2.141,0,0,0,14.115-4.307Zm-.308-6.511a2.051,2.051,0,0,0-.461-1.4,1.637,1.637,0,0,0-1.3-.528,1.649,1.649,0,0,0-1.292.513,2.039,2.039,0,0,0-.461,1.415,2.143,2.143,0,0,0,.461,1.436,1.615,1.615,0,0,0,1.3.543,1.6,1.6,0,0,0,1.3-.543A2.159,2.159,0,0,0,13.807-10.818Z" transform="translate(151 135.221)" fill="#7caf82"/>
      <path id="Path_12296" data-name="Path 12296" d="M-16.616-7.342l.861-7.588h8.367v2.471h-5.937l-.369,3.209a4.7,4.7,0,0,1,2.246-.564A4.3,4.3,0,0,1-8.106-8.49a5.284,5.284,0,0,1,1.21,3.7A5.413,5.413,0,0,1-7.506-2.2,4.306,4.306,0,0,1-9.254-.426a5.458,5.458,0,0,1-2.687.631,5.8,5.8,0,0,1-2.512-.549,4.456,4.456,0,0,1-1.83-1.543A4.206,4.206,0,0,1-17-4.153h2.933A2.19,2.19,0,0,0-13.412-2.7a2.064,2.064,0,0,0,1.461.518A1.822,1.822,0,0,0-10.4-2.907a3.349,3.349,0,0,0,.543-2.046A2.769,2.769,0,0,0-10.485-6.9a2.3,2.3,0,0,0-1.774-.677,2.565,2.565,0,0,0-1.712.554l-.287.267ZM3.03-15.083v2.44H2.743A5.034,5.034,0,0,0-.492-11.6a4.249,4.249,0,0,0-1.471,2.82,4.036,4.036,0,0,1,3-1.21,3.8,3.8,0,0,1,3.1,1.395A5.59,5.59,0,0,1,5.286-4.922a5.5,5.5,0,0,1-.631,2.635A4.523,4.523,0,0,1,2.871-.451,5.183,5.183,0,0,1,.261.205,4.841,4.841,0,0,1-3.548-1.436,6.368,6.368,0,0,1-5-5.814V-6.88a9.584,9.584,0,0,1,.918-4.291,6.729,6.729,0,0,1,2.635-2.881,7.722,7.722,0,0,1,3.984-1.031ZM.138-7.608a2.364,2.364,0,0,0-1.3.374,2.254,2.254,0,0,0-.861.99v.9A4,4,0,0,0-1.441-3.02,1.888,1.888,0,0,0,.2-2.184a1.867,1.867,0,0,0,1.543-.754,3.078,3.078,0,0,0,.59-1.953A3.072,3.072,0,0,0,1.738-6.86,1.937,1.937,0,0,0,.138-7.608Zm17.052-5.66L11.418,0H8.29l5.783-12.53H6.65v-2.4H17.191Z" transform="translate(151 263.221)" fill="#7caf82"/>
      <path id="Path_12293" data-name="Path 12293" d="M-15.883,0h-2.963V-11.423l-3.538,1.1v-2.41L-16.2-14.95h.318Zm5.291-7.342.861-7.588h8.367v2.471H-7.3L-7.67-9.249a4.7,4.7,0,0,1,2.246-.564A4.3,4.3,0,0,1-2.082-8.49a5.284,5.284,0,0,1,1.21,3.7A5.413,5.413,0,0,1-1.482-2.2,4.306,4.306,0,0,1-3.23-.426,5.458,5.458,0,0,1-5.917.205,5.8,5.8,0,0,1-8.429-.344a4.456,4.456,0,0,1-1.83-1.543,4.206,4.206,0,0,1-.713-2.266h2.933A2.19,2.19,0,0,0-7.388-2.7a2.064,2.064,0,0,0,1.461.518,1.822,1.822,0,0,0,1.548-.723,3.349,3.349,0,0,0,.543-2.046A2.769,2.769,0,0,0-4.46-6.9a2.3,2.3,0,0,0-1.774-.677,2.565,2.565,0,0,0-1.712.554l-.287.267ZM9.054-15.083v2.44H8.767A5.034,5.034,0,0,0,5.532-11.6a4.249,4.249,0,0,0-1.471,2.82,4.036,4.036,0,0,1,3-1.21,3.8,3.8,0,0,1,3.1,1.395A5.59,5.59,0,0,1,11.31-4.922a5.5,5.5,0,0,1-.631,2.635A4.523,4.523,0,0,1,8.9-.451a5.183,5.183,0,0,1-2.61.656A4.841,4.841,0,0,1,2.476-1.436,6.368,6.368,0,0,1,1.025-5.814V-6.88a9.584,9.584,0,0,1,.918-4.291,6.729,6.729,0,0,1,2.635-2.881,7.722,7.722,0,0,1,3.984-1.031ZM6.163-7.608a2.364,2.364,0,0,0-1.3.374A2.254,2.254,0,0,0,4-6.245v.9A4,4,0,0,0,4.583-3.02a1.888,1.888,0,0,0,1.641.836,1.867,1.867,0,0,0,1.543-.754,3.078,3.078,0,0,0,.59-1.953A3.072,3.072,0,0,0,7.762-6.86,1.937,1.937,0,0,0,6.163-7.608Zm17.052-5.66L17.442,0H14.314L20.1-12.53H12.674v-2.4H23.215Z" transform="translate(157 199.221)" fill="#7caf82"/>
      <path id="Path_12299" data-name="Path 12299" d="M-14.043-8.777h1.579a2.225,2.225,0,0,0,1.671-.564,2.067,2.067,0,0,0,.543-1.5,1.827,1.827,0,0,0-.538-1.4,2.086,2.086,0,0,0-1.482-.5,2.187,2.187,0,0,0-1.425.467,1.492,1.492,0,0,0-.574,1.215h-2.963a3.644,3.644,0,0,1,.631-2.1,4.2,4.2,0,0,1,1.764-1.451,5.886,5.886,0,0,1,2.5-.523A5.582,5.582,0,0,1-8.629-14a3.866,3.866,0,0,1,1.343,3.122,3.141,3.141,0,0,1-.625,1.887A4.064,4.064,0,0,1-9.552-7.67,3.71,3.71,0,0,1-7.67-6.316a3.672,3.672,0,0,1,.62,2.133A3.93,3.93,0,0,1-8.5-.995a5.834,5.834,0,0,1-3.84,1.2A5.531,5.531,0,0,1-16-.974a3.851,3.851,0,0,1-1.42-3.117h2.963a1.717,1.717,0,0,0,.631,1.374,2.324,2.324,0,0,0,1.553.533,2.335,2.335,0,0,0,1.656-.559,1.929,1.929,0,0,0,.6-1.482q0-2.235-2.461-2.235h-1.569Zm17.8,3.158H5.45V-3.23H3.758V0H.795V-3.23H-5.327L-5.46-5.1.764-14.93H3.758Zm-6.265,0h3.3V-10.89L.6-10.551ZM7.48-7.342l.861-7.588h8.367v2.471H10.772L10.4-9.249a4.7,4.7,0,0,1,2.246-.564A4.3,4.3,0,0,1,15.991-8.49a5.284,5.284,0,0,1,1.21,3.7,5.413,5.413,0,0,1-.61,2.589A4.306,4.306,0,0,1,14.843-.426a5.458,5.458,0,0,1-2.687.631A5.8,5.8,0,0,1,9.644-.344a4.456,4.456,0,0,1-1.83-1.543A4.206,4.206,0,0,1,7.1-4.153h2.933A2.19,2.19,0,0,0,10.685-2.7a2.064,2.064,0,0,0,1.461.518,1.822,1.822,0,0,0,1.548-.723,3.349,3.349,0,0,0,.543-2.046A2.769,2.769,0,0,0,13.612-6.9a2.3,2.3,0,0,0-1.774-.677,2.565,2.565,0,0,0-1.712.554l-.287.267Z" transform="translate(151 329.221)" fill="#7caf82"/>
      <path id="Path_12291" data-name="Path 12291" d="M-36.029.854H-37.5l3.664-10.808h1.47ZM-21.195,0h-6.822V-1.354l3.22-3.432a7.943,7.943,0,0,0,.981-1.265A2.032,2.032,0,0,0-23.5-7.075a1.52,1.52,0,0,0-.335-1.042,1.209,1.209,0,0,0-.957-.379,1.3,1.3,0,0,0-1.056.461,1.828,1.828,0,0,0-.386,1.213h-1.982a3.263,3.263,0,0,1,.434-1.661,3.059,3.059,0,0,1,1.227-1.179,3.73,3.73,0,0,1,1.8-.427,3.531,3.531,0,0,1,2.389.738,2.612,2.612,0,0,1,.851,2.085,3.347,3.347,0,0,1-.383,1.5,8.357,8.357,0,0,1-1.312,1.784l-2.263,2.386h4.279Zm1.5-4.895.574-5.059h5.578v1.647H-17.5l-.246,2.14a3.132,3.132,0,0,1,1.5-.376,2.869,2.869,0,0,1,2.229.882,3.522,3.522,0,0,1,.807,2.468,3.609,3.609,0,0,1-.407,1.726A2.871,2.871,0,0,1-14.783-.284a3.639,3.639,0,0,1-1.791.42,3.864,3.864,0,0,1-1.675-.366,2.971,2.971,0,0,1-1.22-1.029,2.8,2.8,0,0,1-.475-1.511h1.955a1.46,1.46,0,0,0,.434.967,1.376,1.376,0,0,0,.974.345,1.215,1.215,0,0,0,1.032-.482A2.233,2.233,0,0,0-15.186-3.3,1.846,1.846,0,0,0-15.6-4.6a1.53,1.53,0,0,0-1.183-.451,1.71,1.71,0,0,0-1.142.369l-.191.178Zm13.1-5.161v1.627h-.191a3.356,3.356,0,0,0-2.157.7,2.833,2.833,0,0,0-.981,1.88,2.691,2.691,0,0,1,2-.807,2.535,2.535,0,0,1,2.064.93,3.727,3.727,0,0,1,.766,2.447,3.666,3.666,0,0,1-.42,1.757A3.015,3.015,0,0,1-6.7-.3a3.456,3.456,0,0,1-1.74.438,3.227,3.227,0,0,1-2.54-1.094,4.246,4.246,0,0,1-.967-2.919v-.711a6.389,6.389,0,0,1,.612-2.861A4.486,4.486,0,0,1-9.577-9.369a5.148,5.148,0,0,1,2.656-.687ZM-8.521-5.072a1.576,1.576,0,0,0-.868.25,1.5,1.5,0,0,0-.574.66v.6a2.669,2.669,0,0,0,.39,1.548,1.258,1.258,0,0,0,1.094.557,1.244,1.244,0,0,0,1.029-.5,2.052,2.052,0,0,0,.393-1.3,2.048,2.048,0,0,0-.4-1.312A1.291,1.291,0,0,0-8.521-5.072ZM2.567-7.308A2.315,2.315,0,0,1,2.2-6.022a2.608,2.608,0,0,1-1,.9,2.886,2.886,0,0,1,1.148.96,2.464,2.464,0,0,1,.424,1.439,2.609,2.609,0,0,1-.9,2.1A3.66,3.66,0,0,1-.578.137,3.677,3.677,0,0,1-3.039-.636a2.6,2.6,0,0,1-.909-2.092A2.48,2.48,0,0,1-3.524-4.17a2.834,2.834,0,0,1,1.142-.957,2.581,2.581,0,0,1-.995-.9,2.331,2.331,0,0,1-.359-1.285,2.58,2.58,0,0,1,.848-2.027,3.337,3.337,0,0,1,2.3-.755,3.36,3.36,0,0,1,2.3.749A2.57,2.57,0,0,1,2.567-7.308ZM.8-2.871A1.433,1.433,0,0,0,.42-3.91,1.341,1.341,0,0,0-.591-4.3a1.338,1.338,0,0,0-1,.386,1.431,1.431,0,0,0-.376,1.042A1.43,1.43,0,0,0-1.6-1.846a1.345,1.345,0,0,0,1.025.39A1.341,1.341,0,0,0,.431-1.832,1.427,1.427,0,0,0,.8-2.871ZM.591-7.212a1.367,1.367,0,0,0-.308-.933A1.091,1.091,0,0,0-.584-8.5a1.1,1.1,0,0,0-.861.342,1.359,1.359,0,0,0-.308.943,1.428,1.428,0,0,0,.308.957,1.076,1.076,0,0,0,.868.362,1.066,1.066,0,0,0,.865-.362A1.439,1.439,0,0,0,.591-7.212ZM12.11-.752a2.477,2.477,0,0,1-2.023.889A2.337,2.337,0,0,1,8.271-.547a2.918,2.918,0,0,1-.639-2V-7.4H9.608v4.778q0,1.155,1.053,1.155a1.427,1.427,0,0,0,1.381-.7V-7.4h1.982V0H12.165Zm7.41-1.292a.637.637,0,0,0-.359-.571,4.077,4.077,0,0,0-1.152-.373q-2.639-.554-2.639-2.242a2.032,2.032,0,0,1,.817-1.644,3.3,3.3,0,0,1,2.136-.66,3.547,3.547,0,0,1,2.252.663,2.09,2.09,0,0,1,.844,1.723H19.445a.956.956,0,0,0-.273-.7,1.157,1.157,0,0,0-.854-.277,1.182,1.182,0,0,0-.772.226.712.712,0,0,0-.273.574.609.609,0,0,0,.311.53,3.2,3.2,0,0,0,1.049.349,8.571,8.571,0,0,1,1.244.332,2.044,2.044,0,0,1,1.565,1.989,1.929,1.929,0,0,1-.868,1.637,3.745,3.745,0,0,1-2.242.625A3.912,3.912,0,0,1,16.68-.195,2.77,2.77,0,0,1,15.548-1.1a2.113,2.113,0,0,1-.41-1.248h1.873a1.031,1.031,0,0,0,.39.807,1.546,1.546,0,0,0,.971.28,1.43,1.43,0,0,0,.858-.215A.67.67,0,0,0,19.52-2.044Zm6.6,2.181a3.631,3.631,0,0,1-2.649-1,3.548,3.548,0,0,1-1.022-2.659v-.191A4.468,4.468,0,0,1,22.876-5.7,3.161,3.161,0,0,1,24.1-7.058a3.425,3.425,0,0,1,1.8-.475,3.07,3.07,0,0,1,2.389.957,3.889,3.889,0,0,1,.872,2.714v.807h-4.71a1.835,1.835,0,0,0,.578,1.162,1.746,1.746,0,0,0,1.22.438,2.132,2.132,0,0,0,1.784-.827L29-1.2a2.966,2.966,0,0,1-1.2.981A3.947,3.947,0,0,1,26.117.137Zm-.226-6.07a1.237,1.237,0,0,0-.954.4A2.048,2.048,0,0,0,24.469-4.4h2.748V-4.56a1.46,1.46,0,0,0-.355-1.015A1.277,1.277,0,0,0,25.891-5.934Zm4.081,2.181a4.457,4.457,0,0,1,.776-2.755,2.517,2.517,0,0,1,2.123-1.025,2.265,2.265,0,0,1,1.784.807V-10.5h1.982V0H34.853l-.1-.786a2.325,2.325,0,0,1-1.9.923,2.511,2.511,0,0,1-2.1-1.029A4.6,4.6,0,0,1,29.972-3.753Zm1.976.144a2.912,2.912,0,0,0,.362,1.593,1.181,1.181,0,0,0,1.053.554,1.322,1.322,0,0,0,1.292-.772V-5.154a1.3,1.3,0,0,0-1.278-.772Q31.948-5.927,31.948-3.609Z" transform="translate(209 134.221)" fill="#919191"/>
      <path id="Path_12297" data-name="Path 12297" d="M-36.029.854H-37.5l3.664-10.808h1.47ZM-21.195,0h-6.822V-1.354l3.22-3.432a7.943,7.943,0,0,0,.981-1.265A2.032,2.032,0,0,0-23.5-7.075a1.52,1.52,0,0,0-.335-1.042,1.209,1.209,0,0,0-.957-.379,1.3,1.3,0,0,0-1.056.461,1.828,1.828,0,0,0-.386,1.213h-1.982a3.263,3.263,0,0,1,.434-1.661,3.059,3.059,0,0,1,1.227-1.179,3.73,3.73,0,0,1,1.8-.427,3.531,3.531,0,0,1,2.389.738,2.612,2.612,0,0,1,.851,2.085,3.347,3.347,0,0,1-.383,1.5,8.357,8.357,0,0,1-1.312,1.784l-2.263,2.386h4.279Zm3.22-5.852h1.053a1.483,1.483,0,0,0,1.114-.376,1.378,1.378,0,0,0,.362-1,1.218,1.218,0,0,0-.359-.937,1.391,1.391,0,0,0-.988-.335,1.458,1.458,0,0,0-.95.311,1,1,0,0,0-.383.81H-20.1a2.43,2.43,0,0,1,.42-1.4A2.8,2.8,0,0,1-18.5-9.741a3.924,3.924,0,0,1,1.665-.349,3.722,3.722,0,0,1,2.475.755,2.577,2.577,0,0,1,.9,2.082A2.094,2.094,0,0,1-13.887-6a2.709,2.709,0,0,1-1.094.882,2.473,2.473,0,0,1,1.254.9,2.448,2.448,0,0,1,.414,1.422A2.62,2.62,0,0,1-14.28-.663a3.889,3.889,0,0,1-2.56.8,3.688,3.688,0,0,1-2.437-.786,2.567,2.567,0,0,1-.947-2.078h1.976a1.145,1.145,0,0,0,.42.916,1.549,1.549,0,0,0,1.036.355,1.556,1.556,0,0,0,1.1-.373,1.286,1.286,0,0,0,.4-.988q0-1.49-1.641-1.49h-1.046ZM-6.108-3.746H-4.98v1.593H-6.108V0H-8.083V-2.153h-4.081L-12.253-3.4-8.1-9.953h2Zm-4.177,0h2.2V-7.26l-.13.226ZM2.567-7.308A2.315,2.315,0,0,1,2.2-6.022a2.608,2.608,0,0,1-1,.9,2.886,2.886,0,0,1,1.148.96,2.464,2.464,0,0,1,.424,1.439,2.609,2.609,0,0,1-.9,2.1A3.66,3.66,0,0,1-.578.137,3.677,3.677,0,0,1-3.039-.636a2.6,2.6,0,0,1-.909-2.092A2.48,2.48,0,0,1-3.524-4.17a2.834,2.834,0,0,1,1.142-.957,2.581,2.581,0,0,1-.995-.9,2.331,2.331,0,0,1-.359-1.285,2.58,2.58,0,0,1,.848-2.027,3.337,3.337,0,0,1,2.3-.755,3.36,3.36,0,0,1,2.3.749A2.57,2.57,0,0,1,2.567-7.308ZM.8-2.871A1.433,1.433,0,0,0,.42-3.91,1.341,1.341,0,0,0-.591-4.3a1.338,1.338,0,0,0-1,.386,1.431,1.431,0,0,0-.376,1.042A1.43,1.43,0,0,0-1.6-1.846a1.345,1.345,0,0,0,1.025.39A1.341,1.341,0,0,0,.431-1.832,1.427,1.427,0,0,0,.8-2.871ZM.591-7.212a1.367,1.367,0,0,0-.308-.933A1.091,1.091,0,0,0-.584-8.5a1.1,1.1,0,0,0-.861.342,1.359,1.359,0,0,0-.308.943,1.428,1.428,0,0,0,.308.957,1.076,1.076,0,0,0,.868.362,1.066,1.066,0,0,0,.865-.362A1.439,1.439,0,0,0,.591-7.212ZM12.11-.752a2.477,2.477,0,0,1-2.023.889A2.337,2.337,0,0,1,8.271-.547a2.918,2.918,0,0,1-.639-2V-7.4H9.608v4.778q0,1.155,1.053,1.155a1.427,1.427,0,0,0,1.381-.7V-7.4h1.982V0H12.165Zm7.41-1.292a.637.637,0,0,0-.359-.571,4.077,4.077,0,0,0-1.152-.373q-2.639-.554-2.639-2.242a2.032,2.032,0,0,1,.817-1.644,3.3,3.3,0,0,1,2.136-.66,3.547,3.547,0,0,1,2.252.663,2.09,2.09,0,0,1,.844,1.723H19.445a.956.956,0,0,0-.273-.7,1.157,1.157,0,0,0-.854-.277,1.182,1.182,0,0,0-.772.226.712.712,0,0,0-.273.574.609.609,0,0,0,.311.53,3.2,3.2,0,0,0,1.049.349,8.571,8.571,0,0,1,1.244.332,2.044,2.044,0,0,1,1.565,1.989,1.929,1.929,0,0,1-.868,1.637,3.745,3.745,0,0,1-2.242.625A3.912,3.912,0,0,1,16.68-.195,2.77,2.77,0,0,1,15.548-1.1a2.113,2.113,0,0,1-.41-1.248h1.873a1.031,1.031,0,0,0,.39.807,1.546,1.546,0,0,0,.971.28,1.43,1.43,0,0,0,.858-.215A.67.67,0,0,0,19.52-2.044Zm6.6,2.181a3.631,3.631,0,0,1-2.649-1,3.548,3.548,0,0,1-1.022-2.659v-.191A4.468,4.468,0,0,1,22.876-5.7,3.161,3.161,0,0,1,24.1-7.058a3.425,3.425,0,0,1,1.8-.475,3.07,3.07,0,0,1,2.389.957,3.889,3.889,0,0,1,.872,2.714v.807h-4.71a1.835,1.835,0,0,0,.578,1.162,1.746,1.746,0,0,0,1.22.438,2.132,2.132,0,0,0,1.784-.827L29-1.2a2.966,2.966,0,0,1-1.2.981A3.947,3.947,0,0,1,26.117.137Zm-.226-6.07a1.237,1.237,0,0,0-.954.4A2.048,2.048,0,0,0,24.469-4.4h2.748V-4.56a1.46,1.46,0,0,0-.355-1.015A1.277,1.277,0,0,0,25.891-5.934Zm4.081,2.181a4.457,4.457,0,0,1,.776-2.755,2.517,2.517,0,0,1,2.123-1.025,2.265,2.265,0,0,1,1.784.807V-10.5h1.982V0H34.853l-.1-.786a2.325,2.325,0,0,1-1.9.923,2.511,2.511,0,0,1-2.1-1.029A4.6,4.6,0,0,1,29.972-3.753Zm1.976.144a2.912,2.912,0,0,0,.362,1.593,1.181,1.181,0,0,0,1.053.554,1.322,1.322,0,0,0,1.292-.772V-5.154a1.3,1.3,0,0,0-1.278-.772Q31.948-5.927,31.948-3.609Z" transform="translate(205 263.221)" fill="#919191"/>
      <path id="Path_12292" data-name="Path 12292" d="M-36.029.854H-37.5l3.664-10.808h1.47ZM-23.218,0h-1.976V-7.615l-2.358.731V-8.49l4.122-1.477h.212Zm3.527-4.895.574-5.059h5.578v1.647H-17.5l-.246,2.14a3.132,3.132,0,0,1,1.5-.376,2.869,2.869,0,0,1,2.229.882,3.522,3.522,0,0,1,.807,2.468,3.609,3.609,0,0,1-.407,1.726A2.871,2.871,0,0,1-14.783-.284a3.639,3.639,0,0,1-1.791.42,3.864,3.864,0,0,1-1.675-.366,2.971,2.971,0,0,1-1.22-1.029,2.8,2.8,0,0,1-.475-1.511h1.955a1.46,1.46,0,0,0,.434.967,1.376,1.376,0,0,0,.974.345,1.215,1.215,0,0,0,1.032-.482A2.233,2.233,0,0,0-15.186-3.3,1.846,1.846,0,0,0-15.6-4.6a1.53,1.53,0,0,0-1.183-.451,1.71,1.71,0,0,0-1.142.369l-.191.178Zm13.1-5.161v1.627h-.191a3.356,3.356,0,0,0-2.157.7,2.833,2.833,0,0,0-.981,1.88,2.691,2.691,0,0,1,2-.807,2.535,2.535,0,0,1,2.064.93,3.727,3.727,0,0,1,.766,2.447,3.666,3.666,0,0,1-.42,1.757A3.015,3.015,0,0,1-6.7-.3a3.456,3.456,0,0,1-1.74.438,3.227,3.227,0,0,1-2.54-1.094,4.246,4.246,0,0,1-.967-2.919v-.711a6.389,6.389,0,0,1,.612-2.861A4.486,4.486,0,0,1-9.577-9.369a5.148,5.148,0,0,1,2.656-.687ZM-8.521-5.072a1.576,1.576,0,0,0-.868.25,1.5,1.5,0,0,0-.574.66v.6a2.669,2.669,0,0,0,.39,1.548,1.258,1.258,0,0,0,1.094.557,1.244,1.244,0,0,0,1.029-.5,2.052,2.052,0,0,0,.393-1.3,2.048,2.048,0,0,0-.4-1.312A1.291,1.291,0,0,0-8.521-5.072ZM2.567-7.308A2.315,2.315,0,0,1,2.2-6.022a2.608,2.608,0,0,1-1,.9,2.886,2.886,0,0,1,1.148.96,2.464,2.464,0,0,1,.424,1.439,2.609,2.609,0,0,1-.9,2.1A3.66,3.66,0,0,1-.578.137,3.677,3.677,0,0,1-3.039-.636a2.6,2.6,0,0,1-.909-2.092A2.48,2.48,0,0,1-3.524-4.17a2.834,2.834,0,0,1,1.142-.957,2.581,2.581,0,0,1-.995-.9,2.331,2.331,0,0,1-.359-1.285,2.58,2.58,0,0,1,.848-2.027,3.337,3.337,0,0,1,2.3-.755,3.36,3.36,0,0,1,2.3.749A2.57,2.57,0,0,1,2.567-7.308ZM.8-2.871A1.433,1.433,0,0,0,.42-3.91,1.341,1.341,0,0,0-.591-4.3a1.338,1.338,0,0,0-1,.386,1.431,1.431,0,0,0-.376,1.042A1.43,1.43,0,0,0-1.6-1.846a1.345,1.345,0,0,0,1.025.39A1.341,1.341,0,0,0,.431-1.832,1.427,1.427,0,0,0,.8-2.871ZM.591-7.212a1.367,1.367,0,0,0-.308-.933A1.091,1.091,0,0,0-.584-8.5a1.1,1.1,0,0,0-.861.342,1.359,1.359,0,0,0-.308.943,1.428,1.428,0,0,0,.308.957,1.076,1.076,0,0,0,.868.362,1.066,1.066,0,0,0,.865-.362A1.439,1.439,0,0,0,.591-7.212ZM12.11-.752a2.477,2.477,0,0,1-2.023.889A2.337,2.337,0,0,1,8.271-.547a2.918,2.918,0,0,1-.639-2V-7.4H9.608v4.778q0,1.155,1.053,1.155a1.427,1.427,0,0,0,1.381-.7V-7.4h1.982V0H12.165Zm7.41-1.292a.637.637,0,0,0-.359-.571,4.077,4.077,0,0,0-1.152-.373q-2.639-.554-2.639-2.242a2.032,2.032,0,0,1,.817-1.644,3.3,3.3,0,0,1,2.136-.66,3.547,3.547,0,0,1,2.252.663,2.09,2.09,0,0,1,.844,1.723H19.445a.956.956,0,0,0-.273-.7,1.157,1.157,0,0,0-.854-.277,1.182,1.182,0,0,0-.772.226.712.712,0,0,0-.273.574.609.609,0,0,0,.311.53,3.2,3.2,0,0,0,1.049.349,8.571,8.571,0,0,1,1.244.332,2.044,2.044,0,0,1,1.565,1.989,1.929,1.929,0,0,1-.868,1.637,3.745,3.745,0,0,1-2.242.625A3.912,3.912,0,0,1,16.68-.195,2.77,2.77,0,0,1,15.548-1.1a2.113,2.113,0,0,1-.41-1.248h1.873a1.031,1.031,0,0,0,.39.807,1.546,1.546,0,0,0,.971.28,1.43,1.43,0,0,0,.858-.215A.67.67,0,0,0,19.52-2.044Zm6.6,2.181a3.631,3.631,0,0,1-2.649-1,3.548,3.548,0,0,1-1.022-2.659v-.191A4.468,4.468,0,0,1,22.876-5.7,3.161,3.161,0,0,1,24.1-7.058a3.425,3.425,0,0,1,1.8-.475,3.07,3.07,0,0,1,2.389.957,3.889,3.889,0,0,1,.872,2.714v.807h-4.71a1.835,1.835,0,0,0,.578,1.162,1.746,1.746,0,0,0,1.22.438,2.132,2.132,0,0,0,1.784-.827L29-1.2a2.966,2.966,0,0,1-1.2.981A3.947,3.947,0,0,1,26.117.137Zm-.226-6.07a1.237,1.237,0,0,0-.954.4A2.048,2.048,0,0,0,24.469-4.4h2.748V-4.56a1.46,1.46,0,0,0-.355-1.015A1.277,1.277,0,0,0,25.891-5.934Zm4.081,2.181a4.457,4.457,0,0,1,.776-2.755,2.517,2.517,0,0,1,2.123-1.025,2.265,2.265,0,0,1,1.784.807V-10.5h1.982V0H34.853l-.1-.786a2.325,2.325,0,0,1-1.9.923,2.511,2.511,0,0,1-2.1-1.029A4.6,4.6,0,0,1,29.972-3.753Zm1.976.144a2.912,2.912,0,0,0,.362,1.593,1.181,1.181,0,0,0,1.053.554,1.322,1.322,0,0,0,1.292-.772V-5.154a1.3,1.3,0,0,0-1.278-.772Q31.948-5.927,31.948-3.609Z" transform="translate(218 199.221)" fill="#919191"/>
      <path id="Path_12298" data-name="Path 12298" d="M-36.029.854H-37.5l3.664-10.808h1.47ZM-21.195,0h-6.822V-1.354l3.22-3.432a7.943,7.943,0,0,0,.981-1.265A2.032,2.032,0,0,0-23.5-7.075a1.52,1.52,0,0,0-.335-1.042,1.209,1.209,0,0,0-.957-.379,1.3,1.3,0,0,0-1.056.461,1.828,1.828,0,0,0-.386,1.213h-1.982a3.263,3.263,0,0,1,.434-1.661,3.059,3.059,0,0,1,1.227-1.179,3.73,3.73,0,0,1,1.8-.427,3.531,3.531,0,0,1,2.389.738,2.612,2.612,0,0,1,.851,2.085,3.347,3.347,0,0,1-.383,1.5,8.357,8.357,0,0,1-1.312,1.784l-2.263,2.386h4.279Zm5.831-3.979a2.5,2.5,0,0,1-1.8.759,2.668,2.668,0,0,1-2.112-.906,3.579,3.579,0,0,1-.793-2.444,3.813,3.813,0,0,1,.427-1.794,3.134,3.134,0,0,1,1.193-1.271,3.31,3.31,0,0,1,1.723-.455,3.165,3.165,0,0,1,1.75.492,3.236,3.236,0,0,1,1.189,1.415,5.081,5.081,0,0,1,.431,2.112v.731A5.757,5.757,0,0,1-14.6-1.429,4.678,4.678,0,0,1-18.1.089L-18.59.1V-1.552l.438-.007Q-15.576-1.675-15.364-3.979Zm-1.319-.752a1.382,1.382,0,0,0,.824-.246,1.644,1.644,0,0,0,.523-.595v-.813a2.717,2.717,0,0,0-.383-1.559A1.188,1.188,0,0,0-16.745-8.5a1.153,1.153,0,0,0-.978.543A2.311,2.311,0,0,0-18.1-6.59a2.249,2.249,0,0,0,.373,1.336A1.214,1.214,0,0,0-16.683-4.73Zm10.09-5.325v1.627h-.191a3.356,3.356,0,0,0-2.157.7,2.833,2.833,0,0,0-.981,1.88,2.691,2.691,0,0,1,2-.807,2.535,2.535,0,0,1,2.064.93,3.727,3.727,0,0,1,.766,2.447,3.666,3.666,0,0,1-.42,1.757A3.015,3.015,0,0,1-6.7-.3a3.456,3.456,0,0,1-1.74.438,3.227,3.227,0,0,1-2.54-1.094,4.246,4.246,0,0,1-.967-2.919v-.711a6.389,6.389,0,0,1,.612-2.861A4.486,4.486,0,0,1-9.577-9.369a5.148,5.148,0,0,1,2.656-.687ZM-8.521-5.072a1.576,1.576,0,0,0-.868.25,1.5,1.5,0,0,0-.574.66v.6a2.669,2.669,0,0,0,.39,1.548,1.258,1.258,0,0,0,1.094.557,1.244,1.244,0,0,0,1.029-.5,2.052,2.052,0,0,0,.393-1.3,2.048,2.048,0,0,0-.4-1.312A1.291,1.291,0,0,0-8.521-5.072ZM2.567-7.308A2.315,2.315,0,0,1,2.2-6.022a2.608,2.608,0,0,1-1,.9,2.886,2.886,0,0,1,1.148.96,2.464,2.464,0,0,1,.424,1.439,2.609,2.609,0,0,1-.9,2.1A3.66,3.66,0,0,1-.578.137,3.677,3.677,0,0,1-3.039-.636a2.6,2.6,0,0,1-.909-2.092A2.48,2.48,0,0,1-3.524-4.17a2.834,2.834,0,0,1,1.142-.957,2.581,2.581,0,0,1-.995-.9,2.331,2.331,0,0,1-.359-1.285,2.58,2.58,0,0,1,.848-2.027,3.337,3.337,0,0,1,2.3-.755,3.36,3.36,0,0,1,2.3.749A2.57,2.57,0,0,1,2.567-7.308ZM.8-2.871A1.433,1.433,0,0,0,.42-3.91,1.341,1.341,0,0,0-.591-4.3a1.338,1.338,0,0,0-1,.386,1.431,1.431,0,0,0-.376,1.042A1.43,1.43,0,0,0-1.6-1.846a1.345,1.345,0,0,0,1.025.39A1.341,1.341,0,0,0,.431-1.832,1.427,1.427,0,0,0,.8-2.871ZM.591-7.212a1.367,1.367,0,0,0-.308-.933A1.091,1.091,0,0,0-.584-8.5a1.1,1.1,0,0,0-.861.342,1.359,1.359,0,0,0-.308.943,1.428,1.428,0,0,0,.308.957,1.076,1.076,0,0,0,.868.362,1.066,1.066,0,0,0,.865-.362A1.439,1.439,0,0,0,.591-7.212ZM12.11-.752a2.477,2.477,0,0,1-2.023.889A2.337,2.337,0,0,1,8.271-.547a2.918,2.918,0,0,1-.639-2V-7.4H9.608v4.778q0,1.155,1.053,1.155a1.427,1.427,0,0,0,1.381-.7V-7.4h1.982V0H12.165Zm7.41-1.292a.637.637,0,0,0-.359-.571,4.077,4.077,0,0,0-1.152-.373q-2.639-.554-2.639-2.242a2.032,2.032,0,0,1,.817-1.644,3.3,3.3,0,0,1,2.136-.66,3.547,3.547,0,0,1,2.252.663,2.09,2.09,0,0,1,.844,1.723H19.445a.956.956,0,0,0-.273-.7,1.157,1.157,0,0,0-.854-.277,1.182,1.182,0,0,0-.772.226.712.712,0,0,0-.273.574.609.609,0,0,0,.311.53,3.2,3.2,0,0,0,1.049.349,8.571,8.571,0,0,1,1.244.332,2.044,2.044,0,0,1,1.565,1.989,1.929,1.929,0,0,1-.868,1.637,3.745,3.745,0,0,1-2.242.625A3.912,3.912,0,0,1,16.68-.195,2.77,2.77,0,0,1,15.548-1.1a2.113,2.113,0,0,1-.41-1.248h1.873a1.031,1.031,0,0,0,.39.807,1.546,1.546,0,0,0,.971.28,1.43,1.43,0,0,0,.858-.215A.67.67,0,0,0,19.52-2.044Zm6.6,2.181a3.631,3.631,0,0,1-2.649-1,3.548,3.548,0,0,1-1.022-2.659v-.191A4.468,4.468,0,0,1,22.876-5.7,3.161,3.161,0,0,1,24.1-7.058a3.425,3.425,0,0,1,1.8-.475,3.07,3.07,0,0,1,2.389.957,3.889,3.889,0,0,1,.872,2.714v.807h-4.71a1.835,1.835,0,0,0,.578,1.162,1.746,1.746,0,0,0,1.22.438,2.132,2.132,0,0,0,1.784-.827L29-1.2a2.966,2.966,0,0,1-1.2.981A3.947,3.947,0,0,1,26.117.137Zm-.226-6.07a1.237,1.237,0,0,0-.954.4A2.048,2.048,0,0,0,24.469-4.4h2.748V-4.56a1.46,1.46,0,0,0-.355-1.015A1.277,1.277,0,0,0,25.891-5.934Zm4.081,2.181a4.457,4.457,0,0,1,.776-2.755,2.517,2.517,0,0,1,2.123-1.025,2.265,2.265,0,0,1,1.784.807V-10.5h1.982V0H34.853l-.1-.786a2.325,2.325,0,0,1-1.9.923,2.511,2.511,0,0,1-2.1-1.029A4.6,4.6,0,0,1,29.972-3.753Zm1.976.144a2.912,2.912,0,0,0,.362,1.593,1.181,1.181,0,0,0,1.053.554,1.322,1.322,0,0,0,1.292-.772V-5.154a1.3,1.3,0,0,0-1.278-.772Q31.948-5.927,31.948-3.609Z" transform="translate(209 329.221)" fill="#919191"/>
      <path id="Path_12288" data-name="Path 12288" d="M3.936,0H9.408V-12.912h2.5c4.128,0,7.584,5.28,8.88,12.912h5.664c-.96-7.392-3.84-13.008-7.872-14.976a8.174,8.174,0,0,0,6.336-8.352c0-5.856-4.32-9.312-10.512-9.312H3.936ZM19.248-22.752c0,2.976-2.064,4.608-4.9,4.608H9.408v-9.264h4.944C17.184-27.408,19.248-25.728,19.248-22.752ZM48.912-32.64v21.072c0,4.032-2.592,6.768-6.624,6.768a6.362,6.362,0,0,1-6.72-6.768V-32.64H30.1v20.688C30.1-4.224,34.8.528,42.24.528s12.144-4.752,12.144-12.48V-32.64Zm27.6,1.152a15.887,15.887,0,0,0-7.008-1.68c-7.92,0-10.8,4.7-10.8,9.072,0,3.456,1.3,6.1,5.328,8.448l5.088,3.12c2.112,1.3,3.024,2.544,3.024,3.984,0,2.16-1.728,3.888-5.04,3.888a13.392,13.392,0,0,1-7.92-2.832v6.144A18.953,18.953,0,0,0,67.344.528C74.544.528,78-3.936,78-8.832c0-3.552-1.584-6.192-5.76-8.688l-4.992-3.12c-1.776-1.1-2.688-2.256-2.688-3.648,0-2.16,1.728-3.7,4.848-3.7a12.277,12.277,0,0,1,7.1,2.448Zm33.552-1.152v21.072c0,4.032-2.592,6.768-6.624,6.768a6.362,6.362,0,0,1-6.72-6.768V-32.64H91.248v20.688c0,7.728,4.7,12.48,12.144,12.48s12.144-4.752,12.144-12.48V-32.64Zm15.7,9.024h-5.28V0h5.28V-13.92c.1-3.024,1.968-5.04,4.944-5.04,3.12,0,4.992,2.16,4.992,5.328V0h5.28V-14.976c0-5.28-3.36-9.12-8.592-9.12a7.151,7.151,0,0,0-6.624,3.84Zm24.864,0h-5.28V0h5.28Zm-5.9-7.2a3.208,3.208,0,0,0,3.264,3.264,3.168,3.168,0,0,0,3.216-3.264,3.2,3.2,0,0,0-3.216-3.264A3.237,3.237,0,0,0,144.72-30.816ZM162.384,0V-19.1h4.272v-4.512h-4.272v-6.672l-4.992,1.152v5.52H153.12V-19.1H157.1V0Zm19.3-23.136a17.13,17.13,0,0,0-5.472-.96c-5.376,0-8.352,2.832-8.352,6.768a6.464,6.464,0,0,0,3.408,5.856l4.032,2.4c1.488.864,2.016,1.632,2.016,2.592,0,1.392-1.152,2.448-3.264,2.448a10.052,10.052,0,0,1-5.856-2.208V-.816A15.671,15.671,0,0,0,174.336.528c5.328,0,8.448-2.88,8.448-6.96,0-2.3-1.008-4.464-3.936-6.24l-3.792-2.256c-1.152-.72-1.776-1.248-1.776-2.256,0-1.3,1.056-2.3,3.072-2.3a10.124,10.124,0,0,1,5.328,1.68Z" transform="translate(34 61.221)" fill="#fff"/>
    </g>
  </g>
</svg>
