<svg xmlns="http://www.w3.org/2000/svg" width="333" height="46.786" viewBox="0 0 333 46.786">
  <g id="Group_8593" data-name="Group 8593" transform="translate(-166.357 -273.735)">
    <path id="Path_10512" data-name="Path 10512" d="M258.5,300.511h7.774a8.224,8.224,0,0,0,4.157-.8,2.442,2.442,0,0,0,1.3-2.163,2.316,2.316,0,0,0-.58-1.539,3.844,3.844,0,0,0-1.8-1.072,11.106,11.106,0,0,0-3.268-.389H258.5Zm-5.22,14.025V290.263h12.762a17.13,17.13,0,0,1,5.994.916,7.977,7.977,0,0,1,3.674,2.552,6.043,6.043,0,0,1,1.238,3.741,5.748,5.748,0,0,1-.909,3.194,7.008,7.008,0,0,1-2.571,2.318,12.463,12.463,0,0,1-3.79,1.305l8.276,10.246h-5.917l-7.889-9.818H258.5v9.818Z" transform="translate(-23.9 -4.545)" fill="#05a34a"/>
    <path id="Path_10513" data-name="Path 10513" d="M304.437,312.436a8.648,8.648,0,0,1-3.152-7.158V290.264h5.492v.35a1.156,1.156,0,0,0-.252.506,5.062,5.062,0,0,0-.058.932v13.26a5.064,5.064,0,0,0,1.721,4.025q1.72,1.5,5.279,1.5,3.828,0,5.491-1.5a5.289,5.289,0,0,0,1.663-4.141V290.264h5.067v14.9a9.3,9.3,0,0,1-1.567,5.563,9.081,9.081,0,0,1-4.331,3.208,18.148,18.148,0,0,1-6.362,1.032q-5.84,0-8.992-2.529" transform="translate(-37.1 -4.545)" fill="#05a34a"/>
    <path id="Path_10514" data-name="Path 10514" d="M355.045,314.166a15.7,15.7,0,0,1-5.22-2.221l2.63-3.9.193-.35.31.2a1.307,1.307,0,0,0,.251.525,4.005,4.005,0,0,0,.716.6,13.76,13.76,0,0,0,3.519,1.227,21.626,21.626,0,0,0,4.6.448,21.084,21.084,0,0,0,2.785-.17,11.831,11.831,0,0,0,2.223-.495,3.848,3.848,0,0,0,1.47-.837,1.59,1.59,0,0,0,.523-1.16,1.526,1.526,0,0,0-.233-.83,2.738,2.738,0,0,0-.753-.733,7.108,7.108,0,0,0-1.47-.734q-.948-.365-2.32-.81t-3.308-1.023a32.124,32.124,0,0,1-5.936-2.142,8.043,8.043,0,0,1-3.055-2.432,5.312,5.312,0,0,1-.909-3.069,4.4,4.4,0,0,1,1.431-3.3,9.737,9.737,0,0,1,3.984-2.142,20.48,20.48,0,0,1,5.916-.771,21.905,21.905,0,0,1,4.08.369,20.17,20.17,0,0,1,3.635,1.033,11.492,11.492,0,0,1,3,1.713l-2.707,3.35-.233.313-.271-.234a1.01,1.01,0,0,0-.212-.526,3.875,3.875,0,0,0-.637-.565,9.579,9.579,0,0,0-3.152-.993,26.8,26.8,0,0,0-3.81-.253,19.491,19.491,0,0,0-2.4.135,9.106,9.106,0,0,0-1.856.4,3.274,3.274,0,0,0-1.18.655,1.192,1.192,0,0,0-.406.886,1.377,1.377,0,0,0,.212.732,2.344,2.344,0,0,0,.755.694,9.193,9.193,0,0,0,1.507.731q.968.386,2.437.848t3.558,1.04A37.717,37.717,0,0,1,369.278,302a12.85,12.85,0,0,1,2.9,1.7,5.374,5.374,0,0,1,1.547,1.906,5.471,5.471,0,0,1,.465,2.292,5.327,5.327,0,0,1-1.315,3.448,9.083,9.083,0,0,1-4.1,2.581,21.872,21.872,0,0,1-7.155.982,27.9,27.9,0,0,1-6.575-.74" transform="translate(-50.447 -4.486)" fill="#05a34a"/>
    <path id="Path_10515" data-name="Path 10515" d="M399.8,311.127q3.21-2.165,5.859-3.83t4.737-2.978q2.088-1.316,3.5-2.419a10.217,10.217,0,0,0,2.146-2.167,3.915,3.915,0,0,0,.735-2.264,2.73,2.73,0,0,0-.367-1.45,2.613,2.613,0,0,0-1.122-.967,7.063,7.063,0,0,0-1.857-.561,14.76,14.76,0,0,0-2.533-.194,18.932,18.932,0,0,0-2.92.215,13.778,13.778,0,0,0-2.514.622,7.78,7.78,0,0,0-2.03,1.072,3.65,3.65,0,0,0-.6.721,1.176,1.176,0,0,0-.136.565l-.232.233-.27-.273-3.248-2.844a12.89,12.89,0,0,1,3.035-2.435,14.8,14.8,0,0,1,4-1.578,20.8,20.8,0,0,1,4.911-.545,17.424,17.424,0,0,1,5.569.832,9.222,9.222,0,0,1,3.925,2.4,5.418,5.418,0,0,1,1.451,3.816,7.039,7.039,0,0,1-.58,2.867A9.791,9.791,0,0,1,419.6,302.5a20.1,20.1,0,0,1-2.61,2.421q-1.529,1.2-3.443,2.518t-4.2,2.828H420.22a3.778,3.778,0,0,0,.928-.078,1.171,1.171,0,0,0,.5-.311h.309v4.6H399.8Z" transform="translate(-63.954 -4.486)" fill="#d6d6d6"/>
    <path id="Path_10516" data-name="Path 10516" d="M452.032,310.523h6.226a23.216,23.216,0,0,0,4.371-.35,6.664,6.664,0,0,0,2.688-1.033,2.05,2.05,0,0,0,.909-1.7,2.5,2.5,0,0,0-.986-1.987,6.992,6.992,0,0,0-2.978-1.246,24.206,24.206,0,0,0-4.969-.429h-5.259Zm0-10.675h5.027a24.9,24.9,0,0,0,4.545-.331,5.427,5.427,0,0,0,2.495-.993,2.035,2.035,0,0,0,.773-1.6,1.616,1.616,0,0,0-.425-1.129,3.5,3.5,0,0,0-1.315-.819,10.174,10.174,0,0,0-2.243-.546,23.016,23.016,0,0,0-3.21-.194h-5.646Zm-5.183,14.688V290.263h10.789a33.683,33.683,0,0,1,5.84.431,12.315,12.315,0,0,1,3.848,1.245,5.519,5.519,0,0,1,2.108,1.93,4.694,4.694,0,0,1,.657,2.435,5.532,5.532,0,0,1-.484,2.26,5.033,5.033,0,0,1-1.47,1.889,6.077,6.077,0,0,1-2.495,1.149,11.74,11.74,0,0,1,2.4.916,8.134,8.134,0,0,1,1.876,1.325,5.419,5.419,0,0,1,1.218,1.714,4.972,4.972,0,0,1,.426,2.046,5.407,5.407,0,0,1-3.171,5.162,14.524,14.524,0,0,1-4.312,1.325,40.041,40.041,0,0,1-6.517.447Z" transform="translate(-77.125 -4.545)" fill="#05a34a"/>
    <path id="Path_10517" data-name="Path 10517" d="M497.735,314.536v-4.207H505.2V294.472h-7.076v-4.209h19.336v4.209h-7.232v15.9h7.58v4.168Z" transform="translate(-91.116 -4.545)" fill="#05a34a"/>
    <path id="Path_10518" data-name="Path 10518" d="M544.94,290.264h5.685v.352a1.018,1.018,0,0,0-.29.506,5.094,5.094,0,0,0-.058.935v18.311H568.26v4.169H544.94Z" transform="translate(-104.096 -4.545)" fill="#05a34a"/>
    <path id="Path_10519" data-name="Path 10519" d="M593.479,290.264h5.684v.352a1.023,1.023,0,0,0-.29.506,5.091,5.091,0,0,0-.058.935v18.311H616.8v4.169h-23.32Z" transform="translate(-117.442 -4.545)" fill="#05a34a"/>
    <path id="Path_10520" data-name="Path 10520" d="M200.1,315.238H172.623v-12.4h7.355v4.946H194.96l-1.121-2.115,4.538-4.864,7.886,14.431Zm-27.475-28.767v-7.452h29.113l-8.438,12.49,3.413,6.32-4.55,4.9-6.217-11.223,3.4-5.038h-9.369v9.314h-7.355Zm-6.266,34.05H212.53V273.735H166.357Z" transform="translate(0 0)" fill="#d6d6d6"/>
  </g>
</svg>
