<svg xmlns="http://www.w3.org/2000/svg" width="60.302" height="51.257" viewBox="0 0 60.302 51.257">
  <g id="noun-smart-work-5517303" transform="translate(-3 -7.35)">
    <g id="Group_10788" data-name="Group 10788" transform="translate(3 7.35)">
      <g id="Group_10787" data-name="Group 10787">
        <path id="Path_12698" data-name="Path 12698" d="M19.479,7.35C10.392,7.35,3,15.148,3,24.744a17.753,17.753,0,0,0,5.926,13.35,10.023,10.023,0,0,1,3.41,5.666c.042.281.083.551.114.821.005.067.016.14.021.208.13,1.177.072,3.677.083,4.876a3.041,3.041,0,0,0,2.37,2.953v1.435a4.554,4.554,0,0,0,9.108,0V52.618A3.041,3.041,0,0,0,26.4,49.666v-3.4A10.15,10.15,0,0,1,30.022,38.1C41.675,28,34.988,7.385,19.479,7.35Zm4.907,38.916v3.4a1.012,1.012,0,0,1-1.009,1.019h-7.8a1.012,1.012,0,0,1-1.008-1.019c.011-.707.011-3.413-.031-4.076h9.867C24.387,45.819,24.387,46.037,24.387,46.266Zm4.907-19.11a1,1,0,0,1-1.424,0l-2.7-2.7-4.98,4.98a.992.992,0,0,1-1.414,0l-2.7-2.7-4.98,4.98a1.007,1.007,0,0,1-1.424-1.424L15.352,24.6a1,1,0,0,1,1.424,0l2.7,2.7,4.98-4.98a1,1,0,0,1,1.424,0l3.41,3.41A1,1,0,0,1,29.294,27.156Z" transform="translate(-3 -7.35)" fill="#58a77a"/>
        <g id="Group_10786" data-name="Group 10786" transform="translate(28.945 2.01)">
          <path id="Path_12699" data-name="Path 12699" d="M59.7,39.533H31.825a1,1,0,0,1,0-2.01H59.7c.229,0,.483-.289.483-.7V34.84c0-.415-.254-.7-.483-.7H43.8c-.363.36-.8,1.132-1.4,1.076H36.77c-.61.069-1.384-1.038-1.793-1.367a1,1,0,0,1,1.415-1.428l.791.785h4.76c.377-.358.79-1.133,1.4-1.076H59.7A2.613,2.613,0,0,1,62.2,34.84v1.98A2.613,2.613,0,0,1,59.7,39.533Z" transform="translate(-30.84 -8.377)"/>
          <path id="Path_12700" data-name="Path 12700" d="M42.384,36.118H36.756c-.607.071-1.386-1.039-1.793-1.367a1,1,0,0,1,1.415-1.428l.791.785h4.76c.358-.362.8-1.13,1.4-1.076H57.51V12.8c0-.817-.5-1.508-1.1-1.508H32.184a1.005,1.005,0,0,1,0-2.01H56.415A3.335,3.335,0,0,1,59.52,12.8V34.037a1,1,0,0,1-1.005,1.005H43.784C43.432,35.4,42.977,36.173,42.384,36.118Z" transform="translate(-30.827 -9.283)"/>
        </g>
      </g>
    </g>
  </g>
</svg>
