<svg xmlns="http://www.w3.org/2000/svg" width="53.708" height="53.708" viewBox="0 0 53.708 53.708">
  <g id="Group_12068" data-name="Group 12068" transform="translate(-7 -6)">
    <path id="Path_12715" data-name="Path 12715" d="M21.181,6a2.066,2.066,0,0,1,2.066,2.066V12.2a2.066,2.066,0,0,1-4.131,0V8.066A2.066,2.066,0,0,1,21.181,6Z" transform="translate(6.476)" fill="#58a77a"/>
    <path id="Path_12716" data-name="Path 12716" d="M27.657,55.391A20.658,20.658,0,0,0,43.65,21.658c-.023.026-.047.051-.072.076l-14.46,14.46A2.066,2.066,0,0,1,26.2,33.273l14.46-14.46c.025-.025.05-.049.076-.072a20.657,20.657,0,1,0-13.075,36.65Z" transform="translate(0 4.317)"/>
    <path id="Path_12717" data-name="Path 12717" d="M42.812,30.324a2.066,2.066,0,1,0,0-4.131H38.681a2.066,2.066,0,0,0,0,4.131Z" transform="translate(15.83 10.793)" fill="#58a77a"/>
    <path id="Path_12718" data-name="Path 12718" d="M41.716,16.456a2.065,2.065,0,0,1-.756,2.822l-3.578,2.066a2.066,2.066,0,1,1-2.066-3.578L38.895,15.7A2.066,2.066,0,0,1,41.716,16.456Z" transform="translate(14.583 5.037)" fill="#58a77a"/>
    <path id="Path_12719" data-name="Path 12719" d="M33.449,11.455a2.066,2.066,0,0,0-3.578-2.066l-2.066,3.578a2.066,2.066,0,0,0,3.578,2.066Z" transform="translate(10.973 1.259)" fill="#58a77a"/>
  </g>
</svg>
