<svg id="noun-customizable-1626835" xmlns="http://www.w3.org/2000/svg" width="47.388" height="47.388" viewBox="0 0 47.388 47.388">
  <path id="Path_12706" data-name="Path 12706" d="M45.048,19.745H42.907l-8.96,6.347a10.53,10.53,0,1,1-2.1-9.063L42.212,9.693a2.8,2.8,0,0,0-.833-1.822L39.518,6.01a2.783,2.783,0,0,0-1.949-.837A2.186,2.186,0,0,0,36,5.8L33.628,8.175a18.3,18.3,0,0,0-5.985-2.481V2.34A2.5,2.5,0,0,0,25.01,0H22.379a2.5,2.5,0,0,0-2.634,2.34V5.695A18.3,18.3,0,0,0,13.76,8.175L11.387,5.8a2.186,2.186,0,0,0-1.567-.63A2.783,2.783,0,0,0,7.87,6.01L6.009,7.871A2.5,2.5,0,0,0,5.8,11.387L8.176,13.76a18.318,18.318,0,0,0-2.482,5.985H2.34A2.5,2.5,0,0,0,0,22.379V25.01a2.5,2.5,0,0,0,2.34,2.633H5.694a18.328,18.328,0,0,0,2.482,5.985L5.8,36a2.5,2.5,0,0,0,.207,3.517L7.87,41.38a2.784,2.784,0,0,0,1.949.836,2.187,2.187,0,0,0,1.568-.63l2.373-2.373a18.322,18.322,0,0,0,5.985,2.482v3.354a2.5,2.5,0,0,0,2.634,2.34H25.01a2.5,2.5,0,0,0,2.634-2.34V41.695a18.322,18.322,0,0,0,5.985-2.482L36,41.586a2.187,2.187,0,0,0,1.568.63,2.784,2.784,0,0,0,1.949-.836l1.861-1.861A2.5,2.5,0,0,0,41.586,36l-2.373-2.373a18.325,18.325,0,0,0,2.482-5.985h3.353a2.5,2.5,0,0,0,2.34-2.633V22.379A2.5,2.5,0,0,0,45.048,19.745Z"/>
  <path id="Path_12707" data-name="Path 12707" d="M77.249,30.155l-.924-1.306A2,2,0,0,0,74.691,28a1.973,1.973,0,0,0-1.166.378L56.374,40.516a4.478,4.478,0,0,1-.458.306c-.03-.043-.06-.088-.087-.13l-2.9-3.926a2.006,2.006,0,0,0-1.634-.849,1.979,1.979,0,0,0-1.175.385l-1.284.939a2.048,2.048,0,0,0-.448,2.833c.036.049,3.637,4.947,5.21,7.18a1.744,1.744,0,0,0,1.425.738h0a1.837,1.837,0,0,0,1.061-.348c4.039-2.853,20.7-14.661,20.71-14.667A2.047,2.047,0,0,0,77.249,30.155Z" transform="translate(-30.235 -17.634)" fill="#58a77a"/>
</svg>
